SplineFontDB: 3.2
FontName: GenSekiGothicJP-B
FullName: GenSekiGothic JP B
FamilyName: GenSekiGothic JP B
Weight: Bold
Copyright: 
Version: 1.501;PS 1;hotconv 16.6.51;makeotf.lib2.5.65220
ItalicAngle: 0
UnderlinePosition: -100
UnderlineWidth: 50
Ascent: 880
Descent: 120
InvalidEm: 0
sfntRevision: 0x00018041
LayerCount: 2
Layer: 0 1 "+gMyXYgAA" 1
Layer: 1 1 "+Uk2XYgAA" 0
HasVMetrics: 1
XUID: [1021 1008 -2030067150 5761036]
BaseHoriz: 4 'icfb' 'icft' 'ideo' 'romn'
BaseScript: 'DFLT' 2  -85 845 -120 0
BaseScript: 'cyrl' 3  -85 845 -120 0
BaseScript: 'grek' 3  -85 845 -120 0
BaseScript: 'hani' 2  -85 845 -120 0
BaseScript: 'kana' 2  -85 845 -120 0
BaseScript: 'latn' 3  -85 845 -120 0
BaseVert: 4 'icfb' 'icft' 'ideo' 'romn'
BaseScript: 'DFLT' 2  35 965 0 120
BaseScript: 'cyrl' 3  35 965 0 120
BaseScript: 'grek' 3  35 965 0 120
BaseScript: 'hani' 2  35 965 0 120
BaseScript: 'kana' 2  35 965 0 120
BaseScript: 'latn' 3  35 965 0 120
StyleMap: 0x0000
FSType: 0
OS2Version: 3
OS2_WeightWidthSlopeOnly: 0
OS2_UseTypoMetrics: 0
CreationTime: 1586688035
ModificationTime: 1744370137
PfmFamily: 17
TTFWeight: 700
TTFWidth: 5
LineGap: 0
VLineGap: 0
Panose: 2 11 8 0 0 0 0 0 0 0
OS2TypoAscent: 880
OS2TypoAOffset: 0
OS2TypoDescent: -120
OS2TypoDOffset: 0
OS2TypoLinegap: 0
OS2WinAscent: 880
OS2WinAOffset: 0
OS2WinDescent: 240
OS2WinDOffset: 0
HheadAscent: 880
HheadAOffset: 0
HheadDescent: -120
HheadDOffset: 0
OS2SubXSize: 650
OS2SubYSize: 600
OS2SubXOff: 0
OS2SubYOff: 75
OS2SupXSize: 650
OS2SupYSize: 600
OS2SupXOff: 0
OS2SupYOff: 350
OS2StrikeYSize: 50
OS2StrikeYPos: 325
OS2CapHeight: 733
OS2XHeight: 543
OS2Vendor: 'ZIHI'
OS2CodePages: 00020001.00000000
OS2UnicodeRanges: a00002ff.6acffdff.00000016.00000000
MarkAttachClasses: 1
DEI: 91125
ShortTable: maxp 16
  1
  0
  -31581
  777
  41
  0
  0
  0
  0
  0
  0
  0
  0
  0
  0
  0
EndShort

StartChar: uni3071
Encoding: 0 12401 0
Width: 1000
GlyphClass: 1
Flags: W
LayerCount: 2
Fore
SplineSet
838 629 m 0,0,1
 876 629 876 629 902 655 c 128,-1,2
 928 681 928 681 928 718.5 c 128,-1,3
 928 756 928 756 902 782 c 128,-1,4
 876 808 876 808 838 808 c 0,5,6
 802 808 802 808 776 782 c 0,7,8
 749 757 749 757 749 718 c 0,9,10
 749 681 749 681 775.5 655 c 128,-1,11
 802 629 802 629 838 629 c 0,0,1
133 -40 m 1,12,13
 96 89 96 89 96 263 c 0,14,15
 96 353 96 353 111 488 c 0,16,17
 119 549 119 549 131 641 c 0,18,19
 133 654 133 654 134 659 c 0,20,21
 143 719 143 719 144 752 c 1,22,23
 194 748 194 748 237 740 c 0,24,25
 281 731 281 731 279 724 c 0,26,27
 278 719 278 719 272 716 c 0,28,29
 263 711 263 711 260 699 c 0,30,31
 252 665 252 665 250 656 c 0,32,33
 238 600 238 600 223 485 c 0,34,35
 206 354 206 354 206 289 c 0,36,37
 206 254 206 254 210 227 c 1,38,39
 217 248 217 248 235 288 c 0,40,41
 246 313 246 313 251 325 c 1,42,43
 278 303 278 303 296 281 c 0,44,45
 319 253 319 253 315 239 c 0,46,47
 312 228 312 228 302 220 c 0,48,49
 286 207 286 207 277 178 c 0,50,51
 251 93 251 93 242 51 c 0,52,53
 237 29 237 29 237 7 c 0,54,55
 237 -20 237 -20 238 -33 c 1,56,-1
 133 -40 l 1,12,13
549 -37 m 0,57,58
 452 -37 452 -37 396.5 4 c 128,-1,59
 341 45 341 45 341 119 c 128,-1,60
 341 193 341 193 397 237 c 0,61,62
 453 283 453 283 548 283 c 0,63,64
 583 283 583 283 608 279 c 1,65,66
 602 397 602 397 602 473 c 1,67,68
 590 473 590 473 568 472 c 0,69,70
 546 472 546 472 536 472 c 0,71,72
 456 472 456 472 373 478 c 1,73,-1
 372 592 l 1,74,75
 453 583 453 583 536 583 c 0,76,77
 579 583 579 583 601 584 c 1,78,79
 601 612 601 612 600 657 c 0,80,81
 600 681 600 681 600 689 c 0,82,83
 600 720 600 720 593 751 c 1,84,-1
 680 751 l 1,85,86
 688 796 688 796 724 832 c 0,87,88
 772 880 772 880 838 880 c 0,89,90
 905 880 905 880 952.5 832.5 c 128,-1,91
 1000 785 1000 785 1000 718 c 128,-1,92
 1000 651 1000 651 953 604 c 0,93,94
 915 565 915 565 862 558 c 1,95,-1
 862 495 l 1,96,97
 797 485 797 485 717 480 c 1,98,99
 718 413 718 413 724 302 c 0,100,101
 726 265 726 265 727 247 c 1,102,103
 818 210 818 210 908 124 c 1,104,-1
 845 24 l 1,105,106
 784 81 784 81 731 119 c 1,107,108
 722 -37 722 -37 549 -37 c 0,57,58
537 76 m 0,109,110
 577 76 577 76 596 98 c 0,111,112
 613 119 613 119 613 163 c 2,113,-1
 613 179 l 1,114,115
 574 190 574 190 539 190 c 0,116,117
 499 190 499 190 474 174 c 128,-1,118
 449 158 449 158 449 132 c 0,119,120
 449 105 449 105 474 90 c 0,121,122
 498 76 498 76 537 76 c 0,109,110
735 594 m 1,123,124
 730 600 730 600 724 604 c 0,125,126
 721 607 721 607 718 610 c 1,127,128
 718 601 718 601 718 592 c 1,129,130
 727 593 727 593 735 594 c 1,123,124
EndSplineSet
EndChar

StartChar: uni3074
Encoding: 1 12404 1
Width: 1000
GlyphClass: 1
Flags: W
LayerCount: 2
Fore
SplineSet
401 -57 m 0,0,1
 284 -57 284 -57 212 14 c 0,2,3
 140 87 140 87 140 208 c 0,4,5
 140 309 140 309 185 416 c 0,6,7
 225 510 225 510 287 581 c 1,8,9
 231 575 231 575 166 561 c 0,10,11
 160 560 160 560 149 557 c 0,12,13
 126 552 126 552 112 549 c 1,14,-1
 95 673 l 1,15,16
 114 673 114 673 148 675 c 0,17,18
 225 681 225 681 319 698 c 0,19,20
 419 715 419 715 463 731 c 1,21,-1
 498 625 l 1,22,23
 466 613 466 613 452 603 c 0,24,25
 390 555 390 555 332 455 c 0,26,27
 259 332 259 332 259 225 c 0,28,29
 259 150 259 150 303 109 c 0,30,31
 342 72 342 72 407 72 c 0,32,33
 474 72 474 72 526 111.5 c 128,-1,34
 578 151 578 151 607 225 c 0,35,36
 671 385 671 385 615 639 c 0,37,38
 610 653 610 653 600 681 c 0,39,40
 597 690 597 690 595 695 c 1,41,-1
 677 721 l 1,42,43
 680 780 680 780 724 822 c 0,44,45
 772 870 772 870 838 870 c 0,46,47
 905 870 905 870 952.5 822.5 c 128,-1,48
 1000 775 1000 775 1000 708 c 128,-1,49
 1000 641 1000 641 953 594 c 0,50,51
 907 546 907 546 838 546 c 0,52,53
 794 546 794 546 758 567 c 1,54,55
 813 435 813 435 908 337 c 1,56,-1
 821 242 l 1,57,58
 772 308 772 308 737 370 c 1,59,60
 744 192 744 192 664 74 c 0,61,62
 573 -57 573 -57 401 -57 c 0,0,1
838 619 m 0,63,64
 876 619 876 619 902 645 c 128,-1,65
 928 671 928 671 928 708.5 c 128,-1,66
 928 746 928 746 902 772 c 128,-1,67
 876 798 876 798 838 798 c 0,68,69
 802 798 802 798 776 772 c 0,70,71
 749 747 749 747 749 708 c 0,72,73
 749 671 749 671 775.5 645 c 128,-1,74
 802 619 802 619 838 619 c 0,63,64
EndSplineSet
EndChar

StartChar: uni3077
Encoding: 2 12407 2
Width: 1000
GlyphClass: 1
Flags: W
LayerCount: 2
Fore
SplineSet
835 445 m 0,0,1
 769 445 769 445 721.5 492.5 c 128,-1,2
 674 540 674 540 674 607 c 128,-1,3
 674 674 674 674 721.5 721.5 c 128,-1,4
 769 769 769 769 835 769 c 0,5,6
 902 769 902 769 949.5 721.5 c 128,-1,7
 997 674 997 674 997 607 c 128,-1,8
 997 540 997 540 950 493 c 0,9,10
 904 445 904 445 835 445 c 0,0,1
835 518 m 0,11,12
 873 518 873 518 899 544 c 128,-1,13
 925 570 925 570 925 607.5 c 128,-1,14
 925 645 925 645 899 671 c 128,-1,15
 873 697 873 697 835 697 c 0,16,17
 799 697 799 697 773 671 c 0,18,19
 746 646 746 646 746 607 c 0,20,21
 746 570 746 570 772.5 544 c 128,-1,22
 799 518 799 518 835 518 c 0,11,12
466 -32 m 0,23,24
 389 -32 389 -32 317 -19 c 1,25,-1
 299 107 l 1,26,27
 377 84 377 84 443 84 c 0,28,29
 523 84 523 84 523 146 c 0,30,31
 523 185 523 185 485 245 c 0,32,33
 455 293 455 293 416 332 c 0,34,35
 373 375 373 375 330 407 c 1,36,-1
 422 485 l 1,37,38
 434 473 434 473 456 451 c 0,39,40
 484 423 484 423 497 409 c 0,41,42
 574 330 574 330 612 265 c 0,43,44
 651 198 651 198 651 133 c 0,45,46
 651 -32 651 -32 466 -32 c 0,23,24
118 18 m 1,47,-1
 48 122 l 1,48,49
 107 154 107 154 175 207 c 128,-1,50
 243 260 243 260 285 308 c 1,51,-1
 355 214 l 1,52,53
 320 175 320 175 255 118 c 0,54,55
 190 62 190 62 118 18 c 1,47,-1
814 34 m 1,56,57
 798 103 798 103 755 196 c 128,-1,58
 712 289 712 289 667 347 c 1,59,-1
 769 402 l 1,60,61
 811 348 811 348 859 255 c 0,62,63
 905 164 905 164 927 96 c 1,64,-1
 814 34 l 1,56,57
533 475 m 1,65,-1
 457 545 l 1,66,67
 488 566 488 566 515 589 c 1,68,69
 445 638 445 638 329 681 c 1,70,-1
 398 770 l 1,71,72
 447 753 447 753 523 718 c 0,73,74
 593 685 593 685 638 656 c 1,75,-1
 666 581 l 1,76,77
 585 513 585 513 533 475 c 1,65,-1
EndSplineSet
EndChar

StartChar: uni3078
Encoding: 3 12408 3
Width: 1000
GlyphClass: 1
Flags: W
LayerCount: 2
Fore
SplineSet
838 35 m 1,0,1
 794 78 794 78 633 262 c 0,2,3
 605 294 605 294 547 367 c 0,4,5
 461 476 461 476 434 476 c 0,6,7
 388 476 388 476 278 323 c 0,8,9
 252 287 252 287 242 273 c 0,10,11
 229 254 229 254 203 215 c 0,12,13
 189 193 189 193 182 183 c 1,14,-1
 125 242 l 1,15,-1
 69 302 l 1,16,17
 107 333 107 333 148 377 c 0,18,19
 185 416 185 416 247 496 c 0,20,21
 329 603 329 603 420 603 c 0,22,23
 520 603 520 603 630 471 c 0,24,25
 684 406 684 406 707 381 c 0,26,27
 823 249 823 249 934 147 c 1,28,-1
 838 35 l 1,0,1
EndSplineSet
EndChar

StartChar: uni3079
Encoding: 4 12409 4
Width: 1000
GlyphClass: 1
Flags: W
LayerCount: 2
Fore
SplineSet
830 19 m 1,0,1
 754 91 754 91 626 249 c 0,2,3
 605 275 605 275 558 333 c 0,4,5
 451 466 451 466 415 466 c 0,6,7
 383 466 383 466 298 350 c 0,8,9
 250 286 250 286 233 261 c 0,10,11
 221 243 221 243 198 205 c 0,12,13
 181 178 181 178 174 167 c 1,14,-1
 118 226 l 1,15,-1
 62 286 l 1,16,17
 94 311 94 311 141 360 c 0,18,19
 167 387 167 387 242 483 c 0,20,21
 321 583 321 583 410 583 c 0,22,23
 517 583 517 583 638 436 c 0,24,25
 681 384 681 384 699 363 c 0,26,27
 828 221 828 221 927 131 c 1,28,-1
 830 19 l 1,0,1
701 484 m 1,29,30
 682 527 682 527 660 567 c 0,31,32
 643 600 643 600 615 641 c 1,33,-1
 696 675 l 1,34,35
 748 598 748 598 786 522 c 1,36,-1
 701 484 l 1,29,30
833 538 m 1,37,38
 817 571 817 571 789 619 c 0,39,40
 764 659 764 659 742 690 c 1,41,-1
 822 728 l 1,42,43
 871 663 871 663 915 578 c 1,44,-1
 833 538 l 1,37,38
EndSplineSet
EndChar

StartChar: uni307A
Encoding: 5 12410 5
Width: 1000
GlyphClass: 1
Flags: W
LayerCount: 2
Fore
SplineSet
764 430 m 0,0,1
 698 430 698 430 650.5 477.5 c 128,-1,2
 603 525 603 525 603 592 c 128,-1,3
 603 659 603 659 650.5 706.5 c 128,-1,4
 698 754 698 754 764 754 c 0,5,6
 831 754 831 754 878.5 706.5 c 128,-1,7
 926 659 926 659 926 592 c 128,-1,8
 926 525 926 525 879 478 c 0,9,10
 833 430 833 430 764 430 c 0,0,1
764 503 m 0,11,12
 802 503 802 503 828 529 c 128,-1,13
 854 555 854 555 854 592.5 c 128,-1,14
 854 630 854 630 828 656 c 128,-1,15
 802 682 802 682 764 682 c 0,16,17
 728 682 728 682 702 656 c 0,18,19
 675 631 675 631 675 592 c 0,20,21
 675 555 675 555 701.5 529 c 128,-1,22
 728 503 728 503 764 503 c 0,11,12
830 19 m 1,23,24
 754 91 754 91 626 249 c 0,25,26
 605 275 605 275 558 333 c 0,27,28
 451 466 451 466 415 466 c 0,29,30
 383 466 383 466 298 350 c 0,31,32
 250 286 250 286 233 261 c 0,33,34
 221 243 221 243 198 205 c 0,35,36
 181 178 181 178 174 167 c 1,37,-1
 118 226 l 1,38,-1
 62 286 l 1,39,40
 94 311 94 311 141 360 c 0,41,42
 167 387 167 387 242 483 c 0,43,44
 321 583 321 583 410 583 c 0,45,46
 517 583 517 583 638 436 c 0,47,48
 681 384 681 384 699 363 c 0,49,50
 828 221 828 221 927 131 c 1,51,-1
 830 19 l 1,23,24
EndSplineSet
EndChar

StartChar: uni307D
Encoding: 6 12413 6
Width: 1000
GlyphClass: 1
Flags: W
LayerCount: 2
Fore
SplineSet
528 72 m 0,0,1
 569 72 569 72 587 92 c 0,2,3
 604 110 604 110 604 146 c 2,4,-1
 604 168 l 1,5,6
 570 177 570 177 536 177 c 0,7,8
 497 177 497 177 475.5 163 c 128,-1,9
 454 149 454 149 454 125 c 0,10,11
 454 99 454 99 474 85.5 c 128,-1,12
 494 72 494 72 528 72 c 0,0,1
543 -34 m 0,13,14
 457 -34 457 -34 406 3 c 0,15,16
 349 43 349 43 349 117 c 0,17,18
 349 182 349 182 397 223 c 0,19,20
 449 266 449 266 539 266 c 0,21,22
 581 266 581 266 601 263 c 1,23,24
 597 332 597 332 596 375 c 1,25,26
 472 373 472 373 385 378 c 1,27,-1
 384 488 l 1,28,29
 478 480 478 480 595 482 c 1,30,-1
 595 601 l 1,31,32
 510 600 510 600 398 604 c 1,33,-1
 398 710 l 1,34,35
 508 701 508 701 600 703 c 0,36,37
 638 704 638 704 677 706 c 1,38,39
 677 712 677 712 677 718 c 0,40,41
 677 785 677 785 724.5 832.5 c 128,-1,42
 772 880 772 880 838 880 c 0,43,44
 905 880 905 880 952.5 832.5 c 128,-1,45
 1000 785 1000 785 1000 718 c 128,-1,46
 1000 651 1000 651 953 604 c 0,47,48
 907 556 907 556 838 556 c 0,49,50
 772 556 772 556 724 604 c 0,51,52
 723 605 723 605 723 605 c 0,53,54
 714 604 714 604 704 604 c 1,55,-1
 704 487 l 1,56,57
 767 490 767 490 862 502 c 1,58,-1
 862 391 l 1,59,60
 794 384 794 384 705 379 c 1,61,62
 706 323 706 323 712 236 c 1,63,64
 811 200 811 200 902 117 c 1,65,-1
 841 13 l 1,66,67
 778 77 778 77 716 117 c 1,68,-1
 716 107 l 2,69,70
 716 41 716 41 675 5 c 0,71,72
 631 -34 631 -34 543 -34 c 0,13,14
132 -43 m 1,73,74
 96 84 96 84 96 261 c 0,75,76
 96 342 96 342 110 486 c 0,77,78
 118 555 118 555 131 653 c 0,79,80
 132 656 132 656 132 658 c 0,81,82
 141 715 141 715 142 751 c 1,83,84
 193 746 193 746 236 738 c 0,85,86
 280 728 280 728 278 722 c 0,87,88
 277 717 277 717 271 714 c 0,89,90
 262 709 262 709 259 697 c 0,91,92
 253 673 253 673 249 655 c 0,93,94
 237 601 237 601 223 483 c 0,95,96
 207 353 207 353 207 287 c 0,97,98
 207 242 207 242 210 222 c 1,99,100
 218 242 218 242 235 281 c 0,101,102
 247 309 247 309 252 322 c 1,103,104
 279 300 279 300 297 278 c 0,105,106
 320 250 320 250 316 236 c 0,107,108
 313 225 313 225 303 217 c 0,109,110
 287 204 287 204 278 175 c 0,111,112
 254 98 254 98 243 49 c 0,113,114
 243 48 243 48 243 46 c 0,115,116
 238 14 238 14 238 4 c 0,117,118
 238 -9 238 -9 240 -35 c 1,119,-1
 132 -43 l 1,73,74
838 629 m 0,120,121
 876 629 876 629 902 655 c 128,-1,122
 928 681 928 681 928 718.5 c 128,-1,123
 928 756 928 756 902 782 c 128,-1,124
 876 808 876 808 838 808 c 0,125,126
 802 808 802 808 776 782 c 0,127,128
 749 757 749 757 749 718 c 0,129,130
 749 681 749 681 775.5 655 c 128,-1,131
 802 629 802 629 838 629 c 0,120,121
EndSplineSet
EndChar

StartChar: uni309A
Encoding: 7 12442 7
Width: 1000
GlyphClass: 1
Flags: W
LayerCount: 2
Fore
SplineSet
190 503 m 0,0,1
 124 503 124 503 76.5 550.5 c 128,-1,2
 29 598 29 598 29 665 c 128,-1,3
 29 732 29 732 76.5 779.5 c 128,-1,4
 124 827 124 827 190 827 c 0,5,6
 257 827 257 827 304.5 779.5 c 128,-1,7
 352 732 352 732 352 665 c 128,-1,8
 352 598 352 598 305 551 c 0,9,10
 259 503 259 503 190 503 c 0,0,1
190 576 m 0,11,12
 228 576 228 576 254 602 c 128,-1,13
 280 628 280 628 280 665.5 c 128,-1,14
 280 703 280 703 254 729 c 128,-1,15
 228 755 228 755 190 755 c 0,16,17
 154 755 154 755 128 729 c 0,18,19
 101 704 101 704 101 665 c 0,20,21
 101 628 101 628 127.5 602 c 128,-1,22
 154 576 154 576 190 576 c 0,11,12
EndSplineSet
EndChar

StartChar: uni309C
Encoding: 8 12444 8
Width: 1000
GlyphClass: 1
Flags: W
LayerCount: 2
Fore
SplineSet
190 503 m 0,0,1
 124 503 124 503 76.5 550.5 c 128,-1,2
 29 598 29 598 29 665 c 128,-1,3
 29 732 29 732 76.5 779.5 c 128,-1,4
 124 827 124 827 190 827 c 0,5,6
 257 827 257 827 304.5 779.5 c 128,-1,7
 352 732 352 732 352 665 c 128,-1,8
 352 598 352 598 305 551 c 0,9,10
 259 503 259 503 190 503 c 0,0,1
190 576 m 0,11,12
 228 576 228 576 254 602 c 128,-1,13
 280 628 280 628 280 665.5 c 128,-1,14
 280 703 280 703 254 729 c 128,-1,15
 228 755 228 755 190 755 c 0,16,17
 154 755 154 755 128 729 c 0,18,19
 101 704 101 704 101 665 c 0,20,21
 101 628 101 628 127.5 602 c 128,-1,22
 154 576 154 576 190 576 c 0,11,12
EndSplineSet
EndChar

StartChar: uni30D1
Encoding: 9 12497 9
Width: 1000
GlyphClass: 1
Flags: W
LayerCount: 2
Fore
SplineSet
773 -6 m 1,0,1
 728 184 728 184 675 333 c 0,2,3
 648 409 648 409 608 501.5 c 128,-1,4
 568 594 568 594 539 649 c 1,5,-1
 664 690 l 1,6,7
 676 666 676 666 689 641 c 1,8,9
 677 669 677 669 677 702 c 0,10,11
 677 769 677 769 724.5 816.5 c 128,-1,12
 772 864 772 864 838 864 c 0,13,14
 905 864 905 864 952.5 816.5 c 128,-1,15
 1000 769 1000 769 1000 702 c 128,-1,16
 1000 635 1000 635 953 588 c 0,17,18
 907 540 907 540 838 540 c 0,19,20
 772 540 772 540 724 588 c 0,21,22
 707 605 707 605 697 624 c 1,23,24
 754 505 754 505 802 375 c 0,25,26
 855 242 855 242 912 40 c 1,27,-1
 842 17 l 1,28,-1
 773 -6 l 1,0,1
195 -11 m 1,29,-1
 129 17 l 1,30,-1
 64 46 l 1,31,32
 158 170 158 170 210 313 c 1,33,34
 284 496 284 496 300 677 c 1,35,36
 354 666 354 666 399 652 c 0,37,38
 446 636 446 636 444 629 c 0,39,40
 443 623 443 623 437 620 c 0,41,42
 428 613 428 613 424 599 c 0,43,44
 423 594 423 594 421 585 c 0,45,46
 415 561 415 561 414 553 c 0,47,48
 403 497 403 497 382 416 c 0,49,50
 358 327 358 327 335 264 c 0,51,52
 280 111 280 111 195 -11 c 1,29,-1
838 613 m 0,53,54
 876 613 876 613 902 639 c 128,-1,55
 928 665 928 665 928 702.5 c 128,-1,56
 928 740 928 740 902 766 c 128,-1,57
 876 792 876 792 838 792 c 0,58,59
 802 792 802 792 776 766 c 0,60,61
 749 741 749 741 749 702 c 0,62,63
 749 665 749 665 775.5 639 c 128,-1,64
 802 613 802 613 838 613 c 0,53,54
EndSplineSet
EndChar

StartChar: uni30D4
Encoding: 10 12500 10
Width: 1000
GlyphClass: 1
Flags: W
LayerCount: 2
Fore
SplineSet
474 -27 m 0,0,1
 389 -27 389 -27 316 -16 c 0,2,3
 187 8 187 8 187 127 c 2,4,-1
 187 388 l 1,5,-1
 187 650 l 2,6,7
 187 704 187 704 179 750 c 1,8,-1
 319 750 l 1,9,10
 311 704 311 704 311 650 c 2,11,-1
 311 469 l 1,12,13
 507 518 507 518 636 576 c 0,14,15
 659 584 659 584 683 596 c 1,16,17
 650 638 650 638 650 694 c 0,18,19
 650 761 650 761 697.5 808.5 c 128,-1,20
 745 856 745 856 811 856 c 0,21,22
 878 856 878 856 925.5 808.5 c 128,-1,23
 973 761 973 761 973 694 c 128,-1,24
 973 627 973 627 926 580 c 0,25,26
 880 532 880 532 811 532 c 0,27,28
 794 532 794 532 778 535 c 1,29,-1
 790 506 l 1,30,31
 715 473 715 473 680 460 c 0,32,33
 521 396 521 396 311 343 c 1,34,-1
 311 166 l 2,35,36
 311 136 311 136 326 123 c 0,37,38
 338 112 338 112 372 105 c 0,39,40
 414 99 414 99 481 99 c 0,41,42
 559 99 559 99 652 108 c 0,43,44
 753 118 753 118 808 133 c 1,45,-1
 808 -7 l 1,46,47
 682 -27 682 -27 474 -27 c 0,0,1
811 605 m 0,48,49
 849 605 849 605 875 631 c 128,-1,50
 901 657 901 657 901 694.5 c 128,-1,51
 901 732 901 732 875 758 c 128,-1,52
 849 784 849 784 811 784 c 0,53,54
 775 784 775 784 749 758 c 0,55,56
 722 733 722 733 722 694 c 0,57,58
 722 657 722 657 748.5 631 c 128,-1,59
 775 605 775 605 811 605 c 0,48,49
EndSplineSet
EndChar

StartChar: uni30D7
Encoding: 11 12503 11
Width: 1000
GlyphClass: 1
Flags: W
LayerCount: 2
Fore
SplineSet
301 -39 m 1,0,-1
 198 75 l 1,1,2
 326 106 326 106 424 169 c 0,3,4
 505 221 505 221 567 301 c 0,5,6
 611 357 611 357 641 435 c 0,7,8
 667 503 667 503 678 572 c 1,9,-1
 459 572 l 1,10,-1
 240 572 l 2,11,12
 176 572 176 572 128 568 c 1,13,-1
 128 703 l 1,14,15
 175 696 175 696 240 696 c 2,16,-1
 675 696 l 2,17,18
 677 696 677 696 678 696 c 1,19,20
 677 706 677 706 677 716 c 0,21,22
 677 783 677 783 724.5 830.5 c 128,-1,23
 772 878 772 878 838 878 c 0,24,25
 905 878 905 878 952.5 830.5 c 128,-1,26
 1000 783 1000 783 1000 716 c 128,-1,27
 1000 649 1000 649 953 602 c 0,28,29
 907 554 907 554 838 554 c 0,30,31
 826 554 826 554 815 555 c 1,32,33
 762 337 762 337 679 226 c 0,34,35
 541 40 541 40 301 -39 c 1,0,-1
838 627 m 0,36,37
 876 627 876 627 902 653 c 128,-1,38
 928 679 928 679 928 716.5 c 128,-1,39
 928 754 928 754 902 780 c 128,-1,40
 876 806 876 806 838 806 c 0,41,42
 802 806 802 806 776 780 c 0,43,44
 749 755 749 755 749 716 c 0,45,46
 749 679 749 679 775.5 653 c 128,-1,47
 802 627 802 627 838 627 c 0,36,37
EndSplineSet
EndChar

StartChar: uni30D8
Encoding: 12 12504 12
Width: 1000
GlyphClass: 1
Flags: W
LayerCount: 2
Fore
SplineSet
835 36 m 1,0,1
 771 119 771 119 633 285 c 0,2,3
 529 411 529 411 461 475 c 0,4,5
 440 495 440 495 421 516 c 1,6,7
 415 515 415 515 385 470 c 0,8,9
 365 441 365 441 307 362 c 0,10,11
 262.78308026 303.344902386 262.78308026 303.344902386 243 274 c 2,12,-1
 183 185 l 1,13,-1
 126 244 l 1,14,-1
 70 304 l 1,15,16
 95 324 95 324 137 366 c 0,17,18
 144 373 144 373 148 377 c 0,19,20
 194 424 194 424 289 545 c 0,21,22
 315 578 315 578 328 594 c 2,23,-1
 361 633 l 2,24,25
 412 694 412 694 412 706 c 1,26,27
 416 695 416 695 480 633 c 2,28,-1
 482.360893677 630.71288425 l 2,29,30
 496.342507645 618.391437309 496.342507645 618.391437309 512 602 c 0,31,32
 573 538 573 538 704 407 c 0,33,34
 709 402 709 402 719 391 c 0,35,36
 873 222 873 222 935 148 c 1,37,-1
 835 36 l 1,0,1
EndSplineSet
EndChar

StartChar: uni30D9
Encoding: 13 12505 13
Width: 1000
GlyphClass: 1
Flags: W
LayerCount: 2
Fore
SplineSet
832 542 m 1,0,1
 812 581 812 581 789 623 c 0,2,3
 767 660 767 660 742 695 c 1,4,-1
 822 732 l 1,5,6
 875 660 875 660 914 582 c 1,7,-1
 832 542 l 1,0,1
700 488 m 1,8,9
 683 527 683 527 660 571 c 0,10,11
 643 604 643 604 615 645 c 1,12,-1
 696 679 l 1,13,14
 751 598 751 598 785 526 c 1,15,-1
 700 488 l 1,8,9
828 20 m 1,16,17
 730 147 730 147 627 271 c 0,18,19
 509 415 509 415 454 461 c 0,20,21
 429 483 429 483 413.5 482 c 128,-1,22
 398 481 398 481 378 456 c 0,23,24
 342 410 342 410 240 266 c 0,25,26
 236 262 236 262 235 260 c 0,27,28
 215 233 215 233 180 178 c 0,29,30
 177 173 177 173 175 170 c 1,31,-1
 119 228 l 1,32,-1
 64 287 l 1,33,34
 102 319 102 319 141 360 c 0,35,36
 174 394 174 394 276 521 c 0,37,38
 306 559 306 559 321 577 c 0,39,40
 323.081936685 579.517690875 323.081936685 579.517690875 325.161529152 581.918170816 c 2,41,-1
 354 616 l 2,42,43
 405 677 405 677 405 689 c 1,44,45
 409 678 409 678 473 616 c 2,46,-1
 498.66257553 591.139379955 l 2,47,48
 502.30182157 588.179135843 502.30182157 588.179135843 506 585 c 0,49,50
 583 518 583 518 697 390 c 0,51,52
 714 371 714 371 756 325 c 0,53,54
 880 189 880 189 929 131 c 1,55,-1
 828 20 l 1,16,17
EndSplineSet
EndChar

StartChar: uni30DA
Encoding: 14 12506 14
Width: 1000
GlyphClass: 1
Flags: W
LayerCount: 2
Fore
SplineSet
828 20 m 1,0,1
 730 147 730 147 627 271 c 0,2,3
 509 415 509 415 454 461 c 0,4,5
 429 483 429 483 413.5 482 c 128,-1,6
 398 481 398 481 378 456 c 0,7,8
 342 410 342 410 240 266 c 0,9,10
 236 262 236 262 235 260 c 0,11,12
 215 233 215 233 180 178 c 0,13,14
 177 173 177 173 175 170 c 1,15,-1
 119 228 l 1,16,-1
 64 287 l 1,17,18
 102 319 102 319 141 360 c 0,19,20
 174 394 174 394 276 521 c 0,21,22
 306 559 306 559 321 577 c 0,23,24
 323.081936685 579.517690875 323.081936685 579.517690875 325.161529152 581.918170816 c 2,25,-1
 354 616 l 2,26,27
 405 677 405 677 405 689 c 1,28,29
 409 678 409 678 473 616 c 2,30,-1
 498.66257553 591.139379955 l 2,31,32
 502.30182157 588.179135843 502.30182157 588.179135843 506 585 c 0,33,34
 583 518 583 518 697 390 c 0,35,36
 714 371 714 371 756 325 c 0,37,38
 880 189 880 189 929 131 c 1,39,-1
 828 20 l 1,0,1
768 510 m 0,40,41
 806 510 806 510 832 536 c 128,-1,42
 858 562 858 562 858 599.5 c 128,-1,43
 858 637 858 637 832 663 c 128,-1,44
 806 689 806 689 768 689 c 0,45,46
 732 689 732 689 706 663 c 0,47,48
 679 638 679 638 679 599 c 0,49,50
 679 562 679 562 705.5 536 c 128,-1,51
 732 510 732 510 768 510 c 0,40,41
768 437 m 0,52,53
 702 437 702 437 654.5 484.5 c 128,-1,54
 607 532 607 532 607 599 c 128,-1,55
 607 666 607 666 654.5 713.5 c 128,-1,56
 702 761 702 761 768 761 c 0,57,58
 835 761 835 761 882.5 713.5 c 128,-1,59
 930 666 930 666 930 599 c 128,-1,60
 930 532 930 532 883 485 c 0,61,62
 837 437 837 437 768 437 c 0,52,53
EndSplineSet
EndChar

StartChar: uni30DD
Encoding: 15 12509 15
Width: 1000
GlyphClass: 1
Flags: W
LayerCount: 2
Fore
SplineSet
805 98 m 1,0,1
 776 158 776 158 730 236 c 0,2,3
 685 315 685 315 652 356 c 1,4,-1
 755 412 l 1,5,6
 789 368 789 368 839 289 c 0,7,8
 886 216 886 216 915 160 c 1,9,-1
 805 98 l 1,0,1
169 91 m 1,10,-1
 68 162 l 1,11,12
 115 208 115 208 165 278.5 c 128,-1,13
 215 349 215 349 244 410 c 1,14,15
 287 389 287 389 322 364 c 0,16,17
 360 336 360 336 354 326 c 0,18,19
 350 319 350 319 340 316 c 0,20,21
 323 310 323 310 312 289 c 0,22,23
 297 264 297 264 263 214 c 0,24,25
 210 135 210 135 169 91 c 1,10,-1
465 -42 m 0,26,27
 384 -42 384 -42 312 -33 c 1,28,-1
 301 86 l 1,29,30
 361 74 361 74 405 74 c 0,31,32
 424 74 424 74 431.5 82 c 128,-1,33
 439 90 439 90 440 109 c 0,34,35
 441 145 441 145 441 494 c 2,36,-1
 441 495 l 1,37,-1
 202 495 l 2,38,39
 146 495 146 495 111 491 c 1,40,-1
 111 619 l 1,41,42
 167 611 167 611 202 611 c 2,43,-1
 441 611 l 1,44,-1
 441 688 l 2,45,46
 441 735 441 735 432 771 c 1,47,-1
 571 771 l 1,48,49
 571 767 571 767 569 751 c 0,50,51
 563 705 563 705 563 688 c 2,52,-1
 563 611 l 1,53,-1
 688 611 l 1,54,55
 648 656 648 656 648 718 c 0,56,57
 648 785 648 785 695.5 832.5 c 128,-1,58
 743 880 743 880 809 880 c 0,59,60
 876 880 876 880 923.5 832.5 c 128,-1,61
 971 785 971 785 971 718 c 128,-1,62
 971 651 971 651 924 604 c 0,63,64
 902 581 902 581 874 569 c 1,65,-1
 874 492 l 1,66,67
 831 495 831 495 783 495 c 2,68,-1
 563 495 l 1,69,-1
 563 272 l 1,70,-1
 563 49 l 2,71,72
 563 -42 563 -42 465 -42 c 0,26,27
809 629 m 0,73,74
 847 629 847 629 873 655 c 128,-1,75
 899 681 899 681 899 718.5 c 128,-1,76
 899 756 899 756 873 782 c 128,-1,77
 847 808 847 808 809 808 c 0,78,79
 773 808 773 808 747 782 c 0,80,81
 720 757 720 757 720 718 c 0,82,83
 720 681 720 681 746.5 655 c 128,-1,84
 773 629 773 629 809 629 c 0,73,74
EndSplineSet
EndChar

StartChar: uni30FC
Encoding: 16 12540 16
Width: 1000
GlyphClass: 1
Flags: W
LayerCount: 2
Fore
SplineSet
116 441 m 1,0,-1
 191 571 l 1,1,2
 247 534 247 534 320 491 c 2,3,-1
 385 453 l 1,4,-1
 773 453 l 2,5,6
 822 453 822 453 854 456 c 0,7,8
 875 458 875 458 883 458 c 1,9,-1
 883 308 l 1,10,11
 876 308 876 308 857 309 c 0,12,13
 800 313 800 313 773 313 c 2,14,-1
 520 313 l 1,15,-1
 375 313 l 2,16,17
 349 313 349 313 317 331 c 2,18,-1
 250 369 l 2,19,20
 153 424 153 424 116 441 c 1,0,-1
EndSplineSet
EndChar

StartChar: uni4E00
Encoding: 17 19968 17
Width: 1000
GlyphClass: 1
Flags: W
LayerCount: 2
Fore
SplineSet
50 316 m 1,0,1
 47 323 47 323 47 390 c 128,-1,2
 47 457 47 457 50 466 c 1,3,4
 163 454 163 454 350 454 c 2,5,-1
 652 454 l 2,6,7
 713 454 713 454 773 456 c 1,8,9
 773 479 773 479 785 499 c 0,10,11
 797 519 797 519 818 532 c 0,12,13
 839 544 839 544 863 544 c 128,-1,14
 887 544 887 544 908 532 c 0,15,16
 928 520 928 520 941 499 c 0,17,18
 951 482 951 482 952 464 c 0,19,20
 955 452 955 452 955 390 c 0,21,22
 955 323 955 323 952 316 c 1,23,24
 868 325 868 325 727 325 c 2,25,-1
 501 325 l 1,26,-1
 275 325 l 2,27,28
 163 325 163 325 50 316 c 1,0,1
EndSplineSet
EndChar

StartChar: uni4E8C
Encoding: 18 20108 18
Width: 1000
GlyphClass: 1
Flags: W
LayerCount: 2
Fore
SplineSet
146 571 m 1,0,1
 143 577 143 577 143 645 c 128,-1,2
 143 713 143 713 146 722 c 1,3,4
 259 710 259 710 446 710 c 2,5,-1
 650 710 l 2,6,7
 752 710 752 710 854 719 c 1,8,9
 857 712 857 712 857 644.5 c 128,-1,10
 857 577 857 577 854 571 c 1,11,12
 784 579 784 579 677 579 c 2,13,-1
 500 579 l 1,14,-1
 323 579 l 2,15,16
 240 579 240 579 146 571 c 1,0,1
65 -13 m 1,17,18
 62 -6 62 -6 62 65 c 128,-1,19
 62 136 62 136 65 145 c 1,20,21
 178 133 178 133 365 133 c 2,22,-1
 650 133 l 2,23,24
 704 133 704 133 757 135 c 1,25,26
 759 154 759 154 769 171 c 0,27,28
 781 191 781 191 802 204 c 0,29,30
 823 216 823 216 847 216 c 128,-1,31
 871 216 871 216 892 204 c 0,32,33
 912 192 912 192 925 171 c 0,34,35
 932 158 932 158 935 145 c 0,36,37
 935 143 935 143 936 140 c 0,38,39
 937 133 937 133 937 126 c 0,40,41
 938 106 938 106 938 65 c 0,42,43
 938 -6 938 -6 935 -13 c 1,44,45
 854 -4 854 -4 718 -4 c 2,46,-1
 500 -4 l 1,47,-1
 282 -4 l 2,48,49
 173 -4 173 -4 65 -13 c 1,17,18
EndSplineSet
EndChar

StartChar: uni529B
Encoding: 19 21147 19
AltUni2: 00f98a.ffffffff.0 00f98a.ffffffff.0
Width: 1000
GlyphClass: 1
Flags: W
LayerCount: 2
Fore
SplineSet
146 -92 m 1,0,1
 133 -70 133 -70 105 -41 c 0,2,3
 78 -12 78 -12 55 5 c 1,4,5
 221 97 221 97 303 246 c 0,6,7
 366 361 366 361 380 517 c 1,8,-1
 232 517 l 2,9,10
 159 517 159 517 85 511 c 1,11,12
 82 516 82 516 82 578.5 c 128,-1,13
 82 641 82 641 85 645 c 1,14,15
 141 639 141 639 235 639 c 2,16,-1
 385 639 l 1,17,-1
 385 742 l 2,18,19
 385 801 385 801 380 849 c 1,20,21
 425 851 425 851 474 848 c 0,22,23
 534 844 534 844 534 835 c 1,24,25
 510 787 510 787 510 739 c 2,26,-1
 510 639 l 1,27,-1
 708 639 l 1,28,-1
 727 639 l 1,29,30
 727 639 727 639 727 640 c 0,31,32
 727 664 727 664 739 685 c 0,33,34
 751 705 751 705 772 718 c 0,35,36
 793 730 793 730 817 730 c 128,-1,37
 841 730 841 730 862 718 c 0,38,39
 882 706 882 706 895 685 c 0,40,41
 907 664 907 664 907 640 c 0,42,43
 907 639 907 639 907 639 c 1,44,-1
 907 639 l 1,45,46
 907 639 907 639 907 639 c 0,47,48
 907 637 907 637 907 634 c 0,49,50
 906 608 906 608 904 582 c 0,51,52
 889 279 889 279 872 152 c 0,53,54
 854 21 854 21 821 -18 c 0,55,56
 800 -46 800 -46 776 -58 c 0,57,58
 756 -69 756 -69 721 -74 c 0,59,60
 669 -81 669 -81 565 -76 c 1,61,62
 563 -48 563 -48 553 -14 c 0,63,64
 541 22 541 22 525 47 c 1,65,66
 586 42 586 42 670 42 c 0,67,68
 699 42 699 42 716 58 c 0,69,70
 759 104 759 104 780 517 c 1,71,-1
 506 517 l 1,72,73
 492 330 492 330 424 195 c 0,74,75
 334 16 334 16 146 -92 c 1,0,1
EndSplineSet
EndChar

StartChar: uni53E3
Encoding: 20 21475 20
Width: 1000
GlyphClass: 1
Flags: W
LayerCount: 2
Fore
SplineSet
238 137 m 1,0,-1
 758 137 l 1,1,-1
 758 628 l 1,2,-1
 498 628 l 1,3,-1
 238 628 l 1,4,-1
 238 137 l 1,0,-1
176 -72 m 0,5,6
 114 -72 114 -72 107 -67 c 1,7,8
 116 10 116 10 116 137 c 2,9,-1
 116 341 l 1,10,-1
 116 545 l 2,11,12
 116 673 116 673 107 749 c 0,13,14
 107 761 107 761 116 761 c 0,15,16
 229 749 229 749 416 749 c 2,17,-1
 651 749 l 2,18,19
 685 749 685 749 717 750 c 1,20,21
 717 752 717 752 717 753 c 0,22,23
 717 777 717 777 729 798 c 0,24,25
 741 818 741 818 762 831 c 0,26,27
 783 843 783 843 807 843 c 128,-1,28
 831 843 831 843 852 831 c 0,29,30
 872 819 872 819 885 798 c 0,31,32
 897 777 897 777 897 753 c 0,33,34
 897 752 897 752 897 750 c 0,35,36
 897 749 897 749 897 748.5 c 128,-1,37
 897 748 897 748 897 748 c 0,38,39
 897 744 897 744 896 739 c 0,40,41
 886 640 886 640 886 492 c 2,42,-1
 886 235 l 2,43,44
 886 48 886 48 898 -65 c 1,45,46
 889 -70 889 -70 823 -70 c 0,47,48
 758 -70 758 -70 756 -65 c 0,49,50
 758 -47 758 -47 758 -26 c 2,51,-1
 758 14 l 1,52,-1
 238 14 l 1,53,-1
 238 -27 l 2,54,55
 238 -47 238 -47 240 -67 c 0,56,57
 239 -72 239 -72 176 -72 c 0,5,6
EndSplineSet
EndChar

StartChar: uni5DE5
Encoding: 21 24037 21
Width: 1000
GlyphClass: 1
Flags: W
LayerCount: 2
Fore
SplineSet
57 -27 m 1,0,1
 54 -20 54 -20 54 42 c 128,-1,2
 54 104 54 104 57 110 c 1,3,4
 131 102 131 102 243 102 c 2,5,-1
 430 102 l 1,6,-1
 430 619 l 1,7,-1
 270 619 l 2,8,9
 203 619 203 619 110 612 c 1,10,11
 107 617 107 617 107 681.5 c 128,-1,12
 107 746 107 746 110 755 c 1,13,14
 223 743 223 743 410 743 c 2,15,-1
 652 743 l 2,16,17
 760 743 760 743 893 753 c 1,18,19
 896 746 896 746 896 681.5 c 128,-1,20
 896 617 896 617 893 612 c 1,21,22
 821 619 821 619 729 619 c 2,23,-1
 564 619 l 1,24,-1
 564 102 l 1,25,-1
 756 102 l 2,26,27
 763 102 763 102 771 102 c 1,28,29
 773 121 773 121 782 137 c 0,30,31
 794 157 794 157 815 170 c 0,32,33
 836 182 836 182 860 182 c 128,-1,34
 884 182 884 182 905 170 c 0,35,36
 925 158 925 158 938 137 c 0,37,38
 946 123 946 123 949 108 c 0,39,40
 949 106 949 106 949 102 c 0,41,42
 949 99 949 99 950 97 c 0,43,44
 951 80 951 80 951 42 c 0,45,46
 951 -20 951 -20 948 -27 c 1,47,48
 866 -18 866 -18 725 -18 c 2,49,-1
 502 -18 l 1,50,-1
 279 -18 l 2,51,52
 168 -18 168 -18 57 -27 c 1,0,1
EndSplineSet
EndChar

StartChar: uni304B_uni309A.ccmp
Encoding: 22 -1 22
Width: 1000
GlyphClass: 1
Flags: W
LayerCount: 2
Fore
SplineSet
824 260 m 1,0,1
 805 343 805 343 761 449 c 0,2,3
 711 566 711 566 666 622 c 1,4,-1
 699 636 l 1,5,6
 677 672 677 672 677 718 c 0,7,8
 677 785 677 785 724.5 832.5 c 128,-1,9
 772 880 772 880 838 880 c 0,10,11
 905 880 905 880 952.5 832.5 c 128,-1,12
 1000 785 1000 785 1000 718 c 128,-1,13
 1000 651 1000 651 953 604 c 0,14,15
 909 558 909 558 843 556 c 1,16,17
 864 514 864 514 886 463 c 0,18,19
 923 377 923 377 942 316 c 1,20,-1
 824 260 l 1,0,1
209 -34 m 1,21,-1
 86 16 l 1,22,23
 197 169 197 169 274 460 c 1,24,25
 227 456 227 456 194 450 c 0,26,27
 135 443 135 443 91 434 c 1,28,-1
 81 564 l 1,29,30
 108 562 108 562 162 563 c 0,31,32
 173 564 173 564 179 564 c 0,33,34
 222 565 222 565 299 572 c 1,35,36
 321 694 321 694 318 773 c 1,37,-1
 388 765 l 1,38,-1
 458 758 l 1,39,40
 446 710 446 710 441 680 c 0,41,42
 439 666 439 666 432 636 c 0,43,44
 425 600 425 600 422 582 c 1,45,46
 427 582 427 582 435 583 c 0,47,48
 483 586 483 586 500 586 c 0,49,50
 668 586 668 586 668 404 c 0,51,52
 668 307 668 307 657 220 c 0,53,54
 643 115 643 115 616 58 c 0,55,56
 594 10 594 10 554 -11 c 0,57,58
 518 -30 518 -30 462 -30 c 0,59,60
 414 -30 414 -30 350 -16 c 1,61,-1
 331 110 l 1,62,63
 395 90 395 90 444 90 c 0,64,65
 496 90 496 90 514 130 c 0,66,67
 533 169 533 169 543 246 c 0,68,69
 553 316 553 316 553 391 c 0,70,71
 553 444 553 444 530 463 c 0,72,73
 510 478 510 478 461 478 c 0,74,75
 449 478 449 478 413 475 c 0,76,77
 403 474 403 474 397 474 c 1,78,79
 365 342 365 342 322 219 c 0,80,81
 267 61 267 61 209 -34 c 1,21,-1
838 629 m 0,82,83
 876 629 876 629 902 655 c 128,-1,84
 928 681 928 681 928 718.5 c 128,-1,85
 928 756 928 756 902 782 c 128,-1,86
 876 808 876 808 838 808 c 0,87,88
 802 808 802 808 776 782 c 0,89,90
 749 757 749 757 749 718 c 0,91,92
 749 681 749 681 775.5 655 c 128,-1,93
 802 629 802 629 838 629 c 0,82,83
EndSplineSet
EndChar

StartChar: uni304D_uni309A.ccmp
Encoding: 23 -1 23
Width: 1000
GlyphClass: 1
Flags: W
LayerCount: 2
Fore
SplineSet
718 170 m 1,0,1
 623 188 623 188 515 202 c 1,2,-1
 525 292 l 2,3,4
 528 292 528 292 533 291 c 0,5,6
 602 286 602 286 625 283 c 1,7,8
 608 320 608 320 583 382 c 1,9,10
 495 372 495 372 387.5 370 c 128,-1,11
 280 368 280 368 173 376 c 1,12,-1
 168 485 l 1,13,14
 375 466 375 466 540 483 c 1,15,-1
 524 520 l 2,16,17
 514 544 514 544 512 548 c 0,18,19
 504 566 504 566 501 575 c 1,20,21
 349 562 349 562 181 578 c 1,22,-1
 175 687 l 1,23,24
 326 670 326 670 457 676 c 1,25,-1
 457 677 l 1,26,27
 432 728 432 728 412 759 c 1,28,-1
 545 785 l 1,29,30
 556 740 556 740 574 690 c 1,31,32
 628 699 628 699 677 711 c 0,33,34
 677 714 677 714 677 718 c 0,35,36
 677 785 677 785 724.5 832.5 c 128,-1,37
 772 880 772 880 838 880 c 0,38,39
 905 880 905 880 952.5 832.5 c 128,-1,40
 1000 785 1000 785 1000 718 c 128,-1,41
 1000 651 1000 651 953 604 c 0,42,43
 907 556 907 556 838 556 c 0,44,45
 772 556 772 556 724 604 c 0,46,47
 720 608 720 608 717 612 c 1,48,49
 666 599 666 599 613 589 c 1,50,-1
 631 548 l 1,51,-1
 651 500 l 1,52,53
 746 518 746 518 819 547 c 1,54,-1
 840 439 l 1,55,56
 786 419 786 419 697 401 c 1,57,58
 741 303 741 303 774 242 c 1,59,-1
 718 170 l 1,0,1
462 -50 m 0,60,61
 328 -50 328 -50 256 -3 c 0,62,63
 180 45 180 45 180 143 c 0,64,65
 180 195 180 195 204 271 c 1,66,67
 248 267 248 267 287 258 c 0,68,69
 327 248 327 248 325 241 c 0,70,71
 323 236 323 236 318 233 c 0,72,73
 308 227 308 227 304 213 c 0,74,75
 297 185 297 185 297 169 c 0,76,77
 297 69 297 69 459 69 c 0,78,79
 608 69 608 69 705 90 c 1,80,-1
 701 -32 l 1,81,82
 599 -50 599 -50 462 -50 c 0,60,61
838 629 m 0,83,84
 876 629 876 629 902 655 c 128,-1,85
 928 681 928 681 928 718.5 c 128,-1,86
 928 756 928 756 902 782 c 128,-1,87
 876 808 876 808 838 808 c 0,88,89
 802 808 802 808 776 782 c 0,90,91
 749 757 749 757 749 718 c 0,92,93
 749 681 749 681 775.5 655 c 128,-1,94
 802 629 802 629 838 629 c 0,83,84
EndSplineSet
EndChar

StartChar: uni304F_uni309A.ccmp
Encoding: 24 -1 24
Width: 1000
GlyphClass: 1
Flags: W
LayerCount: 2
Fore
SplineSet
750 346 m 0,0,1
 684 346 684 346 636.5 393.5 c 128,-1,2
 589 441 589 441 589 508 c 128,-1,3
 589 575 589 575 636.5 622.5 c 128,-1,4
 684 670 684 670 750 670 c 0,5,6
 817 670 817 670 864.5 622.5 c 128,-1,7
 912 575 912 575 912 508 c 128,-1,8
 912 441 912 441 865 394 c 0,9,10
 819 346 819 346 750 346 c 0,0,1
750 419 m 0,11,12
 788 419 788 419 814 445 c 128,-1,13
 840 471 840 471 840 508.5 c 128,-1,14
 840 546 840 546 814 572 c 128,-1,15
 788 598 788 598 750 598 c 0,16,17
 714 598 714 598 688 572 c 0,18,19
 661 547 661 547 661 508 c 0,20,21
 661 471 661 471 687.5 445 c 128,-1,22
 714 419 714 419 750 419 c 0,11,12
610 -62 m 1,23,24
 570 -18 570 -18 528 26 c 0,25,26
 475 83 475 83 250 279 c 0,27,28
 182 338 182 338 185 385 c 0,29,30
 187 430 187 430 258 490 c 0,31,32
 264 495 264 495 276 505 c 0,33,34
 463 661 463 661 521 720 c 0,35,36
 574 771 574 771 593 799 c 1,37,-1
 702 700 l 1,38,39
 684 687 684 687 649 659 c 0,40,41
 629 643 629 643 620 636 c 0,42,43
 599 618 599 618 539 570 c 0,44,45
 415 470 415 470 375 434 c 0,46,47
 338 402 338 402 338.5 386 c 128,-1,48
 339 370 339 370 377 337 c 0,49,50
 399 318 399 318 470 258 c 0,51,52
 655 102 655 102 718 40 c 1,53,-1
 664 -11 l 1,54,-1
 610 -62 l 1,23,24
EndSplineSet
EndChar

StartChar: uni3051_uni309A.ccmp
Encoding: 25 -1 25
Width: 1000
GlyphClass: 1
Flags: W
LayerCount: 2
Fore
SplineSet
159 2 m 1,0,1
 140 56 140 56 124 134 c 0,2,3
 105 231 105 231 105 311 c 0,4,5
 105 491 105 491 136 690 c 0,6,7
 140 715 140 715 142 766 c 0,8,9
 142 770 142 770 142 772 c 1,10,11
 195 767 195 767 241.5 757 c 128,-1,12
 288 747 288 747 287 741 c 0,13,14
 286 736 286 736 280 734 c 0,15,16
 271 729 271 729 268 718 c 0,17,18
 261 694 261 694 258 681 c 0,19,20
 236 576 236 576 224 475 c 0,21,22
 210 338 210 338 226 259 c 1,23,24
 234 275 234 275 251 318 c 0,25,26
 264 353 264 353 271 368 c 1,27,28
 297 351 297 351 317 330 c 0,29,30
 340 306 340 306 336 292 c 0,31,32
 333 281 333 281 324 273 c 0,33,34
 308 260 308 260 299 230 c 0,35,36
 275 142 275 142 266 98 c 0,37,38
 260 70 260 70 260 52 c 0,39,40
 260 48 260 48 261 36 c 0,41,42
 262 20 262 20 262 13 c 1,43,-1
 159 2 l 1,0,1
537 -52 m 1,44,-1
 429 34 l 1,45,46
 498 66 498 66 538 110 c 0,47,48
 589 165 589 165 607 239 c 0,49,50
 624 305 624 305 624 431 c 2,51,-1
 624 465 l 1,52,53
 622 465 622 465 618 465 c 0,54,55
 552 463 552 463 520 463 c 0,56,57
 486 463 486 463 403 467 c 0,58,59
 385 468 385 468 376 468 c 1,60,-1
 376 589 l 1,61,62
 442 579 442 579 517 579 c 0,63,64
 552 579 552 579 622 581 c 1,65,66
 621 631 621 631 618 705 c 0,67,68
 618 708 618 708 618 710 c 0,69,70
 613 753 613 753 607 774 c 1,71,-1
 686 774 l 1,72,73
 698 806 698 806 724 832 c 0,74,75
 772 880 772 880 838 880 c 0,76,77
 905 880 905 880 952.5 832.5 c 128,-1,78
 1000 785 1000 785 1000 718 c 128,-1,79
 1000 651 1000 651 953 604 c 0,80,81
 921 571 921 571 878 560 c 1,82,-1
 877 482 l 1,83,84
 822 475 822 475 739 470 c 1,85,-1
 739 431 l 2,86,87
 739 335 739 335 734 278 c 0,88,89
 726 204 726 204 707 151 c 0,90,91
 666 33 666 33 537 -52 c 1,44,-1
838 629 m 0,92,93
 876 629 876 629 902 655 c 128,-1,94
 928 681 928 681 928 718.5 c 128,-1,95
 928 756 928 756 902 782 c 128,-1,96
 876 808 876 808 838 808 c 0,97,98
 802 808 802 808 776 782 c 0,99,100
 749 757 749 757 749 718 c 0,101,102
 749 681 749 681 775.5 655 c 128,-1,103
 802 629 802 629 838 629 c 0,92,93
738 591 m 1,104,-1
 738 588 l 1,105,106
 740 588 740 588 742 588 c 1,107,108
 740 589 740 589 738 591 c 1,104,-1
EndSplineSet
EndChar

StartChar: uni3053_uni309A.ccmp
Encoding: 26 -1 26
Width: 1000
GlyphClass: 1
Flags: W
LayerCount: 2
Fore
SplineSet
472 562 m 0,0,1
 356 562 356 562 217 573 c 1,2,-1
 217 699 l 1,3,4
 325 688 325 688 471 688 c 0,5,6
 520 688 520 688 614 692 c 0,7,8
 640 693 640 693 678 696 c 1,9,10
 677 705 677 705 677 715 c 0,11,12
 677 782 677 782 724.5 829.5 c 128,-1,13
 772 877 772 877 838 877 c 0,14,15
 905 877 905 877 952.5 829.5 c 128,-1,16
 1000 782 1000 782 1000 715 c 128,-1,17
 1000 648 1000 648 953 601 c 0,18,19
 907 553 907 553 838 553 c 0,20,21
 783 553 783 553 741 586 c 1,22,-1
 741 574 l 1,23,24
 585 562 585 562 472 562 c 0,0,1
476 -33 m 0,25,26
 317 -33 317 -33 235 20 c 0,27,28
 155 71 155 71 155 170 c 0,29,30
 155 223 155 223 173 302 c 0,31,32
 174 306 174 306 174 308 c 1,33,34
 221 303 221 303 263 294 c 0,35,36
 305 284 305 284 304 277 c 0,37,38
 303 271 303 271 297 267 c 0,39,40
 288 261 288 261 285 248 c 0,41,42
 280 221 280 221 280 200 c 0,43,44
 280 152 280 152 325 126 c 0,45,46
 374 96 374 96 471 96 c 0,47,48
 664 96 664 96 798 133 c 1,49,-1
 799 0 l 1,50,51
 670 -33 670 -33 476 -33 c 0,25,26
838 626 m 0,52,53
 876 626 876 626 902 652 c 128,-1,54
 928 678 928 678 928 715.5 c 128,-1,55
 928 753 928 753 902 779 c 128,-1,56
 876 805 876 805 838 805 c 0,57,58
 802 805 802 805 776 779 c 0,59,60
 749 754 749 754 749 715 c 0,61,62
 749 678 749 678 775.5 652 c 128,-1,63
 802 626 802 626 838 626 c 0,52,53
EndSplineSet
EndChar

StartChar: uni30AB_uni309A.ccmp
Encoding: 27 -1 27
Width: 1000
GlyphClass: 1
Flags: W
LayerCount: 2
Fore
SplineSet
198 -33 m 1,0,-1
 89 57 l 1,1,2
 162 98 162 98 212 151 c 0,3,4
 277 217 277 217 315 301 c 0,5,6
 352 383 352 383 367 493 c 1,7,-1
 243 493 l 2,8,9
 159 493 159 493 119 489 c 1,10,-1
 119 615 l 1,11,12
 189 608 189 608 242 608 c 2,13,-1
 378 608 l 1,14,15
 380 662 380 662 380 692 c 0,16,17
 380 734 380 734 372 780 c 1,18,-1
 511 780 l 1,19,20
 505 734 505 734 505 695 c 0,21,22
 503 637 503 637 501 608 c 1,23,-1
 677 608 l 2,24,25
 696 608 696 608 718 610 c 1,26,27
 677 655 677 655 677 718 c 0,28,29
 677 785 677 785 724.5 832.5 c 128,-1,30
 772 880 772 880 838 880 c 0,31,32
 905 880 905 880 952.5 832.5 c 128,-1,33
 1000 785 1000 785 1000 718 c 128,-1,34
 1000 651 1000 651 953 604 c 0,35,36
 907 556 907 556 838 556 c 0,37,38
 834 556 834 556 830 556 c 0,39,40
 827 552 827 552 826 547 c 0,41,42
 824 529 824 529 824 524 c 0,43,44
 810 155 810 155 768 54 c 0,45,46
 738 -20 738 -20 647 -20 c 0,47,48
 583 -20 583 -20 491 -12 c 1,49,-1
 476 116 l 1,50,51
 552 103 552 103 609 103 c 0,52,53
 631 103 631 103 642.5 111 c 128,-1,54
 654 119 654 119 662 137 c 0,55,56
 680 178 680 178 692 299 c 0,57,58
 702 401 702 401 702 493 c 1,59,-1
 595 493 l 1,60,-1
 489 493 l 1,61,62
 465 306 465 306 394 181 c 0,63,64
 326 60 326 60 198 -33 c 1,0,-1
838 629 m 0,65,66
 876 629 876 629 902 655 c 128,-1,67
 928 681 928 681 928 718.5 c 128,-1,68
 928 756 928 756 902 782 c 128,-1,69
 876 808 876 808 838 808 c 0,70,71
 802 808 802 808 776 782 c 0,72,73
 749 757 749 757 749 718 c 0,74,75
 749 681 749 681 775.5 655 c 128,-1,76
 802 629 802 629 838 629 c 0,65,66
EndSplineSet
EndChar

StartChar: uni30AD_uni309A.ccmp
Encoding: 28 -1 28
Width: 1000
GlyphClass: 1
Flags: W
LayerCount: 2
Fore
SplineSet
491 -61 m 1,0,1
 489 -45 489 -45 486 -16 c 0,2,3
 482 20 482 20 479 36 c 0,4,5
 467 106 467 106 447 210 c 1,6,7
 310 187 310 187 222 170 c 0,8,9
 168 162 168 162 128 151 c 1,10,-1
 102 280 l 1,11,12
 134 281 134 281 199 290 c 0,13,14
 225 294 225 294 316 308 c 0,15,16
 387 320 387 320 425 326 c 1,17,-1
 397 481 l 1,18,19
 388 480 388 480 371 477 c 0,20,21
 239 454 239 454 213 449 c 0,22,23
 192 445 192 445 156 437 c 0,24,25
 136 432 136 432 126 430 c 1,26,-1
 101 561 l 1,27,28
 157 565 157 565 188 569 c 0,29,30
 274 580 274 580 374 596 c 1,31,32
 368 629 368 629 359 673 c 0,33,34
 358 681 358 681 357 684 c 0,35,36
 353 704 353 704 344 740 c 0,37,38
 340 751 340 751 339 757 c 1,39,-1
 471 778 l 1,40,41
 472 771 472 771 474 753 c 0,42,43
 479 719 479 719 482 704 c 0,44,45
 483 691 483 691 496 620 c 0,46,47
 497 617 497 617 497 616 c 1,48,49
 606 632 606 632 682 648 c 0,50,51
 687 649 687 649 692 650 c 1,52,53
 677 681 677 681 677 718 c 0,54,55
 677 785 677 785 724.5 832.5 c 128,-1,56
 772 880 772 880 838 880 c 0,57,58
 905 880 905 880 952.5 832.5 c 128,-1,59
 1000 785 1000 785 1000 718 c 128,-1,60
 1000 651 1000 651 953 604 c 0,61,62
 907 556 907 556 838 556 c 0,63,64
 812 556 812 556 789 563 c 1,65,-1
 793 542 l 1,66,67
 777 541 777 541 729 533 c 0,68,69
 713 531 713 531 706 530 c 2,70,-1
 612 515 l 1,71,-1
 518 500 l 1,72,-1
 547 347 l 1,73,74
 703 373 703 373 751 383 c 0,75,76
 813 395 813 395 847 406 c 1,77,-1
 872 279 l 1,78,79
 852 277 852 277 794 268 c 0,80,81
 780 265 780 265 773 264 c 0,82,83
 753 261 753 261 698 252 c 0,84,85
 615 238 615 238 569 231 c 1,86,87
 582 163 582 163 600 73 c 0,88,89
 602 62 602 62 603 58 c 0,90,91
 611 21 611 21 627 -37 c 1,92,-1
 491 -61 l 1,0,1
838 629 m 0,93,94
 876 629 876 629 902 655 c 128,-1,95
 928 681 928 681 928 718.5 c 128,-1,96
 928 756 928 756 902 782 c 128,-1,97
 876 808 876 808 838 808 c 0,98,99
 802 808 802 808 776 782 c 0,100,101
 749 757 749 757 749 718 c 0,102,103
 749 681 749 681 775.5 655 c 128,-1,104
 802 629 802 629 838 629 c 0,93,94
EndSplineSet
EndChar

StartChar: uni30AF_uni309A.ccmp
Encoding: 29 -1 29
Width: 1000
GlyphClass: 1
Flags: W
LayerCount: 2
Fore
SplineSet
273 -68 m 1,0,-1
 162 34 l 1,1,2
 297 75 297 75 393 139 c 0,3,4
 473 192 473 192 541 272 c 0,5,6
 587 325 587 325 626 403 c 0,7,8
 662 476 662 476 674 533 c 1,9,-1
 542 533 l 1,10,-1
 410 533 l 1,11,12
 302 390 302 390 172 301 c 1,13,-1
 67 381 l 1,14,15
 250 494 250 494 361 690 c 0,16,17
 388 737 388 737 403 791 c 1,18,-1
 541 745 l 1,19,20
 523 718 523 718 492 662 c 0,21,22
 485 651 485 651 483 647 c 2,23,-1
 480 642 l 1,24,-1
 669 642 l 2,25,26
 682 642 682 642 695 643 c 1,27,28
 677 677 677 677 677 718 c 0,29,30
 677 785 677 785 724.5 832.5 c 128,-1,31
 772 880 772 880 838 880 c 0,32,33
 905 880 905 880 952.5 832.5 c 128,-1,34
 1000 785 1000 785 1000 718 c 128,-1,35
 1000 651 1000 651 953 604 c 0,36,37
 907 556 907 556 838 556 c 0,38,39
 833 556 833 556 829 556 c 1,40,41
 822 542 822 542 816 524 c 0,42,43
 794 450 794 450 757 372 c 0,44,45
 711 278 711 278 652 203 c 0,46,47
 582 116 582 116 495 53 c 0,48,49
 401 -16 401 -16 273 -68 c 1,0,-1
838 629 m 0,50,51
 876 629 876 629 902 655 c 128,-1,52
 928 681 928 681 928 718.5 c 128,-1,53
 928 756 928 756 902 782 c 128,-1,54
 876 808 876 808 838 808 c 0,55,56
 802 808 802 808 776 782 c 0,57,58
 749 757 749 757 749 718 c 0,59,60
 749 681 749 681 775.5 655 c 128,-1,61
 802 629 802 629 838 629 c 0,50,51
EndSplineSet
EndChar

StartChar: uni30B1_uni309A.ccmp
Encoding: 30 -1 30
Width: 1000
GlyphClass: 1
Flags: W
LayerCount: 2
Fore
SplineSet
375 -54 m 1,0,-1
 248 32 l 1,1,2
 301 55 301 55 338 86 c 0,3,4
 510 222 510 222 529 482 c 1,5,-1
 331 482 l 1,6,7
 260 352 260 352 179 280 c 1,8,-1
 61 352 l 1,9,10
 144 416 144 416 224 550 c 0,11,12
 255 606 255 606 278 681 c 0,13,14
 295 727 295 727 298 779 c 1,15,-1
 443 750 l 1,16,17
 428 714 428 714 412 672 c 0,18,19
 402 642 402 642 386 602 c 1,20,-1
 589 602 l 1,21,-1
 726 602 l 1,22,23
 724 604 724 604 724 604 c 0,24,25
 676 652 676 652 676.5 718.5 c 128,-1,26
 677 785 677 785 724.5 832.5 c 128,-1,27
 772 880 772 880 838 880 c 0,28,29
 905 880 905 880 952.5 832.5 c 128,-1,30
 1000 785 1000 785 1000 718 c 128,-1,31
 1000 651 1000 651 953 604 c 0,32,33
 925 575 925 575 889 564 c 1,34,-1
 889 478 l 1,35,36
 854 482 854 482 792 482 c 2,37,-1
 660 482 l 1,38,39
 635 113 635 113 375 -54 c 1,0,-1
838 629 m 0,40,41
 876 629 876 629 902 655 c 128,-1,42
 928 681 928 681 928 718.5 c 128,-1,43
 928 756 928 756 902 782 c 128,-1,44
 876 808 876 808 838 808 c 0,45,46
 802 808 802 808 776 782 c 0,47,48
 749 757 749 757 749 718 c 0,49,50
 749 681 749 681 775.5 655 c 128,-1,51
 802 629 802 629 838 629 c 0,40,41
EndSplineSet
EndChar

StartChar: uni30B3_uni309A.ccmp
Encoding: 31 -1 31
Width: 1000
GlyphClass: 1
Flags: W
LayerCount: 2
Fore
SplineSet
693 -18 m 1,0,1
 694 -2 694 -2 694 32 c 1,2,-1
 265 32 l 2,3,4
 196 32 196 32 144 27 c 1,5,-1
 144 165 l 1,6,7
 210 159 210 159 261 159 c 2,8,-1
 695 159 l 1,9,-1
 695 555 l 1,10,-1
 273 555 l 2,11,12
 197 555 197 555 156 552 c 1,13,-1
 156 686 l 1,14,15
 217 679 217 679 273 679 c 2,16,-1
 681 679 l 1,17,18
 677 698 677 698 677 718 c 0,19,20
 677 785 677 785 724.5 832.5 c 128,-1,21
 772 880 772 880 838 880 c 0,22,23
 905 880 905 880 952.5 832.5 c 128,-1,24
 1000 785 1000 785 1000 718 c 128,-1,25
 1000 651 1000 651 953 604 c 0,26,27
 907 556 907 556 838 556 c 0,28,29
 831 556 831 556 825 556 c 1,30,-1
 825 344 l 1,31,-1
 825 96 l 2,32,33
 825 42 825 42 829 -18 c 1,34,-1
 693 -18 l 1,0,1
838 629 m 0,35,36
 876 629 876 629 902 655 c 128,-1,37
 928 681 928 681 928 718.5 c 128,-1,38
 928 756 928 756 902 782 c 128,-1,39
 876 808 876 808 838 808 c 0,40,41
 802 808 802 808 776 782 c 0,42,43
 749 757 749 757 749 718 c 0,44,45
 749 681 749 681 775.5 655 c 128,-1,46
 802 629 802 629 838 629 c 0,35,36
EndSplineSet
EndChar

StartChar: uni30BB_uni309A.ccmp
Encoding: 32 -1 32
Width: 1000
GlyphClass: 1
Flags: W
LayerCount: 2
Fore
SplineSet
527 -44 m 0,0,1
 423 -44 423 -44 369 -26 c 0,2,3
 318 -9 318 -9 299 29 c 0,4,5
 283 61 283 61 283 123 c 2,6,-1
 283 254 l 1,7,-1
 283 385 l 1,8,9
 259 380 259 380 213 370 c 0,10,11
 113 349 113 349 85 342 c 1,12,-1
 62 469 l 1,13,14
 124 477 124 477 283 506 c 1,15,-1
 283 643 l 2,16,17
 283 705 283 705 275 753 c 1,18,-1
 415 753 l 1,19,20
 407 705 407 705 407 643 c 2,21,-1
 407 530 l 1,22,23
 650 576 650 576 717 594 c 0,24,25
 720 595 720 595 726 596 c 0,26,27
 729 597 729 597 731 597 c 1,28,29
 728 600 728 600 724 604 c 0,30,31
 676 652 676 652 676.5 718.5 c 128,-1,32
 677 785 677 785 724.5 832.5 c 128,-1,33
 772 880 772 880 838 880 c 0,34,35
 905 880 905 880 952.5 832.5 c 128,-1,36
 1000 785 1000 785 1000 718 c 128,-1,37
 1000 651 1000 651 953 604 c 0,38,39
 913 562 913 562 856 557 c 1,40,41
 881 533 881 533 879 530 c 0,42,43
 877 527 877 527 872 527 c 0,44,45
 863 527 863 527 859 520 c 0,46,47
 853 511 853 511 844 493 c 0,48,49
 809 426 809 426 756 348 c 0,50,51
 697 261 697 261 649 213 c 1,52,-1
 546 275 l 1,53,54
 589 315 589 315 634 375 c 0,55,56
 673 428 673 428 695 470 c 1,57,58
 680 466 680 466 586 447 c 0,59,60
 471 424 471 424 407 410 c 1,61,-1
 407 157 l 2,62,63
 407 110 407 110 428 94 c 0,64,65
 452 76 452 76 526 76 c 0,66,67
 666 76 666 76 823 108 c 1,68,-1
 818 -22 l 1,69,70
 677 -44 677 -44 527 -44 c 0,0,1
838 629 m 0,71,72
 876 629 876 629 902 655 c 128,-1,73
 928 681 928 681 928 718.5 c 128,-1,74
 928 756 928 756 902 782 c 128,-1,75
 876 808 876 808 838 808 c 0,76,77
 802 808 802 808 776 782 c 0,78,79
 749 757 749 757 749 718 c 0,80,81
 749 681 749 681 775.5 655 c 128,-1,82
 802 629 802 629 838 629 c 0,71,72
EndSplineSet
EndChar

StartChar: uni30C4_uni309A.ccmp
Encoding: 33 -1 33
Width: 1000
GlyphClass: 1
Flags: W
LayerCount: 2
Fore
SplineSet
439 447 m 1,0,1
 429 486 429 486 394 577 c 0,2,3
 365 660 365 660 342 707 c 1,4,-1
 458 746 l 1,5,6
 476 709 476 709 510 623 c 0,7,8
 544 535 544 535 557 489 c 1,9,-1
 439 447 l 1,0,1
186 373 m 1,10,11
 166 435 166 435 134 512 c 0,12,13
 97 608 97 608 78 644 c 1,14,-1
 197 687 l 1,15,16
 220 639 220 639 255 554 c 0,17,18
 291 464 291 464 306 417 c 1,19,-1
 186 373 l 1,10,11
336 -48 m 1,20,-1
 284 6 l 1,21,-1
 232 60 l 1,22,23
 334 90 334 90 429 152 c 0,24,25
 537 221 537 221 602 307 c 0,26,27
 657 379 657 379 695 483 c 0,28,29
 716 541 716 541 728 600 c 0,30,31
 726 602 726 602 724 604 c 0,32,33
 676 652 676 652 676.5 718.5 c 128,-1,34
 677 785 677 785 724.5 832.5 c 128,-1,35
 772 880 772 880 838 880 c 0,36,37
 905 880 905 880 952.5 832.5 c 128,-1,38
 1000 785 1000 785 1000 718 c 128,-1,39
 1000 651 1000 651 953 604 c 0,40,41
 913 562 913 562 855 557 c 1,42,43
 801 361 801 361 707 234 c 0,44,45
 635 136 635 136 535 62 c 0,46,47
 441 -8 441 -8 336 -48 c 1,20,-1
838 629 m 0,48,49
 876 629 876 629 902 655 c 128,-1,50
 928 681 928 681 928 718.5 c 128,-1,51
 928 756 928 756 902 782 c 128,-1,52
 876 808 876 808 838 808 c 0,53,54
 802 808 802 808 776 782 c 0,55,56
 749 757 749 757 749 718 c 0,57,58
 749 681 749 681 775.5 655 c 128,-1,59
 802 629 802 629 838 629 c 0,48,49
EndSplineSet
EndChar

StartChar: uni30C8_uni309A.ccmp
Encoding: 34 -1 34
Width: 1000
GlyphClass: 1
Flags: W
LayerCount: 2
Fore
SplineSet
736 505 m 0,0,1
 670 505 670 505 622.5 552.5 c 128,-1,2
 575 600 575 600 575 667 c 128,-1,3
 575 734 575 734 622.5 781.5 c 128,-1,4
 670 829 670 829 736 829 c 0,5,6
 803 829 803 829 850.5 781.5 c 128,-1,7
 898 734 898 734 898 667 c 128,-1,8
 898 600 898 600 851 553 c 0,9,10
 805 505 805 505 736 505 c 0,0,1
736 578 m 0,11,12
 774 578 774 578 800 604 c 128,-1,13
 826 630 826 630 826 667.5 c 128,-1,14
 826 705 826 705 800 731 c 128,-1,15
 774 757 774 757 736 757 c 0,16,17
 700 757 700 757 674 731 c 0,18,19
 647 706 647 706 647 667 c 0,20,21
 647 630 647 630 673.5 604 c 128,-1,22
 700 578 700 578 736 578 c 0,11,12
287 -42 m 1,23,24
 296 26 296 26 296 93 c 2,25,-1
 296 368 l 1,26,-1
 296 644 l 2,27,28
 296 708 296 708 287 760 c 1,29,-1
 433 760 l 1,30,31
 432 753 432 753 431 738 c 0,32,33
 425 676 425 676 425 644 c 2,34,-1
 425 504 l 1,35,36
 521 474 521 474 636 431 c 0,37,38
 754 385 754 385 818 354 c 1,39,-1
 764 220 l 1,40,41
 626 295 626 295 425 363 c 1,42,-1
 425 93 l 2,43,44
 425 65 425 65 433 -42 c 1,45,-1
 287 -42 l 1,23,24
EndSplineSet
EndChar

StartChar: uni31F7_uni309A.ccmp
Encoding: 35 -1 35
Width: 1000
GlyphClass: 1
Flags: W
LayerCount: 2
Fore
SplineSet
366 -73 m 1,0,-1
 283 25 l 1,1,2
 363 46 363 46 441 93 c 0,3,4
 512 136 512 136 566 201 c 0,5,6
 605 248 605 248 631 318 c 0,7,8
 651 372 651 372 659 427 c 1,9,-1
 481 427 l 1,10,-1
 304 427 l 2,11,12
 257 427 257 427 209 422 c 1,13,-1
 209 540 l 1,14,15
 260 533 260 533 304 533 c 2,16,-1
 633 533 l 1,17,18
 630 549 630 549 630 566 c 0,19,20
 630 633 630 633 677.5 680.5 c 128,-1,21
 725 728 725 728 791 728 c 0,22,23
 858 728 858 728 905.5 680.5 c 128,-1,24
 953 633 953 633 953 566 c 128,-1,25
 953 499 953 499 906 452 c 0,26,27
 860 404 860 404 791 404 c 0,28,29
 781 404 781 404 772 405 c 1,30,31
 725 226 725 226 663 141 c 0,32,33
 613 72 613 72 538 17 c 0,34,35
 457 -43 457 -43 366 -73 c 1,0,-1
791 477 m 0,36,37
 829 477 829 477 855 503 c 128,-1,38
 881 529 881 529 881 566.5 c 128,-1,39
 881 604 881 604 855 630 c 128,-1,40
 829 656 829 656 791 656 c 0,41,42
 755 656 755 656 729 630 c 0,43,44
 702 605 702 605 702 566 c 0,45,46
 702 529 702 529 728.5 503 c 128,-1,47
 755 477 755 477 791 477 c 0,36,37
EndSplineSet
LCarets2: 1 0
EndChar

StartChar: uni3042_uni3099.ccmp
Encoding: 36 -1 36
Width: 1000
GlyphClass: 1
Flags: W
LayerCount: 2
Fore
SplineSet
588 -42 m 1,0,-1
 526 58 l 1,1,2
 653 72 653 72 720 133 c 0,3,4
 779 187 779 187 779 264 c 0,5,6
 779 308 779 308 755 343 c 0,7,8
 729 379 729 379 683 397 c 1,9,10
 612 216 612 216 487 109 c 1,11,12
 491 91 491 91 502 57 c 0,13,14
 506 44 506 44 508 38 c 1,15,-1
 401 5 l 1,16,17
 399 12 399 12 395 26 c 0,18,19
 391 38 391 38 389 44 c 1,20,21
 313 5 313 5 245 5 c 0,22,23
 190 5 190 5 157 39 c 0,24,25
 119 76 119 76 119 145 c 0,26,27
 119 235 119 235 185 323 c 0,28,29
 249 409 249 409 348 457 c 1,30,31
 349 470 349 470 351 496 c 0,32,33
 354 550 354 550 357 576 c 1,34,-1
 327 576 l 2,35,36
 271 576 271 576 163 581 c 1,37,-1
 159 692 l 1,38,39
 245 679 245 679 331 679 c 2,40,-1
 367 679 l 1,41,-1
 372 730 l 2,42,43
 376 766 376 766 375 787 c 1,44,45
 421 785 421 785 464 780.5 c 128,-1,46
 507 776 507 776 506 772.5 c 128,-1,47
 505 769 505 769 500 767 c 0,48,49
 491 764 491 764 489 757 c 0,50,51
 488 753 488 753 487 747 c 0,52,53
 485 737 485 737 484 733 c 0,54,55
 478 711 478 711 475 681 c 1,56,57
 613 687 613 687 739 712 c 1,58,-1
 740 604 l 1,59,60
 600 585 600 585 461 578 c 1,61,62
 455 525 455 525 454 493 c 1,63,64
 522 510 522 510 593 510 c 2,65,-1
 609 510 l 1,66,67
 617 548 617 548 618 567 c 1,68,69
 662 556 662 556 701 544 c 0,70,71
 741 532 741 532 740 529 c 128,-1,72
 739 526 739 526 734 526 c 0,73,74
 726 525 726 525 724 519 c 0,75,76
 723 515 723 515 720 505.5 c 128,-1,77
 717 496 717 496 715 491 c 1,78,79
 797 464 797 464 846 403 c 0,80,81
 895 340 895 340 895 258 c 0,82,83
 895 146 895 146 827 71 c 0,84,85
 748 -18 748 -18 588 -42 c 1,0,-1
273 122 m 0,86,87
 314 122 314 122 366 152 c 1,88,89
 349 245 349 245 346 342 c 1,90,91
 295 307 295 307 261 257 c 0,92,93
 229 207 229 207 229 168 c 0,94,95
 229 122 229 122 273 122 c 0,86,87
461 233 m 1,96,97
 495 267 495 267 525 312 c 0,98,99
 557 360 557 360 578 413 c 1,100,101
 509 412 509 412 450 392 c 1,102,-1
 450 390 l 2,103,104
 450 307 450 307 461 233 c 1,96,97
785 636 m 1,105,106
 768 675 768 675 750 706 c 0,107,108
 734 739 734 739 712 769 c 1,109,-1
 781 798 l 1,110,111
 818 745 818 745 855 669 c 1,112,-1
 785 636 l 1,105,106
893 680 m 1,113,114
 876 716 876 716 856 749 c 0,115,116
 838 781 838 781 816 810 c 1,117,-1
 884 842 l 1,118,119
 931 778 931 778 963 715 c 1,120,-1
 893 680 l 1,113,114
EndSplineSet
EndChar

StartChar: uni3044_uni3099.ccmp
Encoding: 37 -1 37
Width: 1000
GlyphClass: 1
Flags: W
LayerCount: 2
Fore
SplineSet
367 -2 m 0,0,1
 285 -2 285 -2 231 77 c 0,2,3
 169 166 169 166 150 347 c 0,4,5
 140 456 140 456 140 603 c 0,6,7
 140 666 140 666 133 699 c 1,8,-1
 276 698 l 1,9,10
 265 636 265 636 265 582 c 0,11,12
 263 470 263 470 271 381 c 0,13,14
 293 150 293 150 370 150 c 0,15,16
 400 150 400 150 429 215 c 0,17,18
 452 265 452 265 469 337 c 1,19,-1
 516 279 l 1,20,-1
 563 221 l 1,21,22
 517 100 517 100 470 48 c 0,23,24
 425 -2 425 -2 367 -2 c 0,0,1
789 144 m 1,25,26
 777 279 777 279 739 404 c 0,27,28
 692 558 692 558 623 637 c 1,29,-1
 742 677 l 1,30,31
 805 598 805 598 856 448 c 0,32,33
 903 308 903 308 912 192 c 1,34,-1
 789 144 l 1,25,26
785 636 m 1,35,36
 768 675 768 675 750 706 c 0,37,38
 734 739 734 739 712 769 c 1,39,-1
 781 798 l 1,40,41
 818 745 818 745 855 669 c 1,42,-1
 785 636 l 1,35,36
893 680 m 1,43,44
 876 716 876 716 856 749 c 0,45,46
 838 781 838 781 816 810 c 1,47,-1
 884 842 l 1,48,49
 931 778 931 778 963 715 c 1,50,-1
 893 680 l 1,43,44
EndSplineSet
EndChar

StartChar: uni3048_uni3099.ccmp
Encoding: 38 -1 38
Width: 1000
GlyphClass: 1
Flags: W
LayerCount: 2
Fore
SplineSet
239 -37 m 1,0,-1
 128 42 l 1,1,2
 158 65 158 65 193 100 c 0,3,4
 232 141 232 141 340 252 c 0,5,6
 345 257 345 257 355 268 c 0,7,8
 476 393 476 393 516 435 c 1,9,10
 443 433 443 433 286 418 c 0,11,12
 261 416 261 416 220 409 c 0,13,14
 210 408 210 408 206 407 c 1,15,-1
 195 538 l 1,16,17
 227 535 227 535 284 535 c 0,18,19
 324 535 324 535 438 541 c 0,20,21
 564 548 564 548 617 555 c 0,22,23
 649 559 649 559 669 567 c 1,24,25
 696 536 696 536 717 504 c 256,26,27
 738 472 738 472 734 468.5 c 128,-1,28
 730 465 730 465 724 466 c 0,29,30
 714 469 714 469 705 462 c 0,31,32
 700 458 700 458 692 451 c 0,33,34
 682 443 682 443 677 439 c 0,35,36
 645 412 645 412 593.5 363 c 128,-1,37
 542 314 542 314 525 296 c 1,38,39
 544 296 544 296 560 289 c 0,40,41
 598 276 598 276 618 224 c 0,42,43
 621 214 621 214 627 190 c 0,44,45
 637 153 637 153 643 138 c 0,46,47
 655 94 655 94 709 94 c 0,48,49
 816 94 816 94 891 110 c 1,50,-1
 884 -15 l 1,51,52
 856 -20 856 -20 796 -24 c 0,53,54
 739 -28 739 -28 701 -28 c 0,55,56
 633 -28 633 -28 597 -11 c 0,57,58
 559 8 559 8 542 53 c 0,59,60
 535 71 535 71 523 118 c 0,61,62
 517 141 517 141 515 149 c 0,63,64
 500 195 500 195 465 195 c 0,65,66
 441 195 441 195 405 157 c 0,67,68
 320 70 320 70 239 -37 c 1,0,-1
684 631 m 1,69,70
 588 641 588 641 500 651 c 0,71,72
 394 665 394 665 307 679 c 1,73,-1
 325 790 l 1,74,75
 403 775 403 775 514.5 761.5 c 128,-1,76
 626 748 626 748 699 744 c 1,77,-1
 684 631 l 1,69,70
780 636 m 1,78,79
 765 673 765 673 746 706 c 0,80,81
 732 734 732 734 707 769 c 1,82,-1
 776 798 l 1,83,84
 809 752 809 752 852 669 c 1,85,-1
 780 636 l 1,78,79
889 680 m 1,86,87
 872 714 872 714 852 749 c 0,88,89
 834 781 834 781 812 810 c 1,90,-1
 880 842 l 1,91,92
 920 787 920 787 959 715 c 1,93,-1
 889 680 l 1,86,87
EndSplineSet
EndChar

StartChar: uni304A_uni3099.ccmp
Encoding: 39 -1 39
Width: 1000
GlyphClass: 1
Flags: W
LayerCount: 2
Fore
SplineSet
329 -29 m 0,0,1
 255 -29 255 -29 185 23 c 0,2,3
 109 79 109 79 109 151 c 0,4,5
 109 211 109 211 171 273 c 0,6,7
 228 331 228 331 318 371 c 1,8,9
 317 393 317 393 317 437 c 2,10,-1
 317 517 l 1,11,12
 316 517 316 517 314 517 c 0,13,14
 281 515 281 515 267 515 c 0,15,16
 188 515 188 515 137 520 c 1,17,-1
 135 635 l 1,18,19
 198 627 198 627 264 627 c 0,20,21
 280 627 280 627 315 629 c 0,22,23
 317 629 317 629 318 629 c 0,24,25
 319 663 319 663 319 707 c 0,26,27
 319 749 319 749 312 791 c 1,28,-1
 440 791 l 1,29,30
 436 752 436 752 432 708 c 2,31,-1
 430 640 l 1,32,33
 530 655 530 655 601 675 c 1,34,-1
 603 556 l 1,35,36
 528 539 528 539 426 527 c 1,37,38
 425 498 425 498 425 441 c 2,39,-1
 425 408 l 1,40,41
 523 433 523 433 603 433 c 0,42,43
 715 433 715 433 785 378 c 0,44,45
 859 320 859 320 859 224 c 0,46,47
 859 41 859 41 654 -10 c 0,48,49
 607 -21 607 -21 532 -25 c 1,50,-1
 489 97 l 1,51,52
 565 97 565 97 603 103 c 0,53,54
 664 114 664 114 700 143 c 0,55,56
 739 176 739 176 739 225 c 0,57,58
 739 273 739 273 701 300 c 256,59,60
 663 327 663 327 602 327 c 0,61,62
 520 327 520 327 427 301 c 1,63,64
 427 295 427 295 427 283 c 0,65,66
 431 149 431 149 431 120 c 0,67,68
 431 37 431 37 403 1 c 0,69,70
 378 -29 378 -29 329 -29 c 0,0,1
292 99 m 0,71,72
 322 99 322 99 322 141 c 0,73,74
 322 160 322 160 321 230 c 0,75,76
 320 248 320 248 320 258 c 1,77,78
 275 234 275 234 251 208 c 0,79,80
 225 180 225 180 225 155 c 0,81,82
 225 135 225 135 250 116 c 0,83,84
 272 99 272 99 292 99 c 0,71,72
878 439 m 1,85,86
 848 466 848 466 771 513 c 0,87,88
 706 552 706 552 654 578 c 1,89,-1
 706 671 l 1,90,91
 765 642 765 642 828 604 c 0,92,93
 909 556 909 556 934 536 c 1,94,-1
 878 439 l 1,85,86
782 643 m 1,95,96
 746 721 746 721 710 773 c 1,97,-1
 779 803 l 1,98,99
 800 773 800 773 818 740 c 0,100,101
 844 694 844 694 853 674 c 1,102,-1
 782 643 l 1,95,96
894 683 m 1,103,104
 870 731 870 731 858 751 c 0,105,106
 843 776 843 776 818 811 c 1,107,-1
 886 842 l 1,108,109
 931 781 931 781 964 718 c 1,110,-1
 894 683 l 1,103,104
EndSplineSet
EndChar

StartChar: uni3093_uni3099.ccmp
Encoding: 40 -1 40
Width: 1000
GlyphClass: 1
Flags: W
LayerCount: 2
Fore
SplineSet
217 -31 m 1,0,-1
 85 14 l 1,1,2
 130 138 130 138 250 391 c 0,3,4
 343 588 343 588 399 694 c 0,5,6
 402 700 402 700 408 712 c 0,7,8
 433 759 433 759 445 791 c 1,9,-1
 511 763 l 1,10,-1
 578 736 l 1,11,12
 571 726 571 726 554 701 c 0,13,14
 550 695 550 695 548 692 c 0,15,16
 511 637 511 637 413 459 c 0,17,18
 394 423 394 423 385 408 c 1,19,20
 434 436 434 436 492 436 c 0,21,22
 544 436 544 436 574 403.5 c 128,-1,23
 604 371 604 371 607 312 c 0,24,25
 608 297 608 297 608 256 c 0,26,27
 608 179 608 179 612 153 c 0,28,29
 616 101 616 101 671 101 c 0,30,31
 727 101 727 101 770 169 c 0,32,33
 806 228 806 228 828 326 c 1,34,35
 871 290 871 290 901 254 c 0,36,37
 937 213 937 213 931 198 c 0,38,39
 926 186 926 186 916 178 c 0,40,41
 898 164 898 164 886 132 c 0,42,43
 804 -29 804 -29 650 -29 c 0,44,45
 578 -29 578 -29 537 11 c 0,46,47
 499 47 499 47 496 103 c 0,48,49
 494 134 494 134 492 210 c 0,50,51
 492 255 492 255 491 270 c 0,52,53
 486 323 486 323 436 323 c 0,54,55
 391 323 391 323 350 281 c 0,56,57
 314 243 314 243 288 180 c 0,58,59
 258 115 258 115 217 -31 c 1,0,-1
755 522 m 1,60,61
 752 527 752 527 746 540 c 0,62,63
 728 577 728 577 717 597 c 0,64,65
 715 600 715 600 712 607 c 0,66,67
 687 654 687 654 676 671 c 1,68,-1
 751 701 l 1,69,70
 774 668 774 668 828 563 c 0,71,72
 831 558 831 558 832 556 c 1,73,-1
 755 522 l 1,60,61
874 570 m 1,74,75
 855 608 855 608 835 644 c 0,76,77
 833 647 833 647 830 653 c 0,78,79
 803 699 803 699 791 715 c 1,80,-1
 868 748 l 1,81,82
 891 715 891 715 946 611 c 0,83,84
 949 606 949 606 950 603 c 2,85,-1
 874 570 l 1,74,75
EndSplineSet
EndChar

StartChar: uni30A2_uni3099.ccmp
Encoding: 41 -1 41
Width: 1000
GlyphClass: 1
Flags: W
LayerCount: 2
Fore
SplineSet
283 -60 m 1,0,-1
 228 -15 l 1,1,-1
 174 31 l 1,2,3
 229 51 229 51 273 84 c 0,4,5
 357 144 357 144 388 229 c 0,6,7
 414 299 414 299 414 428 c 0,8,9
 414 477 414 477 408 514 c 1,10,-1
 544 514 l 1,11,12
 544 364 544 364 533 291 c 0,13,14
 517 177 517 177 464 98 c 0,15,16
 404 6 404 6 283 -60 c 1,0,-1
665 331 m 1,17,-1
 568 410 l 1,18,19
 621 444 621 444 673 500 c 0,20,21
 720 550 720 550 741 589 c 1,22,-1
 251 589 l 2,23,24
 213 589 213 589 142 583 c 0,25,26
 138 582 138 582 136 582 c 1,27,-1
 136 716 l 1,28,29
 196 706 196 706 251 706 c 2,30,-1
 504 706 l 1,31,-1
 758 706 l 2,32,33
 828 706 828 706 853 715 c 1,34,35
 935 635 935 635 930 629 c 0,36,37
 928 627 928 627 923 627 c 0,38,39
 914 627 914 627 909 620.5 c 128,-1,40
 904 614 904 614 896 601 c 0,41,42
 892 597 892 597 891 595 c 0,43,44
 852 528 852 528 796 460 c 0,45,46
 729 377 729 377 665 331 c 1,17,-1
727 708 m 1,47,48
 710 752 710 752 671 814 c 1,49,-1
 756 837 l 1,50,51
 763 827 763 827 776 805 c 0,52,53
 784 791 784 791 788 784 c 0,54,55
 808 748 808 748 816 730 c 1,56,-1
 727 708 l 1,47,48
870 715 m 1,57,58
 863 732 863 732 846 764 c 0,59,60
 843 769 843 769 842 772 c 0,61,62
 822 808 822 808 810 826 c 1,63,-1
 894 848 l 1,64,65
 928 795 928 795 955 739 c 1,66,-1
 870 715 l 1,57,58
EndSplineSet
EndChar

StartChar: uni30A4_uni3099.ccmp
Encoding: 42 -1 42
Width: 1000
GlyphClass: 1
Flags: W
LayerCount: 2
Fore
SplineSet
473 -28 m 1,0,1
 479 7 479 7 479 98 c 2,2,-1
 479 412 l 1,3,4
 318 328 318 328 156 282 c 1,5,-1
 88 399 l 1,6,7
 206 425 206 425 325 474 c 0,8,9
 432 519 432 519 516 573 c 0,10,11
 588 618 588 618 655 677.5 c 128,-1,12
 722 737 722 737 761 790 c 1,13,14
 801 753 801 753 830 713 c 0,15,16
 860 671 860 671 851 662 c 0,17,18
 844 655 844 655 832 654 c 0,19,20
 814 651 814 651 795 633 c 0,21,22
 710 556 710 556 613 490 c 1,23,-1
 613 294 l 1,24,-1
 613 98 l 2,25,26
 613 4 613 4 621 -28 c 1,27,-1
 473 -28 l 1,0,1
784 365 m 1,28,29
 764 409 764 409 749 436 c 0,30,31
 733 467 733 467 710 500 c 1,32,-1
 779 530 l 1,33,34
 821 469 821 469 855 397 c 1,35,-1
 784 365 l 1,28,29
894 410 m 1,36,37
 877 444 877 444 857 479 c 0,38,39
 836 514 836 514 816 541 c 1,40,-1
 884 573 l 1,41,42
 934 501 934 501 964 444 c 1,43,-1
 894 410 l 1,36,37
EndSplineSet
EndChar

StartChar: uni30A8_uni3099.ccmp
Encoding: 43 -1 43
Width: 1000
GlyphClass: 1
Flags: W
LayerCount: 2
Fore
SplineSet
101 6 m 1,0,-1
 101 146 l 1,1,2
 147 138 147 138 193 138 c 2,3,-1
 431 138 l 1,4,-1
 431 530 l 1,5,-1
 250 530 l 2,6,7
 192 530 192 530 161 526 c 1,8,-1
 161 657 l 1,9,10
 209 651 209 651 250 651 c 2,11,-1
 761 651 l 2,12,13
 794 651 794 651 850 657 c 1,14,-1
 850 526 l 1,15,16
 811 530 811 530 761 530 c 2,17,-1
 563 530 l 1,18,-1
 563 138 l 1,19,-1
 812 138 l 2,20,21
 852 138 852 138 900 146 c 1,22,-1
 900 6 l 1,23,24
 866 11 866 11 812 11 c 2,25,-1
 502 11 l 1,26,-1
 193 11 l 2,27,28
 140 11 140 11 101 6 c 1,0,-1
760 659 m 1,29,30
 748 689 748 689 727 725 c 0,31,32
 708 758 708 758 690 783 c 1,33,-1
 763 813 l 1,34,35
 808 749 808 749 836 692 c 1,36,-1
 760 659 l 1,29,30
885 688 m 1,37,38
 869 724 869 724 850 753 c 0,39,40
 833 783 833 783 811 810 c 1,41,-1
 884 842 l 1,42,43
 932 780 932 780 962 723 c 1,44,-1
 885 688 l 1,37,38
EndSplineSet
EndChar

StartChar: uni30AA_uni3099.ccmp
Encoding: 44 -1 44
Width: 1000
GlyphClass: 1
Flags: W
LayerCount: 2
Fore
SplineSet
574 -27 m 0,0,1
 499 -27 499 -27 411 -22 c 1,2,-1
 400 103 l 1,3,4
 468 92 468 92 525 92 c 0,5,6
 558 92 558 92 558 132 c 0,7,8
 558 292 558 292 556 391 c 1,9,10
 493 306 493 306 389 218 c 0,11,12
 281 126 281 126 173 67 c 1,13,-1
 86 167 l 1,14,15
 218 230 218 230 333 325 c 0,16,17
 440 413 440 413 500 500 c 1,18,-1
 243 500 l 2,19,20
 202 500 202 500 136 496 c 1,21,-1
 136 624 l 1,22,23
 183 617 183 617 241 617 c 2,24,-1
 396 617 l 1,25,-1
 552 617 l 1,26,-1
 549 686 l 2,27,28
 545 742 545 742 539 783 c 1,29,-1
 673 783 l 1,30,31
 667 738 667 738 667 686 c 2,32,-1
 668 617 l 1,33,-1
 786 617 l 2,34,35
 838 617 838 617 884 625 c 1,36,-1
 884 497 l 1,37,38
 873 497 873 497 851 498 c 0,39,40
 809 500 809 500 792 500 c 2,41,-1
 671 500 l 1,42,43
 672 459 672 459 674 373 c 0,44,45
 679 161 679 161 680 70 c 0,46,47
 680 -27 680 -27 574 -27 c 0,0,1
782 639 m 1,48,49
 763 682 763 682 748 708 c 0,50,51
 726 748 726 748 711 769 c 1,52,-1
 780 798 l 1,53,54
 818 745 818 745 853 672 c 1,55,-1
 782 639 l 1,48,49
892 681 m 1,56,57
 875 719 875 719 857 748 c 0,58,59
 837 782 837 782 818 808 c 1,60,-1
 885 840 l 1,61,62
 929 780 929 780 962 716 c 1,63,-1
 892 681 l 1,56,57
EndSplineSet
EndChar

StartChar: uni30F3_uni3099.ccmp
Encoding: 45 -1 45
Width: 1000
GlyphClass: 1
Flags: W
LayerCount: 2
Fore
SplineSet
218 -27 m 1,0,-1
 139 99 l 1,1,2
 340 129 340 129 499 225 c 0,3,4
 615 295 615 295 708 400 c 0,5,6
 795 497 795 497 841 599 c 1,7,-1
 878 531 l 1,8,-1
 915 463 l 1,9,10
 860 364 860 364 771 272 c 0,11,12
 678 176 678 176 567 108 c 0,13,14
 396 4 396 4 218 -27 c 1,0,-1
403 435 m 1,15,16
 365 477 365 477 293 541 c 0,17,18
 218 607 218 607 168 643 c 1,19,-1
 257 739 l 1,20,21
 305 707 305 707 382 642 c 0,22,23
 455 583 455 583 499 536 c 1,24,-1
 403 435 l 1,15,16
720 579 m 1,25,26
 698 627 698 627 681 659 c 0,27,28
 659 698 659 698 637 729 c 1,29,-1
 715 763 l 1,30,31
 766 688 766 688 801 615 c 1,32,-1
 720 579 l 1,25,26
853 630 m 1,33,34
 837 663 837 663 811 707 c 0,35,36
 789 742 789 742 765 775 c 1,37,-1
 845 810 l 1,38,39
 889 750 889 750 933 667 c 1,40,-1
 853 630 l 1,33,34
EndSplineSet
EndChar

StartChar: uni52FB
Encoding: 46 21243 46
Width: 1000
Flags: W
LayerCount: 2
Fore
SplineSet
540 -78 m 1,1,2
 538 -54 538 -54 529 -22 c 0,3,4
 518 11 518 11 503 34 c 1,5,6
 567 28 567 28 652 29 c 0,7,8
 680 29 680 29 696 45 c 0,9,10
 719 67 719 67 733 183 c 128,-1,11
 747 299 747 299 756 541 c 1,12,-1
 299 541 l 1,13,14
 275 495 275 495 238 444 c 1,15,-1
 434 444 l 2,16,17
 532 444 532 444 629 452 c 1,18,19
 632 445 632 445 632 392.5 c 128,-1,20
 632 340 632 340 629 334 c 1,21,22
 556 342 556 342 433 342 c 2,23,-1
 235 342 l 1,24,-1
 235 440 l 1,25,26
 195 386 195 386 161 351 c 1,27,28
 111 398 111 398 64 423 c 1,29,30
 134 486 134 486 192 584 c 0,31,32
 249 680 249 680 283 788 c 1,33,34
 328 777 328 777 366 762 c 0,35,36
 406 745 406 745 403 738 c 0,37,38
 401 732 401 732 395 729 c 0,39,40
 383 722 383 722 377 705 c 0,41,42
 366 676 366 676 354 650 c 1,43,-1
 613 650 l 1,44,-1
 872 650 l 1,45,46
 872 650 872 650 870 596 c 0,47,48
 857 279 857 279 842 152 c 0,49,50
 826 16 826 16 796 -22 c 0,51,52
 776 -50 776 -50 752 -62 c 0,53,54
 732 -72 732 -72 700 -76 c 0,55,0
 651 -84 651 -84 540 -78 c 1,1,2
184 126 m 1,56,57
 181 133 181 133 181 186 c 128,-1,58
 181 239 181 239 184 243 c 1,59,60
 228 237 228 237 302 238 c 2,61,-1
 422 238 l 1,62,-1
 541 238 l 2,63,64
 601 238 601 238 659 243 c 1,65,66
 662 239 662 239 662 187 c 128,-1,67
 662 135 662 135 659 130 c 1,68,69
 616 136 616 136 541 136 c 2,70,-1
 422 136 l 2,71,72
 309 136 309 136 184 126 c 1,56,57
EndSplineSet
EndChar

StartChar: uni5E21
Encoding: 47 24097 47
Width: 1000
Flags: W
LayerCount: 2
Fore
SplineSet
261 -86 m 0,0,1
 213 -86 213 -86 209 -81 c 1,2,3
 216 -16 216 -16 216 69 c 2,4,-1
 216 220 l 1,5,-1
 216 521 l 1,6,-1
 175 521 l 1,7,-1
 175 315 l 2,8,9
 175 187 175 187 183 110 c 1,10,11
 176 106 176 106 137 106 c 256,12,13
 98 106 98 106 91 110 c 1,14,15
 101 210 101 210 101 364 c 2,16,-1
 101 619 l 1,17,-1
 216 619 l 1,18,-1
 216 704 l 2,19,20
 216 744 216 744 212 792 c 1,21,22
 246 794 246 794 283 791 c 0,23,24
 328 787 328 787 328 779 c 0,25,26
 306 740 306 740 305 699 c 2,27,-1
 305 619 l 1,28,-1
 421 619 l 1,29,-1
 421 212 l 2,30,31
 421 148 421 148 397 130 c 0,32,33
 385 118 385 118 368 113 c 0,34,35
 354 110 354 110 327 110 c 1,36,37
 325 158 325 158 306 206 c 1,38,-1
 340 206 l 2,39,40
 347 206 347 206 346 215 c 2,41,-1
 346 521 l 1,42,-1
 305 521 l 1,43,-1
 305 198 l 2,44,45
 305 24 305 24 316 -81 c 1,46,47
 308 -86 308 -86 261 -86 c 0,0,1
775 -85 m 256,48,49
 724 -85 724 -85 721 -80 c 0,50,51
 725 -39 725 -39 724 5 c 2,52,-1
 724 89 l 1,53,-1
 724 259 l 1,54,-1
 638 259 l 1,55,56
 623 31 623 31 489 -77 c 1,57,58
 479 -62 479 -62 455 -39.5 c 128,-1,59
 431 -17 431 -17 416 -7 c 1,60,61
 527 82 527 82 539 259 c 1,62,-1
 488 259 l 2,63,64
 463 259 463 259 437 256 c 0,65,66
 434 258 434 258 434.5 309.5 c 128,-1,67
 435 361 435 361 437 362 c 0,68,69
 456 359 456 359 489 360 c 2,70,-1
 541 360 l 1,71,-1
 541 502 l 1,72,-1
 498 502 l 2,73,74
 483 502 483 502 455 500 c 0,75,76
 452 502 452 502 452 552.5 c 128,-1,77
 452 603 452 603 455 605 c 0,78,79
 475 602 475 602 507 602 c 2,80,-1
 560 602 l 1,81,82
 533 675 533 675 495 748 c 1,83,-1
 581 786 l 1,84,85
 630 694 630 694 656 632 c 1,86,-1
 596 602 l 1,87,-1
 698 602 l 1,88,89
 743 688 743 688 774 789 c 1,90,91
 813 773 813 773 847 750 c 0,92,93
 881 726 881 726 876 716 c 0,94,95
 872 708 872 708 863 703 c 0,96,97
 847 696 847 696 837 674 c 0,98,99
 824 648 824 648 800 602 c 1,100,-1
 858 602 l 2,101,102
 887 602 887 602 915 605 c 0,103,104
 918 603 918 603 917.5 552.5 c 128,-1,105
 917 502 917 502 915 500 c 0,106,107
 893 502 893 502 870 502 c 2,108,-1
 824 502 l 1,109,-1
 824 360 l 1,110,-1
 875 360 l 2,111,112
 900 360 900 360 926 362 c 0,113,114
 929 360 929 360 929 309 c 128,-1,115
 929 258 929 258 926 256 c 0,116,117
 908 259 908 259 875 259 c 2,118,-1
 824 259 l 1,119,-1
 824 89 l 2,120,121
 824 -13 824 -13 832 -80 c 1,122,123
 826 -85 826 -85 775 -85 c 256,48,49
640 360 m 1,124,-1
 724 360 l 1,125,-1
 724 502 l 1,126,-1
 640 502 l 1,127,-1
 640 430 l 1,128,-1
 640 360 l 1,124,-1
EndSplineSet
EndChar

StartChar: uni657B
Encoding: 48 25979 48
Width: 1000
Flags: W
LayerCount: 2
Fore
SplineSet
149 -86 m 1,0,1
 133 -48 133 -48 96 2 c 1,2,3
 243 9 243 9 358 32 c 1,4,5
 310 56 310 56 279 77 c 1,6,7
 239 60 239 60 164 36 c 1,8,9
 155 53 155 53 135.5 74.5 c 128,-1,10
 116 96 116 96 100 107 c 1,11,12
 244 141 244 141 329 192 c 1,13,-1
 212 192 l 1,14,-1
 212 482 l 1,15,-1
 369 482 l 1,16,17
 348 506 348 506 316 527 c 1,18,19
 425 544 425 544 470 573 c 1,20,-1
 296 573 l 1,21,-1
 296 532 l 2,22,23
 296 511 296 511 298 492 c 0,24,25
 297 488 297 488 244 488 c 0,26,27
 192 488 192 488 190 492 c 0,28,29
 192 509 192 509 191 528 c 2,30,-1
 191 565 l 1,31,32
 183 560 183 560 166 551 c 0,33,34
 157 546 157 546 153 544 c 1,35,36
 143 563 143 563 123 585 c 0,37,38
 103 608 103 608 86 620 c 1,39,40
 245 686 245 686 327 793 c 1,41,42
 364 786 364 786 402 774 c 0,43,44
 437 764 437 764 436 762 c 128,-1,45
 435 760 435 760 431 761 c 0,46,47
 425 761 425 761 423 758 c 0,48,49
 419 752 419 752 411 743 c 1,50,-1
 629 743 l 1,51,-1
 646 747 l 1,52,-1
 718 697 l 1,53,54
 702 675 702 675 670 638 c 1,55,-1
 841 638 l 1,56,-1
 841 565 l 2,57,58
 841 528 841 528 845 492 c 0,59,60
 842 488 842 488 786 488 c 0,61,62
 731 488 731 488 729 492 c 0,63,64
 731 511 731 511 731 532 c 2,65,-1
 731 573 l 1,66,-1
 562 572 l 1,67,-1
 561 570 l 2,68,69
 558 565 558 565 557 564 c 1,70,71
 644 546 644 546 714 523 c 1,72,-1
 662 482 l 1,73,-1
 800 482 l 1,74,-1
 800 336 l 2,75,76
 800 254 800 254 806 192 c 0,77,78
 806 184 806 184 800 184 c 0,79,80
 735 191 735 191 635 192 c 2,81,-1
 469 192 l 1,82,83
 454 179 454 179 439 168 c 1,84,-1
 654 168 l 1,85,-1
 761 168 l 2,86,87
 809 168 809 168 868 172 c 1,88,89
 871 168 871 168 871 139.5 c 128,-1,90
 871 111 871 111 868 109 c 0,91,92
 846 112 846 112 806 112 c 2,93,-1
 743 112 l 1,94,95
 698 69 698 69 631 34 c 1,96,97
 761 14 761 14 931 7 c 1,98,99
 904 -23 904 -23 877 -79 c 1,100,101
 664 -66 664 -66 498 -20 c 1,102,103
 365 -62 365 -62 149 -86 c 1,0,1
489 64 m 1,104,105
 552 84 552 84 599 112 c 1,106,-1
 481 112 l 1,107,-1
 365 112 l 1,108,109
 415 84 415 84 489 64 c 1,104,105
313 242 m 1,110,-1
 696 242 l 1,111,-1
 696 275 l 1,112,-1
 504 275 l 1,113,-1
 313 275 l 1,114,-1
 313 242 l 1,110,-1
313 322 m 1,115,-1
 696 322 l 1,116,-1
 696 353 l 1,117,-1
 504 353 l 1,118,-1
 313 353 l 1,119,-1
 313 322 l 1,115,-1
313 402 m 1,120,-1
 696 402 l 1,121,-1
 696 431 l 1,122,-1
 504 431 l 1,123,-1
 313 431 l 1,124,-1
 313 402 l 1,120,-1
395 482 m 1,125,-1
 522 482 l 1,126,-1
 651 482 l 1,127,128
 586 505 586 505 504 523 c 1,129,130
 464 501 464 501 395 482 c 1,125,-1
303 638 m 1,131,-1
 424 638 l 1,132,-1
 546 638 l 2,133,134
 547 639 547 639 548 642 c 0,135,136
 565 662 565 662 573 674 c 1,137,-1
 345 674 l 1,138,139
 329 658 329 658 303 638 c 1,131,-1
EndSplineSet
EndChar

StartChar: uni7BB3
Encoding: 49 31667 49
Width: 1000
Flags: W
LayerCount: 2
Fore
SplineSet
339 -86 m 1,0,1
 314 -52 314 -52 275 -21 c 1,2,3
 364 14 364 14 390 82 c 1,4,-1
 244 82 l 1,5,-1
 244 160 l 1,6,7
 216 6 216 6 144 -77 c 1,8,9
 132 -62 132 -62 109 -42 c 0,10,11
 84 -20 84 -20 69 -11 c 1,12,13
 127 58 127 58 149 167 c 0,14,15
 164 241 164 241 164 350 c 2,16,-1
 164 556 l 1,17,-1
 157 549 l 1,18,19
 110 587 110 587 69 607 c 1,20,21
 111 642 111 642 147.5 693 c 128,-1,22
 184 744 184 744 205 797 c 1,23,24
 243 786 243 786 276 772 c 0,25,26
 310 759 310 759 310 755 c 0,27,28
 309 753 309 753 304 752 c 0,29,30
 296 751 296 751 293 745 c 0,31,32
 289 733 289 733 282 719 c 1,33,-1
 487 719 l 1,34,-1
 487 659 l 1,35,36
 546 721 546 721 574 796 c 1,37,38
 612 786 612 786 647.5 773.5 c 128,-1,39
 683 761 683 761 682 758 c 128,-1,40
 681 755 681 755 675 754 c 0,41,42
 668 753 668 753 664 745 c 0,43,44
 658 732 658 732 651 719 c 1,45,-1
 779 719 l 2,46,47
 844 719 844 719 907 725 c 1,48,49
 910 721 910 721 910 680.5 c 128,-1,50
 910 640 910 640 907 638 c 0,51,52
 882 641 882 641 839 641 c 2,53,-1
 771 641 l 1,54,55
 792 609 792 609 800 593 c 1,56,-1
 702 562 l 1,57,58
 690 592 690 592 656 641 c 1,59,-1
 600 641 l 1,60,61
 567 596 567 596 528 563 c 1,62,63
 496 587 496 587 436 613 c 1,64,65
 458 630 458 630 470 641 c 1,66,-1
 375 641 l 1,67,68
 390 615 390 615 399 594 c 1,69,-1
 301 566 l 1,70,71
 293 596 293 596 266 641 c 1,72,-1
 233 641 l 1,73,74
 198 593 198 593 169 562 c 1,75,-1
 512 562 l 1,76,-1
 683 562 l 2,77,78
 785 562 785 562 855 569 c 0,79,80
 860 569 860 569 860 562 c 0,81,82
 855 520 855 520 855 460 c 2,83,-1
 855 358 l 1,84,-1
 756 358 l 1,85,86
 735 324 735 324 715 294 c 1,87,-1
 792 294 l 2,88,89
 818 294 818 294 868 298 c 0,90,91
 871 295 871 295 871 253.5 c 128,-1,92
 871 212 871 212 868 211 c 0,93,94
 843 214 843 214 801 213 c 2,95,-1
 733 213 l 1,96,-1
 733 166 l 1,97,-1
 820 166 l 2,98,99
 850 166 850 166 905 170 c 0,100,101
 908 167 908 167 908 124 c 128,-1,102
 908 81 908 81 905 78 c 0,103,104
 862 82 862 82 820 82 c 2,105,-1
 733 82 l 1,106,-1
 733 1 l 2,107,108
 733 -41 733 -41 737 -80 c 0,109,110
 734 -85 734 -85 684 -85 c 0,111,112
 635 -85 635 -85 632 -80 c 0,113,114
 636 -41 636 -41 636 1 c 2,115,-1
 636 82 l 1,116,-1
 488 82 l 1,117,118
 464 -34 464 -34 339 -86 c 1,0,1
245 166 m 1,119,-1
 324 166 l 1,120,-1
 403 166 l 1,121,-1
 403 213 l 1,122,-1
 345 213 l 2,123,124
 316 213 316 213 288 211 c 0,125,126
 285 213 285 213 285.5 254 c 128,-1,127
 286 295 286 295 288 297 c 0,128,129
 310 294 310 294 350 294 c 2,130,-1
 412 294 l 1,131,132
 401 320 401 320 377 356 c 1,133,-1
 382 358 l 1,134,-1
 259 358 l 1,135,-1
 259 349 l 2,136,137
 259 255 259 255 245 166 c 1,119,-1
495 166 m 1,138,-1
 565 166 l 1,139,-1
 636 166 l 1,140,-1
 636 213 l 1,141,-1
 495 213 l 1,142,-1
 495 166 l 1,138,-1
470 294 m 1,143,-1
 565 294 l 1,144,-1
 660 294 l 1,145,-1
 620 305 l 1,146,147
 621 307 621 307 623 309 c 0,148,149
 642 341 642 341 650 358 c 1,150,-1
 480 358 l 1,151,152
 500 329 500 329 506 308 c 1,153,-1
 470 294 l 1,143,-1
259 437 m 1,154,-1
 505 437 l 1,155,-1
 751 437 l 1,156,-1
 751 483 l 1,157,-1
 259 483 l 1,158,-1
 259 437 l 1,154,-1
EndSplineSet
EndChar

StartChar: uni8101
Encoding: 50 33025 50
Width: 1000
Flags: W
LayerCount: 2
Fore
SplineSet
150 -85 m 1,0,1
 136 -73 136 -73 109.5 -58 c 128,-1,2
 83 -43 83 -43 67 -36 c 1,3,4
 118 101 118 101 118 409 c 2,5,-1
 118 577 l 2,6,7
 118 679 118 679 110 744 c 0,8,9
 110 750 110 750 118 749 c 0,10,11
 165 743 165 743 242 744 c 2,12,-1
 367 744 l 1,13,-1
 367 509 l 1,14,-1
 367 275 l 1,15,16
 425 305 425 305 524 366 c 1,17,-1
 524 457 l 1,18,-1
 457 427 l 1,19,20
 450 468 450 468 430 524.5 c 128,-1,21
 410 581 410 581 386 627 c 1,22,-1
 467 661 l 1,23,24
 504 594 504 594 524 532 c 1,25,-1
 524 659 l 2,26,27
 524 736 524 736 519 789 c 1,28,29
 556 791 556 791 596 788 c 0,30,31
 645 784 645 784 645 776 c 0,32,33
 623 731 623 731 623 687 c 2,34,-1
 623 353 l 2,35,36
 623 194 623 194 593 105 c 0,37,38
 553 -14 553 -14 445 -81 c 1,39,40
 413 -42 413 -42 364 -8 c 1,41,42
 358 -43 358 -43 335 -59 c 0,43,44
 306 -79 306 -79 229 -78 c 1,45,46
 223 -26 223 -26 203 19 c 1,47,48
 228 18 228 18 261 18 c 0,49,50
 273 18 273 18 273 32 c 2,51,-1
 273 219 l 1,52,-1
 205 219 l 1,53,54
 193 26 193 26 150 -85 c 1,0,1
769 -71 m 2,55,56
 712 -71 712 -71 692 -41 c 128,-1,57
 672 -11 672 -11 672 75 c 1,58,59
 672 74 672 74 672 430 c 2,60,-1
 672 609 l 2,61,62
 672 714 672 714 665 791 c 1,63,64
 705 793 705 793 746 790 c 0,65,66
 796 786 796 786 796 778 c 0,67,68
 774 733 774 733 774 689 c 2,69,-1
 774 515 l 1,70,71
 813 595 813 595 838 669 c 1,72,73
 874 649 874 649 903 625 c 0,74,75
 934 598 934 598 928 586 c 0,76,77
 923 577 923 577 913 572 c 0,78,79
 897 564 897 564 883 540 c 0,80,81
 844 468 844 468 821 433 c 1,82,-1
 774 460 l 1,83,-1
 774 378 l 1,84,-1
 797 399 l 1,85,86
 890 313 890 313 932 243 c 1,87,-1
 860 177 l 1,88,89
 836 224 836 224 774 293 c 1,90,-1
 774 74 l 2,91,92
 774 42 774 42 776.5 34 c 128,-1,93
 779 26 779 26 790 26 c 2,94,-1
 826 26 l 2,95,96
 836 26 836 26 840 48 c 0,97,98
 843 66 843 66 845 127 c 1,99,100
 887 97 887 97 934 85 c 1,101,102
 927 0 927 0 904.5 -35.5 c 128,-1,103
 882 -71 882 -71 834 -71 c 2,104,-1
 769 -71 l 2,55,56
365 -6 m 1,105,106
 444 40 444 40 481 110 c 0,107,108
 513 169 513 169 521 260 c 1,109,-1
 491 236 l 2,110,111
 436 193 436 193 410 173 c 1,112,-1
 367 259 l 1,113,-1
 367 144 l 1,114,-1
 367 30 l 2,115,116
 367 14 367 14 365 -6 c 1,105,106
209 315 m 1,117,-1
 273 315 l 1,118,-1
 273 435 l 1,119,-1
 210 435 l 1,120,-1
 210 410 l 1,121,122
 210 410 210 410 210 364 c 0,123,124
 210 332 210 332 209 315 c 1,117,-1
210 532 m 1,125,-1
 273 532 l 1,126,-1
 273 589 l 1,127,-1
 273 647 l 1,128,-1
 210 647 l 1,129,-1
 210 532 l 1,125,-1
EndSplineSet
EndChar

StartChar: uni8C5C
Encoding: 51 35932 51
Width: 1000
Flags: W
LayerCount: 2
Fore
SplineSet
484 -84 m 1,0,1
 447 -36 447 -36 408 -12 c 1,2,3
 537 87 537 87 546 319 c 1,4,-1
 468 319 l 1,5,-1
 471 312 l 1,6,-1
 408 272 l 1,7,8
 386 326 386 326 346 380 c 1,9,10
 374 261 374 261 368 140 c 0,11,12
 362 24 362 24 329 -20 c 0,13,14
 295 -71 295 -71 228 -74 c 0,15,16
 187 -74 187 -74 164 -73 c 1,17,18
 164 -18 164 -18 144 22 c 1,19,20
 166 19 166 19 206 20 c 0,21,22
 221 20 221 20 231 25 c 0,23,24
 242 32 242 32 250 49 c 0,25,26
 270 78 270 78 273 188 c 1,27,28
 191 97 191 97 105 45 c 1,29,30
 85 105 85 105 62 139 c 1,31,32
 118 165 118 165 174 213 c 128,-1,33
 230 261 230 261 265 314 c 1,34,35
 259 355 259 355 255 374 c 1,36,37
 187 299 187 299 111 248 c 1,38,39
 94 296 94 296 67 336 c 1,40,41
 111 356 111 356 154 392 c 0,42,43
 201 428 201 428 228 466 c 1,44,45
 219 487 219 487 208 508 c 1,46,47
 168 474 168 474 120 445 c 1,48,49
 100 505 100 505 75 542 c 1,50,51
 165 586 165 586 220 646 c 1,52,-1
 153 646 l 2,53,54
 119 646 119 646 86 643 c 0,55,56
 83 645 83 645 83 694 c 128,-1,57
 83 743 83 743 86 748 c 1,58,59
 158 741 158 741 265 741 c 2,60,-1
 355 741 l 2,61,62
 385 741 385 741 444 745 c 0,63,64
 447 742 447 742 447 693.5 c 128,-1,65
 447 645 447 645 444 643 c 0,66,67
 424 646 424 646 389 646 c 2,68,-1
 333 646 l 1,69,70
 303 601 303 601 273 568 c 1,71,72
 295 534 295 534 318 475 c 1,73,74
 362 538 362 538 386 587 c 1,75,76
 419 566 419 566 446 540 c 0,77,78
 474 513 474 513 468 507 c 0,79,80
 463 502 463 502 456 500 c 0,81,82
 442 498 442 498 431 485 c 0,83,84
 405 451 405 451 392 435 c 1,85,86
 435 387 435 387 464 329 c 1,87,-1
 464 423 l 1,88,-1
 546 423 l 1,89,-1
 546 637 l 1,90,-1
 512 637 l 2,91,92
 500 638 500 638 478 636 c 0,93,94
 475 638 475 638 475 690 c 128,-1,95
 475 742 475 742 478 745 c 0,96,97
 523 740 523 740 586 741 c 2,98,-1
 694 741 l 1,99,-1
 802 741 l 2,100,101
 851 741 851 741 910 745 c 1,102,103
 913 741 913 741 913 689.5 c 128,-1,104
 913 638 913 638 910 636 c 0,105,106
 895 638 895 638 877 637 c 2,107,-1
 844 637 l 1,108,-1
 844 423 l 1,109,-1
 886 423 l 2,110,111
 901 423 901 423 927 425 c 0,112,113
 930 424 930 424 929.5 371.5 c 128,-1,114
 929 319 929 319 927 317 c 0,115,116
 907 319 907 319 886 319 c 2,117,-1
 844 319 l 1,118,-1
 844 120 l 2,119,120
 844 -5 844 -5 852 -78 c 1,121,122
 844 -83 844 -83 792 -83 c 0,123,124
 738 -83 738 -83 732 -78 c 1,125,126
 740 -4 740 -4 740 120 c 2,127,-1
 740 319 l 1,128,-1
 648 319 l 1,129,130
 644 190 644 190 613 100 c 0,131,132
 573 -16 573 -16 484 -84 c 1,0,1
649 423 m 1,133,-1
 740 423 l 1,134,-1
 740 637 l 1,135,-1
 649 637 l 1,136,-1
 649 530 l 1,137,-1
 649 423 l 1,133,-1
EndSplineSet
EndChar

StartChar: uni8EFF
Encoding: 52 36607 52
Width: 1000
Flags: W
LayerCount: 2
Fore
SplineSet
260 -85 m 256,0,1
 210 -85 210 -85 206 -80 c 1,2,3
 210 -45 210 -45 210 -9 c 2,4,-1
 210 62 l 1,5,-1
 142 62 l 2,6,7
 108 62 108 62 75 59 c 0,8,9
 72 61 72 61 72 109 c 128,-1,10
 72 157 72 157 75 158 c 0,11,12
 100 155 100 155 142 156 c 2,13,-1
 210 156 l 1,14,-1
 210 212 l 1,15,-1
 100 212 l 1,16,-1
 100 383 l 1,17,-1
 100 555 l 1,18,-1
 209 555 l 1,19,-1
 209 608 l 1,20,-1
 147 608 l 2,21,22
 115 608 115 608 84 605 c 0,23,24
 81 607 81 607 81.5 654.5 c 128,-1,25
 82 702 82 702 84 704 c 0,26,27
 106 701 106 701 147 701 c 2,28,-1
 209 701 l 1,29,-1
 209 745 l 2,30,31
 209 765 209 765 207 792 c 1,32,33
 241 794 241 794 278 791 c 0,34,35
 324 787 324 787 324 779 c 1,36,37
 309 760 309 760 309 740 c 2,38,-1
 309 701 l 1,39,-1
 373 701 l 2,40,41
 406 701 406 701 437 704 c 0,42,43
 440 702 440 702 439.5 654.5 c 128,-1,44
 439 607 439 607 437 605 c 0,45,46
 414 608 414 608 373 608 c 2,47,-1
 309 608 l 1,48,-1
 309 555 l 1,49,-1
 425 555 l 1,50,-1
 425 212 l 1,51,-1
 309 212 l 1,52,-1
 309 156 l 1,53,-1
 373 156 l 2,54,55
 406 156 406 156 437 158 c 0,56,57
 440 156 440 156 439.5 108.5 c 128,-1,58
 439 61 439 61 437 59 c 0,59,60
 414 62 414 62 373 62 c 2,61,-1
 309 62 l 1,62,-1
 309 -9 l 2,63,64
 309 -44 309 -44 313 -80 c 0,65,66
 310 -85 310 -85 260 -85 c 256,0,1
781 -85 m 256,67,68
 733 -85 733 -85 731 -80 c 0,69,70
 735 -39 735 -39 735 5 c 2,71,-1
 735 89 l 1,72,-1
 735 259 l 1,73,-1
 648 259 l 1,74,75
 633 31 633 31 506 -76 c 1,76,77
 496 -62 496 -62 473.5 -39.5 c 128,-1,78
 451 -17 451 -17 437 -7 c 1,79,80
 543 82 543 82 555 259 c 0,81,82
 556 259 556 259 506 259 c 0,83,84
 482 259 482 259 457 256 c 0,85,86
 454 258 454 258 454 309.5 c 128,-1,87
 454 361 454 361 457 362 c 0,88,89
 476 359 476 359 506 360 c 2,90,-1
 557 360 l 1,91,-1
 557 502 l 1,92,-1
 515 502 l 2,93,94
 500 502 500 502 474 500 c 0,95,96
 471 502 471 502 471 552.5 c 128,-1,97
 471 603 471 603 474 605 c 0,98,99
 493 602 493 602 524 602 c 2,100,-1
 574 602 l 1,101,102
 556 654 556 654 514 748 c 1,103,-1
 596 786 l 1,104,105
 601 776 601 776 611 755 c 0,106,107
 656 664 656 664 667 632 c 1,108,-1
 610 602 l 1,109,-1
 707 602 l 1,110,111
 751 687 751 687 780 789 c 1,112,113
 818 773 818 773 850 750 c 0,114,115
 884 726 884 726 879 716 c 0,116,117
 875 708 875 708 866 703 c 0,118,119
 851 696 851 696 841 674 c 0,120,121
 825 639 825 639 806 602 c 1,122,-1
 860 602 l 2,123,124
 888 602 888 602 914 605 c 0,125,126
 917 603 917 603 916.5 552.5 c 128,-1,127
 916 502 916 502 914 500 c 0,128,129
 894 502 894 502 871 502 c 2,130,-1
 827 502 l 1,131,-1
 827 360 l 1,132,-1
 876 360 l 2,133,134
 902 360 902 360 926 362 c 0,135,136
 929 360 929 360 929 309 c 128,-1,137
 929 258 929 258 926 256 c 0,138,139
 908 259 908 259 876 259 c 2,140,-1
 827 259 l 1,141,-1
 827 89 l 2,142,143
 827 -13 827 -13 834 -80 c 1,144,145
 829 -85 829 -85 781 -85 c 256,67,68
182 289 m 1,146,-1
 220 289 l 1,147,-1
 220 318 l 1,148,-1
 220 348 l 1,149,-1
 182 348 l 1,150,-1
 182 289 l 1,146,-1
299 289 m 1,151,-1
 340 289 l 1,152,-1
 340 348 l 1,153,-1
 299 348 l 1,154,-1
 299 318 l 1,155,-1
 299 289 l 1,151,-1
650 360 m 1,156,-1
 735 360 l 1,157,-1
 735 502 l 1,158,-1
 650 502 l 1,159,-1
 650 430 l 1,160,-1
 650 360 l 1,156,-1
182 420 m 1,161,-1
 220 420 l 1,162,-1
 220 449 l 1,163,-1
 220 478 l 1,164,-1
 182 478 l 1,165,-1
 182 420 l 1,161,-1
299 420 m 1,166,-1
 340 420 l 1,167,-1
 340 478 l 1,168,-1
 299 478 l 1,169,-1
 299 449 l 1,170,-1
 299 420 l 1,166,-1
EndSplineSet
EndChar

StartChar: uni9203
Encoding: 53 37379 53
Width: 1000
Flags: W
LayerCount: 2
Fore
SplineSet
482 -85 m 1,0,1
 470 -68 470 -68 448 -47 c 0,2,3
 424 -24 424 -24 406 -12 c 1,4,5
 527 87 527 87 536 319 c 1,6,-1
 489 319 l 2,7,8
 466 319 466 319 441 316 c 0,9,10
 438 318 438 318 438 371 c 128,-1,11
 438 424 438 424 441 426 c 0,12,13
 458 423 458 423 489 423 c 2,14,-1
 537 423 l 1,15,-1
 537 637 l 1,16,-1
 497 637 l 2,17,18
 483 638 483 638 457 636 c 0,19,20
 454 638 454 638 454 690 c 128,-1,21
 454 742 454 742 457 745 c 0,22,23
 504 740 504 740 570 741 c 2,24,-1
 683 741 l 1,25,-1
 797 741 l 2,26,27
 847 741 847 741 910 745 c 1,28,29
 913 741 913 741 913 689.5 c 128,-1,30
 913 638 913 638 910 636 c 0,31,32
 891 638 891 638 872 637 c 2,33,-1
 834 637 l 1,34,-1
 834 423 l 1,35,-1
 879 423 l 2,36,37
 895 423 895 423 925 425 c 0,38,39
 928 424 928 424 928 371.5 c 128,-1,40
 928 319 928 319 925 317 c 0,41,42
 903 319 903 319 879 319 c 1,43,44
 880 319 880 319 834 319 c 1,45,-1
 834 119 l 2,46,47
 834 -6 834 -6 842 -79 c 1,48,49
 835 -84 835 -84 781 -84 c 256,50,51
 727 -84 727 -84 721 -79 c 1,52,53
 729 -5 729 -5 729 119 c 2,54,-1
 729 319 l 1,55,-1
 638 319 l 1,56,57
 634 190 634 190 604 100 c 0,58,59
 566 -17 566 -17 482 -85 c 1,0,1
102 -54 m 1,60,-1
 82 46 l 1,61,62
 125 53 125 53 213 69 c 1,63,64
 213 68 213 68 213 184 c 2,65,-1
 213 301 l 1,66,-1
 153 301 l 2,67,68
 124 301 124 301 95 298 c 0,69,70
 92 300 92 300 92 348 c 128,-1,71
 92 396 92 396 95 398 c 0,72,73
 116 395 116 395 153 395 c 2,74,-1
 213 395 l 1,75,-1
 213 463 l 1,76,-1
 146 463 l 1,77,-1
 146 505 l 1,78,79
 116 477 116 477 102 465 c 1,80,81
 87 528 87 528 65 579 c 1,82,83
 116 618 116 618 164 674 c 0,84,85
 213 734 213 734 243 795 c 1,86,87
 327 754 327 754 324 748 c 0,88,89
 323 746 323 746 319 746 c 0,90,91
 312 745 312 745 311 741 c 0,92,93
 308 733 308 733 302 724 c 1,94,95
 392 670 392 670 442 620 c 1,96,-1
 399 528 l 1,97,98
 397 530 397 530 393 535 c 2,99,-1
 379 549 l 1,100,-1
 379 463 l 1,101,-1
 300 463 l 1,102,-1
 300 395 l 1,103,-1
 354 395 l 2,104,105
 382 395 382 395 408 398 c 0,106,107
 411 396 411 396 410.5 348 c 128,-1,108
 410 300 410 300 408 298 c 0,109,110
 388 301 388 301 354 301 c 2,111,-1
 300 301 l 1,112,-1
 300 84 l 1,113,-1
 409 104 l 1,114,-1
 414 17 l 1,115,116
 352 2 352 2 227 -26 c 0,117,118
 139 -46 139 -46 102 -54 c 1,60,-1
130 87 m 1,119,120
 127 123 127 123 119 165 c 0,121,122
 112 206 112 206 101 248 c 1,123,-1
 165 266 l 1,124,125
 191 179 191 179 199 107 c 1,126,-1
 130 87 l 1,119,120
368 98 m 1,127,-1
 308 118 l 1,128,129
 329 199 329 199 340 275 c 1,130,131
 370 267 370 267 395 255 c 0,132,133
 422 243 422 243 421 238 c 128,-1,134
 420 233 420 233 414 229 c 0,135,136
 405 224 405 224 402 212 c 0,137,138
 400 205 400 205 396 191.5 c 128,-1,139
 392 178 392 178 389 171 c 0,140,141
 378 131 378 131 368 98 c 1,127,-1
639 423 m 1,142,-1
 729 423 l 1,143,-1
 729 637 l 1,144,-1
 639 637 l 1,145,-1
 639 530 l 1,146,-1
 639 423 l 1,142,-1
191 555 m 1,147,-1
 281 555 l 1,148,-1
 372 555 l 1,149,150
 329 594 329 594 256 645 c 1,151,152
 229 602 229 602 191 555 c 1,147,-1
EndSplineSet
EndChar

StartChar: uni3055_uni309A.ccmp
Encoding: 54 -1 54
Width: 1000
Flags: W
LayerCount: 2
Fore
SplineSet
484 -50 m 0,0,1
 338 -50 338 -50 256 6 c 0,2,3
 172 64 172 64 172 169 c 0,4,5
 172 282 172 282 247 334 c 0,6,7
 308 376 308 376 414 376 c 0,8,9
 506 376 506 376 627 344 c 0,10,11
 638 341 638 341 642 340 c 1,12,13
 592 422 592 422 554 516 c 1,14,15
 459 507 459 507 371 509 c 0,16,17
 259 511 259 511 152 520 c 1,18,-1
 150 641 l 1,19,20
 356 617 356 617 511 627 c 1,21,-1
 492 687 l 2,22,23
 490 695 490 695 462 775 c 1,24,-1
 588 790 l 1,25,26
 605 706 605 706 628 640 c 1,27,28
 661 645 661 645 691 651 c 1,29,30
 677 681 677 681 677 717 c 0,31,32
 677 784 677 784 724.5 832 c 128,-1,33
 772 880 772 880 838 880 c 0,34,35
 905 880 905 880 952.5 832 c 128,-1,36
 1000 784 1000 784 1000 717 c 128,-1,37
 1000 650 1000 650 953 604 c 0,38,39
 907 556 907 556 838 556 c 0,40,41
 825 556 825 556 813 558 c 1,42,43
 748 541 748 541 667 530 c 1,44,45
 709 433 709 433 752 371 c 0,46,47
 766 351 766 351 795 316 c 0,48,49
 800 310 800 310 803 307 c 1,50,-1
 745 222 l 1,51,52
 515 275 515 275 426 275 c 0,53,54
 291 275 291 275 291 189 c 0,55,56
 291 69 291 69 492 69 c 0,57,58
 626 69 626 69 743 92 c 1,59,-1
 736 -28 l 1,60,61
 617 -50 617 -50 484 -50 c 0,0,1
838 628 m 0,62,63
 876 628 876 628 902 654 c 128,-1,64
 928 680 928 680 928 718 c 128,-1,65
 928 756 928 756 902 782 c 128,-1,66
 876 808 876 808 838 808 c 0,67,68
 802 808 802 808 776 782 c 0,69,70
 749 758 749 758 749 718 c 0,71,72
 749 681 749 681 775.5 654.5 c 128,-1,73
 802 628 802 628 838 628 c 0,62,63
EndSplineSet
Colour: ff00ff
EndChar

StartChar: uni30B5_uni309A.ccmp
Encoding: 55 -1 55
Width: 1000
Flags: W
LayerCount: 2
Fore
SplineSet
434 -62 m 1,0,-1
 334 35 l 1,1,2
 476 86 476 86 532 163 c 0,3,4
 595 249 595 249 595 419 c 2,5,-1
 595 456 l 1,6,-1
 483 456 l 1,7,-1
 372 456 l 1,8,-1
 372 325 l 2,9,10
 372 290 372 290 375 237 c 0,11,12
 376 228 376 228 376 224 c 1,13,-1
 244 224 l 1,14,15
 250 262 250 262 250 325 c 2,16,-1
 250 456 l 1,17,-1
 170 456 l 2,18,19
 134 456 134 456 85 453 c 0,20,21
 74 452 74 452 69 452 c 1,22,-1
 69 582 l 1,23,24
 117 573 117 573 170 573 c 2,25,-1
 250 573 l 1,26,-1
 250 669 l 2,27,28
 250 695 250 695 245 749 c 0,29,30
 244 753 244 753 244 755 c 1,31,-1
 378 755 l 1,32,33
 378 753 378 753 377 749 c 0,34,35
 372 702 372 702 372 668 c 2,36,-1
 372 573 l 1,37,-1
 483 573 l 1,38,-1
 595 573 l 1,39,-1
 595 674 l 2,40,41
 595 726 595 726 589 764 c 1,42,-1
 691 764 l 1,43,44
 702 789 702 789 724 811 c 0,45,46
 772 859 772 859 838 859 c 0,47,48
 905 859 905 859 952.5 811 c 128,-1,49
 1000 763 1000 763 1000 696 c 128,-1,50
 1000 629 1000 629 953 583 c 0,51,52
 926 554 926 554 890 543 c 1,53,-1
 890 453 l 1,54,55
 859 456 859 456 788 456 c 2,56,-1
 717 456 l 1,57,-1
 717 424 l 2,58,59
 717 235 717 235 661 130 c 0,60,61
 598 12 598 12 434 -62 c 1,0,-1
838 607 m 0,62,63
 876 607 876 607 902 633 c 128,-1,64
 928 659 928 659 928 697 c 128,-1,65
 928 735 928 735 902 761 c 128,-1,66
 876 787 876 787 838 787 c 0,67,68
 802 787 802 787 776 761 c 0,69,70
 749 737 749 737 749 697 c 0,71,72
 749 660 749 660 775.5 633.5 c 128,-1,73
 802 607 802 607 838 607 c 0,62,63
717 590 m 1,74,-1
 717 573 l 1,75,-1
 734 573 l 1,76,77
 728 577 728 577 724 582 c 0,78,79
 720 586 720 586 717 590 c 1,74,-1
EndSplineSet
Colour: ff00ff
EndChar

StartChar: uni305B_uni309A.ccmp
Encoding: 56 -1 56
Width: 1000
Flags: W
LayerCount: 2
Fore
SplineSet
514 -35 m 128,-1,1
 392 -35 392 -35 335 -15 c 128,-1,2
 278 5 278 5 257 53 c 0,3,4
 240 93 240 93 237 184 c 2,5,-1
 236 407 l 1,6,-1
 173 400 l 2,7,8
 98 390 98 390 59 384 c 1,9,-1
 47 506 l 1,10,11
 93 506 93 506 165 512 c 2,12,-1
 237 519 l 1,13,-1
 237 616 l 2,14,15
 237 669 237 669 229 722 c 1,16,-1
 295 722 l 1,17,-1
 362 722 l 1,18,19
 356 685 356 685 356 623 c 2,20,-1
 355 530 l 1,21,-1
 483 542 l 1,22,-1
 612 554 l 1,23,-1
 612 663 l 2,24,25
 612 709 612 709 605 751 c 1,26,-1
 691 751 l 1,27,28
 702 776 702 776 724 798 c 0,29,30
 772 846 772 846 838 845 c 0,31,32
 905 845 905 845 952.5 797.5 c 128,-1,33
 1000 750 1000 750 1000 683 c 128,-1,34
 1000 616 1000 616 953 569 c 0,35,36
 923 538 923 538 884 527 c 1,37,-1
 884 458 l 1,38,39
 873 459 873 459 823 458 c 0,40,41
 802 458 802 458 794 458 c 2,42,-1
 721 454 l 1,43,44
 715 308 715 308 707 262 c 0,45,46
 700 225 700 225 681 211 c 0,47,48
 663 198 663 198 625 198 c 0,49,50
 567 198 567 198 484 213 c 1,51,-1
 487 317 l 1,52,53
 545 307 545 307 573 307 c 0,54,55
 588 307 588 307 594 311 c 0,56,57
 601 315 601 315 602 328 c 0,58,59
 608 371 608 371 610 445 c 1,60,61
 588 443 588 443 543 439 c 0,62,63
 413 427 413 427 354 420 c 1,64,65
 352 244 352 244 354 203 c 0,66,67
 355 150 355 150 363 131 c 0,68,69
 373 105 373 105 404 96 c 128,-1,70
 435 87 435 87 506 87 c 0,71,72
 660 87 660 87 787 112 c 1,73,-1
 782 -19 l 1,74,0
 636 -35 636 -35 514 -35 c 128,-1,1
838 594 m 0,75,76
 876 594 876 594 902 620 c 128,-1,77
 928 646 928 646 928 683.5 c 128,-1,78
 928 721 928 721 902 747 c 128,-1,79
 876 773 876 773 838 773 c 0,80,81
 802 773 802 773 776 747 c 0,82,83
 749 722 749 722 749 683 c 0,84,85
 749 646 749 646 775.5 620 c 128,-1,86
 802 594 802 594 838 594 c 0,75,76
723 570 m 1,87,-1
 723 564 l 1,88,-1
 729 564 l 1,89,90
 726 566 726 566 724 568 c 0,91,92
 724 568 724 568 723 570 c 1,87,-1
EndSplineSet
Colour: ff00ff
EndChar

StartChar: uni3064_uni309A.ccmp
Encoding: 57 -1 57
Width: 1000
Flags: W
LayerCount: 2
Fore
SplineSet
809 620 m 0,0,1
 847 620 847 620 873 646 c 128,-1,2
 899 672 899 672 899 709.5 c 128,-1,3
 899 747 899 747 873 773 c 128,-1,4
 847 799 847 799 809 799 c 0,5,6
 775 799 775 799 747 773 c 0,7,8
 720 748 720 748 720 709 c 0,9,10
 720 672 720 672 746.5 646 c 128,-1,11
 773 620 773 620 809 620 c 0,0,1
351 -4 m 1,12,-1
 296 123 l 1,13,14
 499 127 499 127 618 186 c 0,15,16
 750 252 750 252 750 372 c 0,17,18
 750 442 750 442 706 485 c 0,19,20
 659 530 659 530 576 530 c 0,21,22
 434 530 434 530 117 391 c 1,23,-1
 90 458 l 1,24,-1
 64 526 l 1,25,26
 106 533 106 533 180 555 c 0,27,28
 188 558 188 558 209 565 c 0,29,30
 459 647 459 647 581 647 c 0,31,32
 625 647 625 647 663 639 c 1,33,34
 648 671 648 671 648 709 c 0,35,36
 648 776 648 776 695.5 823.5 c 128,-1,37
 743 871 743 871 809 871 c 0,38,39
 876 871 876 871 923.5 823.5 c 128,-1,40
 971 776 971 776 971 709 c 0,41,42
 971 644 971 644 924 595 c 0,43,44
 883 552 883 552 823 548 c 1,45,46
 884 477 884 477 884 369 c 0,47,48
 884 207 884 207 741 108 c 0,49,50
 599 10 599 10 351 -4 c 1,12,-1
EndSplineSet
Colour: ff00ff
EndChar

StartChar: uni3068_uni309A.ccmp
Encoding: 58 -1 58
Width: 1000
Flags: W
LayerCount: 2
Fore
SplineSet
825 610 m 0,0,1
 863 610 863 610 889 636 c 128,-1,2
 915 662 915 662 915 699.5 c 128,-1,3
 915 737 915 737 889 763 c 128,-1,4
 863 789 863 789 825 789 c 0,5,6
 791 789 791 789 763 763 c 0,7,8
 736 738 736 738 736 699 c 0,9,10
 736 662 736 662 762.5 636 c 128,-1,11
 789 610 789 610 825 610 c 0,0,1
499 -43 m 0,12,13
 345 -43 345 -43 264 5 c 0,14,15
 170 60 170 60 170 177 c 0,16,17
 170 312 170 312 326 430 c 1,18,19
 279 518 279 518 195 716 c 1,20,-1
 314 765 l 1,21,22
 360 637 360 637 431 499 c 1,23,24
 470 522 470 522 543 562 c 0,25,26
 592 590 592 590 611 601 c 0,27,28
 649 622 649 622 674 641 c 1,29,30
 664 668 664 668 664 699 c 0,31,32
 664 766 664 766 711.5 813.5 c 128,-1,33
 759 861 759 861 825 861 c 0,34,35
 892 861 892 861 939.5 813.5 c 128,-1,36
 987 766 987 766 987 699 c 0,37,38
 987 634 987 634 940 585 c 0,39,40
 894 537 894 537 825 537 c 0,41,42
 786 537 786 537 753 554 c 1,43,-1
 758 545 l 1,44,45
 750 541 750 541 735 532 c 0,46,47
 689 507 689 507 664 494 c 0,48,49
 659 491 659 491 648 486 c 0,50,51
 509 417 509 417 430 365 c 0,52,53
 300 278 300 278 300 191 c 0,54,55
 300 85 300 85 496 85 c 0,56,57
 567 85 567 85 654 95 c 0,58,59
 739 105 739 105 803 120 c 1,60,-1
 802 50 l 1,61,-1
 801 -18 l 1,62,63
 658 -43 658 -43 499 -43 c 0,12,13
EndSplineSet
Colour: ff00ff
EndChar

StartChar: uni3089_uni309A.ccmp
Encoding: 59 -1 59
Width: 1000
Flags: W
LayerCount: 2
Fore
SplineSet
800 574 m 0,0,1
 838 574 838 574 864 600 c 128,-1,2
 890 626 890 626 890 663.5 c 128,-1,3
 890 701 890 701 864 727 c 128,-1,4
 838 753 838 753 800 753 c 0,5,6
 766 753 766 753 738 727 c 0,7,8
 711 702 711 702 711 663 c 0,9,10
 711 626 711 626 737.5 600 c 128,-1,11
 764 574 764 574 800 574 c 0,0,1
800 501 m 0,12,13
 734 500 734 500 686 548 c 0,14,15
 670 564 670 564 659 583 c 1,16,17
 606 591 606 591 464 618 c 1,18,19
 334 647 334 647 284 660 c 1,20,-1
 314 775 l 1,21,22
 384 753 384 753 505 730 c 0,23,24
 590 715 590 715 644 706 c 1,25,26
 654 746 654 746 686 778 c 0,27,28
 734 826 734 826 800 825 c 0,29,30
 867 825 867 825 914.5 777.5 c 128,-1,31
 962 730 962 730 962 663 c 0,32,33
 962 598 962 598 915 549 c 0,34,35
 869 501 869 501 800 501 c 0,12,13
295 -47 m 1,36,-1
 259 79 l 1,37,38
 464 50 464 50 581 95 c 0,39,40
 691 137 691 137 691 231 c 0,41,42
 691 278 691 278 651.5 309 c 128,-1,43
 612 340 612 340 551 340 c 0,44,45
 471 340 471 340 403 311 c 0,46,47
 334 281 334 281 290 227 c 0,48,49
 266 198 266 198 255 171 c 1,50,-1
 147 199 l 1,51,52
 161 270 161 270 175 390 c 128,-1,53
 189 510 189 510 194 599 c 1,54,55
 245 592 245 592 288 577 c 0,56,57
 334 561 334 561 332 548 c 0,58,59
 330 538 330 538 322 530 c 0,60,61
 308 517 308 517 303 490 c 0,62,63
 288 396 288 396 284 357 c 1,64,65
 405 448 405 448 561 448 c 0,66,67
 680 448 680 448 753 382 c 0,68,69
 822 320 822 320 822 229 c 0,70,71
 822 85 822 85 705 13 c 0,72,73
 569 -71 569 -71 295 -47 c 1,36,-1
EndSplineSet
Colour: ff00ff
EndChar

StartChar: uni308A_uni309A.ccmp
Encoding: 60 -1 60
Width: 1000
Flags: W
LayerCount: 2
Fore
SplineSet
794 580 m 0,0,1
 832 580 832 580 858 606 c 128,-1,2
 884 632 884 632 884 669.5 c 128,-1,3
 884 707 884 707 858 733 c 128,-1,4
 832 759 832 759 794 759 c 0,5,6
 760 759 760 759 732 733 c 0,7,8
 705 708 705 708 705 669 c 0,9,10
 705 632 705 632 731.5 606 c 128,-1,11
 758 580 758 580 794 580 c 0,0,1
355 -60 m 1,12,-1
 284 51 l 1,13,14
 460 80 460 80 540 144 c 0,15,16
 639 224 639 224 639 386 c 0,17,18
 639 496 639 496 605.5 556 c 128,-1,19
 572 616 572 616 512 616 c 0,20,21
 433 616 433 616 366 515 c 0,22,23
 304 421 304 421 300 320 c 0,24,25
 297 279 297 279 305 218 c 1,26,-1
 189 210 l 1,27,28
 177 286 177 286 177 371 c 0,29,30
 177 480 177 480 203 678 c 0,31,32
 211 736 211 736 211 779 c 1,33,34
 261 777 261 777 306 764 c 0,35,36
 353 751 353 751 350 738 c 0,37,38
 348 728 348 728 339 721 c 0,39,40
 325 708 325 708 319 682 c 0,41,42
 308 625 308 625 302 573 c 1,43,44
 341 638 341 638 396 679 c 0,45,46
 462 729 462 729 535 729 c 0,47,48
 591 729 591 729 636 700 c 1,49,50
 644 748 644 748 680 784 c 0,51,52
 728 832 728 832 794 831 c 0,53,54
 861 831 861 831 908.5 783.5 c 128,-1,55
 956 736 956 736 956 669 c 0,56,57
 956 604 956 604 909 555 c 0,58,59
 863 507 863 507 794 507 c 0,60,61
 773 507 773 507 754 512 c 1,62,63
 767 455 767 455 767 387 c 0,64,65
 767 190 767 190 654 79 c 0,66,67
 553 -24 553 -24 355 -60 c 1,12,-1
EndSplineSet
Colour: ff00ff
EndChar

StartChar: uni308B_uni309A.ccmp
Encoding: 61 -1 61
Width: 1000
Flags: W
LayerCount: 2
Fore
SplineSet
760 566 m 0,0,1
 798 566 798 566 824 592 c 0,2,3
 850 618 850 618 850 655 c 128,-1,4
 850 692 850 692 824 718 c 0,5,6
 797 744 797 744 760 744 c 0,7,8
 726 744 726 744 698 718 c 0,9,10
 671 694 671 694 671 654 c 0,11,12
 672 618 672 618 698 592 c 0,13,14
 724 566 724 566 760 566 c 0,0,1
760 492 m 0,15,16
 694 492 694 492 646 540 c 0,17,18
 627 559 627 559 616 581 c 1,19,20
 577 550 577 550 515 498 c 0,21,22
 472 463 472 463 455 449 c 1,23,24
 498 460 498 460 544 460 c 0,25,26
 664 460 664 460 744.5 391.5 c 128,-1,27
 825 323 825 323 825 218 c 0,28,29
 825 99 825 99 741 25 c 0,30,31
 649 -54 649 -54 485 -54 c 0,32,33
 385 -54 385 -54 321 -11 c 0,34,35
 256 33 256 33 256 104 c 0,36,37
 256 165 256 165 303 208 c 0,38,39
 351 254 351 254 424 254 c 0,40,41
 509 254 509 254 563 206 c 0,42,43
 614 161 614 161 624 89 c 1,44,45
 702 131 702 131 702 220 c 0,46,47
 702 284 702 284 646.5 324.5 c 128,-1,48
 591 365 591 365 507 365 c 0,49,50
 406 365 406 365 321 311 c 0,51,52
 253 268 253 268 168 170 c 1,53,-1
 83 260 l 1,54,55
 121 291 121 291 223 378 c 0,56,57
 295 440 295 440 319 460 c 0,58,59
 335 473 335 473 376 508 c 0,60,61
 483 597 483 597 515 626 c 1,62,63
 418 624 418 624 288 616 c 0,64,65
 284 616 284 616 276 615 c 0,66,67
 229 612 229 612 211 609 c 1,68,-1
 207 734 l 1,69,70
 240 729 240 729 292 729 c 0,71,72
 338 729 338 729 443 732 c 0,73,74
 560 734 560 734 597 737 c 0,75,76
 611 739 611 739 623 740 c 1,77,78
 632 755 632 755 646 769 c 0,79,80
 694 816 694 816 760 816 c 0,81,82
 827 816 827 816 874.5 769 c 128,-1,83
 922 722 922 722 922 654 c 0,84,85
 922 590 922 590 875 540 c 0,86,87
 830 492 830 492 760 492 c 0,15,16
462 56 m 0,88,89
 491 56 491 56 516 59 c 1,90,91
 512 104 512 104 488 134 c 0,92,93
 464 161 464 161 425 161 c 0,94,95
 399 161 399 161 383 147.5 c 128,-1,96
 367 134 367 134 367 115 c 0,97,98
 367 89 367 89 393 72.5 c 128,-1,99
 419 56 419 56 462 56 c 0,88,89
EndSplineSet
Colour: ff00ff
EndChar

StartChar: uni308C_uni309A.ccmp
Encoding: 62 -1 62
Width: 1000
Flags: W
LayerCount: 2
Fore
SplineSet
789 566 m 0,0,1
 827 566 827 566 853 592 c 128,-1,2
 879 618 879 618 879 655.5 c 128,-1,3
 879 693 879 693 853 719 c 128,-1,4
 827 745 827 745 789 745 c 0,5,6
 755 745 755 745 727 719 c 0,7,8
 700 694 700 694 700 655 c 0,9,10
 700 618 700 618 726.5 592 c 128,-1,11
 753 566 753 566 789 566 c 0,0,1
225 -47 m 1,12,13
 226 -46 226 -46 227 24 c 2,14,-1
 229 130 l 1,15,-1
 231 235 l 1,16,17
 150 111 150 111 113 60 c 1,18,-1
 39 164 l 1,19,20
 161 318 161 318 240 439 c 1,21,-1
 244 507 l 1,22,-1
 158 495 l 1,23,-1
 73 484 l 1,24,-1
 61 607 l 1,25,26
 102 605 102 605 143 608 c 0,27,28
 200 612 200 612 252 620 c 1,29,-1
 256 694 l 2,30,31
 256 698 256 698 256 706 c 0,32,33
 256 755 256 755 252 781 c 1,34,-1
 389 776 l 1,35,36
 375 701 375 701 368 640 c 1,37,-1
 403 594 l 1,38,39
 382 566 382 566 369 543 c 0,40,41
 360 527 360 527 355 520 c 1,42,-1
 353 499 l 1,43,44
 514 643 514 643 627 643 c 0,45,46
 628 643 628 643 628 643 c 1,47,48
 628 649 628 649 628 655 c 0,49,50
 628 722 628 722 675.5 769.5 c 128,-1,51
 723 817 723 817 789 817 c 0,52,53
 856 817 856 817 903.5 769.5 c 128,-1,54
 951 722 951 722 951 655 c 0,55,56
 951 590 951 590 904 541 c 0,57,58
 858 493 858 493 789 493 c 0,59,60
 782 493 782 493 775 494 c 1,61,62
 774 442 774 442 760 330 c 0,63,64
 744 210 744 210 744 161 c 0,65,66
 744 118 744 118 779 118 c 0,67,68
 834 118 834 118 901 187 c 1,69,-1
 917 52 l 1,70,71
 841 -19 841 -19 740 -19 c 0,72,73
 686 -19 686 -19 654 19 c 128,-1,74
 622 57 622 57 622 125 c 0,75,76
 622 180 622 180 640 307 c 0,77,78
 656 417 656 417 656 458 c 0,79,80
 656 529 656 529 592 529 c 0,81,82
 544 529 544 529 471 474 c 0,83,84
 409 428 409 428 344 354 c 1,85,-1
 342 277 l 2,86,87
 342 165 342 165 348 27 c 0,88,89
 349 4 349 4 354 -47 c 1,90,-1
 225 -47 l 1,12,13
EndSplineSet
Colour: ff00ff
EndChar

StartChar: uni308D_uni309A.ccmp
Encoding: 63 -1 63
Width: 1000
Flags: W
LayerCount: 2
Fore
SplineSet
752 562 m 0,0,1
 790 562 790 562 816 588 c 128,-1,2
 842 614 842 614 842 651.5 c 128,-1,3
 842 689 842 689 816 715 c 128,-1,4
 790 741 790 741 752 741 c 0,5,6
 718 741 718 741 690 715 c 0,7,8
 663 690 663 690 663 651 c 0,9,10
 663 614 663 614 689.5 588 c 128,-1,11
 716 562 716 562 752 562 c 0,0,1
752 489 m 0,12,13
 686 488 686 488 638 536 c 0,14,15
 622 552 622 552 612 570 c 1,16,17
 593 555 593 555 571 537 c 0,18,19
 493 475 493 475 454 445 c 1,20,21
 495 457 495 457 543 457 c 0,22,23
 666 457 666 457 745 390 c 0,24,25
 822 324 822 324 822 223 c 0,26,27
 822 76 822 76 697 5 c 0,28,29
 567 -71 567 -71 311 -50 c 1,30,-1
 278 75 l 1,31,32
 473 49 473 49 583 88.5 c 128,-1,33
 693 128 693 128 693 224 c 0,34,35
 693 282 693 282 644.5 319 c 128,-1,36
 596 356 596 356 517 356 c 0,37,38
 419 356 419 356 326 296 c 0,39,40
 263 255 263 255 167 157 c 1,41,-1
 80 252 l 1,42,43
 174 325 174 325 314.5 443.5 c 128,-1,44
 455 562 455 562 511 621 c 1,45,46
 360 615 360 615 284 610 c 0,47,48
 229 605 229 605 206 601 c 1,49,-1
 204 727 l 1,50,51
 234 723 234 723 280 723 c 0,52,53
 495 723 495 723 602 730 c 0,54,55
 607 730 607 730 612 731 c 0,56,57
 622 750 622 750 638 766 c 0,58,59
 686 814 686 814 752 813 c 0,60,61
 819 813 819 813 866.5 765.5 c 128,-1,62
 914 718 914 718 914 651 c 0,63,64
 914 586 914 586 867 537 c 0,65,66
 821 489 821 489 752 489 c 0,12,13
EndSplineSet
Colour: ff00ff
EndChar

StartChar: uni30E9_uni309A.ccmp
Encoding: 64 -1 64
Width: 1000
Flags: W
LayerCount: 2
Fore
SplineSet
815 592 m 0,0,1
 853 592 853 592 879 618 c 128,-1,2
 905 644 905 644 905 681.5 c 128,-1,3
 905 719 905 719 879 745 c 128,-1,4
 853 771 853 771 815 771 c 0,5,6
 781 771 781 771 753 745 c 0,7,8
 726 720 726 720 726 681 c 0,9,10
 726 644 726 644 752.5 618 c 128,-1,11
 779 592 779 592 815 592 c 0,0,1
815 519 m 0,12,13
 750 518 750 518 702 566 c 0,14,15
 679 589 679 589 667 617 c 1,16,-1
 489 617 l 2,17,18
 398 617 398 617 307 617 c 0,19,20
 251 617 251 617 210 614 c 1,21,-1
 210 738 l 1,22,23
 236 734 236 734 307 734 c 0,24,25
 399 734 399 734 490 734 c 2,26,-1
 662 734 l 1,27,28
 674 768 674 768 702 796 c 0,29,30
 750 844 750 844 815 843 c 0,31,32
 882 843 882 843 929.5 795.5 c 128,-1,33
 977 748 977 748 977 681 c 0,34,35
 977 616 977 616 930 567 c 0,36,37
 884 519 884 519 815 519 c 0,12,13
357 -54 m 1,38,-1
 310 0 l 1,39,-1
 264 55 l 1,40,41
 367 77 367 77 453 122 c 0,42,43
 534 165 534 165 589 223 c 0,44,45
 655 292 655 292 686 389 c 1,46,47
 459 389 459 389 232 389 c 0,48,49
 173 389 173 389 123 384 c 1,50,-1
 123 509 l 1,51,52
 203 503 203 503 232 503 c 0,53,54
 349 503 349 503 465 503 c 128,-1,55
 581 503 581 503 697 503 c 0,56,57
 744 503 744 503 766 513 c 1,58,59
 857 455 857 455 854 449 c 0,60,61
 853 447 853 447 849 446 c 0,62,63
 843 445 843 445 840 439 c 0,64,65
 834 425 834 425 832 420 c 0,66,67
 783 256 783 256 693 154 c 0,68,69
 562 5 562 5 357 -54 c 1,38,-1
EndSplineSet
Colour: ff00ff
EndChar

StartChar: uni30EA_uni309A.ccmp
Encoding: 65 -1 65
Width: 1000
Flags: W
LayerCount: 2
Fore
SplineSet
814 605 m 0,0,1
 852 605 852 605 878 631 c 128,-1,2
 904 657 904 657 904 694.5 c 128,-1,3
 904 732 904 732 878 758 c 128,-1,4
 852 784 852 784 814 784 c 0,5,6
 780 784 780 784 752 758 c 0,7,8
 725 733 725 733 725 694 c 0,9,10
 725 657 725 657 751.5 631 c 128,-1,11
 778 605 778 605 814 605 c 0,0,1
182 257 m 1,12,13
 182 263 182 263 184 280 c 0,14,15
 187 322 187 322 187 342 c 0,16,17
 187 504 187 504 187 665 c 0,18,19
 187 710 187 710 183 739 c 1,20,-1
 319 739 l 1,21,22
 316 706 316 706 316 665 c 0,23,24
 316 587 316 587 316 508 c 0,25,26
 316 425 316 425 316 341 c 0,27,28
 316 290 316 290 319 257 c 1,29,-1
 250 257 l 1,30,-1
 182 257 l 1,12,13
414 -52 m 1,31,-1
 365 1 l 1,32,-1
 316 54 l 1,33,34
 465 89 465 89 541 175 c 0,35,36
 588 227 588 227 604 293 c 0,37,38
 619 352 619 352 619 469 c 0,39,40
 619 560 619 560 619 651 c 0,41,42
 619 707 619 707 613 747 c 1,43,-1
 661 747 l 1,44,45
 672 780 672 780 700 808 c 0,46,47
 748 856 748 856 814 856 c 0,48,49
 881 856 881 856 928.5 808.5 c 128,-1,50
 976 761 976 761 976 694 c 0,51,52
 976 629 976 629 929 580 c 0,53,54
 883 532 883 532 814 532 c 0,55,56
 780 532 780 532 751 545 c 1,57,-1
 751 461 l 2,58,59
 751 314 751 314 723 226 c 0,60,61
 699 150 699 150 642 86 c 0,62,63
 599 39 599 39 530 -1 c 0,64,65
 474 -33 474 -33 414 -52 c 1,31,-1
EndSplineSet
Colour: ff00ff
EndChar

StartChar: uni30EB_uni309A.ccmp
Encoding: 66 -1 66
Width: 1000
Flags: W
LayerCount: 2
Fore
SplineSet
551 -43 m 1,0,-1
 473 23 l 1,1,2
 480 55 480 55 480 94 c 0,3,4
 480 229 480 229 480 364 c 0,5,6
 480 509 480 509 480 654 c 0,7,8
 480 682 480 682 477 710 c 0,9,10
 474 733 474 733 473 736 c 1,11,-1
 542 736 l 1,12,-1
 613 736 l 1,13,14
 612 733 612 733 609 710 c 0,15,16
 606 681 606 681 606 653 c 0,17,18
 606 402 606 402 606 151 c 1,19,20
 665 177 665 177 727 230 c 0,21,22
 793 286 793 286 838 353 c 1,23,-1
 911 248 l 1,24,25
 855 173 855 173 762 98 c 0,26,27
 675 29 675 29 592 -14 c 0,28,29
 566 -29 566 -29 551 -43 c 1,0,-1
152 -40 m 1,30,-1
 38 38 l 1,31,32
 150 119 150 119 197 267 c 0,33,34
 225 353 225 353 225 647 c 0,35,36
 225 699 225 699 216 735 c 1,37,-1
 285 735 l 1,38,-1
 354 735 l 1,39,40
 348 711 348 711 348 648 c 0,41,42
 348 531 348 531 343 435 c 0,43,44
 338 302 338 302 320 235 c 0,45,46
 277 74 277 74 152 -40 c 1,30,-1
804 492 m 4,47,48
 738 492 738 492 690.5 539.5 c 132,-1,49
 643 587 643 587 643 654 c 132,-1,50
 643 721 643 721 690.5 768.5 c 132,-1,51
 738 816 738 816 804 816 c 4,52,53
 871 816 871 816 918.5 768.5 c 132,-1,54
 966 721 966 721 966 654 c 4,55,56
 966 589 966 589 919 540 c 4,57,58
 873 492 873 492 804 492 c 4,47,48
804 565 m 4,59,60
 842 565 842 565 868 591 c 132,-1,61
 894 617 894 617 894 654.5 c 132,-1,62
 894 692 894 692 868 718 c 132,-1,63
 842 744 842 744 804 744 c 4,64,65
 770 744 770 744 742 718 c 4,66,67
 715 693 715 693 715 654 c 4,68,69
 715 617 715 617 741.5 591 c 132,-1,70
 768 565 768 565 804 565 c 4,59,60
EndSplineSet
Colour: ff00ff
EndChar

StartChar: uni30EC_uni309A.ccmp
Encoding: 67 -1 67
Width: 1000
Flags: W
LayerCount: 2
Fore
SplineSet
273 -38 m 1,0,-1
 183 40 l 1,1,2
 196 66 196 66 196 103 c 0,3,4
 196 363 196 363 196 623 c 0,5,6
 196 682 196 682 185 733 c 1,7,-1
 259 733 l 1,8,-1
 333 733 l 1,9,10
 323 670 323 670 323 623 c 0,11,12
 323 374 323 374 323 124 c 1,13,14
 446 160 446 160 577 244 c 0,15,16
 720 335 720 335 807 442 c 1,17,-1
 873 333 l 1,18,19
 780 219 780 219 635 129 c 0,20,21
 500 45 500 45 328 -12 c 0,22,23
 326 -13 326 -13 323 -14 c 0,24,25
 291 -26 291 -26 273 -38 c 1,0,-1
701 478 m 4,26,27
 635 478 635 478 587.5 525.5 c 132,-1,28
 540 573 540 573 540 640 c 132,-1,29
 540 707 540 707 587.5 754.5 c 132,-1,30
 635 802 635 802 701 802 c 4,31,32
 768 802 768 802 815.5 754.5 c 132,-1,33
 863 707 863 707 863 640 c 4,34,35
 863 575 863 575 816 526 c 4,36,37
 770 478 770 478 701 478 c 4,26,27
701 551 m 4,38,39
 739 551 739 551 765 577 c 132,-1,40
 791 603 791 603 791 640.5 c 132,-1,41
 791 678 791 678 765 704 c 132,-1,42
 739 730 739 730 701 730 c 4,43,44
 667 730 667 730 639 704 c 4,45,46
 612 679 612 679 612 640 c 4,47,48
 612 603 612 603 638.5 577 c 132,-1,49
 665 551 665 551 701 551 c 4,38,39
EndSplineSet
Colour: ff00ff
EndChar

StartChar: uni30ED_uni309A.ccmp
Encoding: 68 -1 68
Width: 1000
Flags: W
LayerCount: 2
Fore
SplineSet
781 578 m 0,0,1
 819 578 819 578 845 604 c 128,-1,2
 871 630 871 630 871 667.5 c 128,-1,3
 871 705 871 705 845 731 c 128,-1,4
 819 757 819 757 781 757 c 0,5,6
 747 757 747 757 719 731 c 0,7,8
 692 706 692 706 692 667 c 0,9,10
 692 630 692 630 718.5 604 c 128,-1,11
 745 578 745 578 781 578 c 0,0,1
246 160 m 1,12,-1
 473 160 l 1,13,-1
 700 160 l 1,14,-1
 700 527 l 1,15,16
 684 536 684 536 668 552 c 0,17,18
 665 555 665 555 661 559 c 2,19,-1
 473 559 l 1,20,-1
 246 559 l 1,21,-1
 246 160 l 1,12,-1
247 -14 m 1,22,-1
 118 -13 l 1,23,-1
 118 0 l 2,24,25
 120 84 120 84 120 120 c 0,26,27
 120 355 120 355 120 590 c 0,28,29
 120 656 120 656 118 683 c 1,30,31
 122 683 122 683 129 683 c 0,32,33
 195 681 195 681 218 681 c 2,34,-1
 621 681 l 1,35,36
 626 740 626 740 668 782 c 0,37,38
 716 830 716 830 781 829 c 0,39,40
 848 829 848 829 895.5 781.5 c 128,-1,41
 943 734 943 734 943 667 c 0,42,43
 943 602 943 602 896 553 c 0,44,45
 866 522 866 522 826 511 c 1,46,-1
 826 119 l 2,47,48
 826 91 826 91 828 3 c 2,49,-1
 828 -14 l 1,50,-1
 698 -14 l 1,51,-1
 699 38 l 1,52,-1
 473 38 l 1,53,-1
 359 38 l 1,54,-1
 246 38 l 1,55,-1
 247 -14 l 1,22,-1
EndSplineSet
Colour: ff00ff
EndChar

StartChar: uni308F_uni3099.ccmp
Encoding: 69 -1 69
Width: 1000
Flags: W
LayerCount: 2
Fore
SplineSet
225 -47 m 1,0,1
 227 -26 227 -26 227 24 c 2,2,-1
 229 130 l 1,3,-1
 231 235 l 1,4,5
 150 111 150 111 113 60 c 1,6,-1
 39 164 l 1,7,8
 161 318 161 318 240 439 c 1,9,-1
 244 507 l 1,10,11
 235 506 235 506 214 503 c 0,12,13
 116 490 116 490 73 484 c 1,14,-1
 61 607 l 1,15,16
 102 605 102 605 143 608 c 0,17,18
 200 612 200 612 252 620 c 1,19,-1
 256 694 l 2,20,21
 256 698 256 698 256 706 c 0,22,23
 256 755 256 755 252 781 c 1,24,-1
 389 776 l 1,25,26
 379 720 379 720 368 639 c 1,27,-1
 403 594 l 1,28,29
 394 582 394 582 369 543 c 0,30,31
 360 527 360 527 355 520 c 1,32,-1
 353 494 l 1,33,34
 482 592 482 592 630 592 c 0,35,36
 740 592 740 592 814 521 c 0,37,38
 888 448 888 448 889 333 c 0,39,40
 889 190 889 190 800 99 c 0,41,42
 715 13 715 13 537 -24 c 1,43,-1
 480 92 l 1,44,45
 764 135 764 135 763 336 c 0,46,47
 763 395 763 395 722 436 c 0,48,49
 678 480 678 480 610 480 c 0,50,51
 475 480 475 480 344 357 c 1,52,-1
 342 277 l 2,53,54
 342 117 342 117 348 27 c 0,55,56
 349 4 349 4 354 -47 c 1,57,-1
 225 -47 l 1,0,1
743 598 m 5,58,59
 733 621 733 621 708 668 c 4,60,61
 686 709 686 709 670 731 c 5,62,-1
 739 760 l 5,63,64
 776 707 776 707 813 631 c 5,65,-1
 743 598 l 5,58,59
851 642 m 5,66,67
 842 662 842 662 814 711 c 4,68,69
 796 743 796 743 774 772 c 5,70,-1
 842 804 l 5,71,72
 889 740 889 740 921 677 c 5,73,-1
 851 642 l 5,66,67
EndSplineSet
Colour: ff00ff
EndChar

StartChar: uni3090_uni3099.ccmp
Encoding: 70 -1 70
Width: 1000
Flags: W
LayerCount: 2
Fore
SplineSet
579 -52 m 0,0,1
 502 -52 502 -52 455 -15 c 0,2,3
 405 24 405 24 405 91 c 0,4,5
 405 151 405 151 448.5 192 c 128,-1,6
 492 233 492 233 556 233 c 0,7,8
 667 233 667 233 713 142 c 1,9,10
 738 194 738 194 738 254 c 0,11,12
 738 343 738 343 681.5 398.5 c 128,-1,13
 625 454 625 454 530 454 c 1,14,-1
 494 452 l 1,15,-1
 452 326 l 2,16,17
 382 117 382 117 310 34 c 0,18,19
 266 -18 266 -18 184 -18 c 0,20,21
 136 -18 136 -18 102 18 c 0,22,23
 65 58 65 58 65 124 c 0,24,25
 65 263 65 263 164 381 c 0,26,27
 263 501 263 501 410 540 c 1,28,29
 430 610 430 610 438 643 c 1,30,31
 364 642 364 642 193 626 c 1,32,-1
 186 745 l 1,33,34
 232 740 232 740 254 741 c 0,35,36
 282 739 282 739 345 741 c 0,37,38
 410 742 410 742 451 746 c 0,39,40
 491 752 491 752 515 758 c 1,41,42
 595 696 595 696 591 687 c 0,43,44
 589 683 589 683 583 682 c 0,45,46
 573 681 573 681 568 671 c 0,47,48
 561 659 561 659 551 631 c 2,49,-1
 526 556 l 1,50,-1
 531 556 l 2,51,52
 676 556 676 556 765.5 471.5 c 128,-1,53
 855 387 855 387 855 251 c 0,54,55
 855 121 855 121 788 39 c 0,56,57
 714 -52 714 -52 579 -52 c 0,0,1
568 52 m 0,58,59
 606 52 606 52 637 66 c 1,60,61
 630 105 630 105 605 129 c 0,62,63
 585 148 585 148 556 148 c 0,64,65
 533 148 533 148 517.5 135 c 128,-1,66
 502 122 502 122 502 101.5 c 128,-1,67
 502 81 502 81 520.5 66.5 c 128,-1,68
 539 52 539 52 568 52 c 0,58,59
199 115 m 0,69,70
 225 115 225 115 246 141 c 0,71,72
 274 179 274 179 313 265 c 0,73,74
 342 331 342 331 366 401 c 2,75,-1
 371 418 l 1,76,77
 281 374 281 374 222 289 c 0,78,79
 171 213 171 213 171 158 c 0,80,81
 171 139 171 139 179.5 127 c 128,-1,82
 188 115 188 115 199 115 c 0,69,70
717 560 m 5,83,84
 692 613 692 613 676 642 c 4,85,86
 656 680 656 680 630 716 c 5,87,-1
 712 752 l 5,88,89
 733 719 733 719 758 676 c 4,90,91
 786 630 786 630 801 597 c 5,92,-1
 717 560 l 5,83,84
848 613 m 5,93,94
 823 661 823 661 804 694 c 4,95,96
 783 731 783 731 757 766 c 5,97,-1
 838 805 l 5,98,99
 852 785 852 785 886 731 c 4,100,101
 918 679 918 679 929 654 c 5,102,-1
 848 613 l 5,93,94
EndSplineSet
Colour: ff00ff
EndChar

StartChar: uni3091_uni3099.ccmp
Encoding: 71 -1 71
Width: 1000
Flags: W
LayerCount: 2
Fore
SplineSet
144 -58 m 1,0,-1
 41 2 l 1,1,2
 115 80 115 80 170 135 c 0,3,4
 257 220 257 220 306 262 c 1,5,6
 264 295 264 295 264 345 c 0,7,8
 264 393 264 393 311 425 c 0,9,10
 356 456 356 456 419 456 c 0,11,12
 485 456 485 456 525 428 c 0,13,14
 563 401 563 401 563 359 c 0,15,16
 563 338 563 338 553 318 c 1,17,18
 604 330 604 330 634 356 c 0,19,20
 665 383 665 383 665 418 c 0,21,22
 665 460 665 460 620.5 489 c 128,-1,23
 576 518 576 518 511 518 c 0,24,25
 417 518 417 518 345 483 c 0,26,27
 265 444 265 444 164 354 c 1,28,-1
 92 443 l 1,29,30
 138 473 138 473 270 555 c 0,31,32
 293 569 293 569 337 596 c 0,33,34
 419 645 419 645 451 663 c 1,35,36
 291 659 291 659 220 650 c 1,37,-1
 215 749 l 1,38,39
 263 746 263 746 299 746 c 0,40,41
 341 746 341 746 428 748 c 0,42,43
 538 751 538 751 568 755 c 0,44,45
 610 758 610 758 635 766 c 1,46,-1
 698 683 l 1,47,48
 659 672 659 672 597 644 c 0,49,50
 534 616 534 616 486 589 c 1,51,52
 517 593 517 593 555 593 c 0,53,54
 656 592 656 592 720 541 c 0,55,56
 783 492 783 492 783 420 c 0,57,58
 783 319 783 319 692 264 c 0,59,60
 610 214 610 214 483 214 c 0,61,62
 452 214 452 214 417 219 c 1,63,-1
 349 164 l 1,64,65
 424 166 424 166 465 87 c 1,66,67
 500 135 500 135 548 162 c 128,-1,68
 596 189 596 189 648 189 c 0,69,70
 728 189 728 189 793 132 c 0,71,72
 852 80 852 80 890 -12 c 1,73,-1
 770 -58 l 1,74,75
 725 88 725 88 637 88 c 0,76,77
 602 88 602 88 573 61 c 0,78,79
 545 36 545 36 528 -8 c 0,80,81
 528 -9 528 -9 527 -11 c 0,82,83
 519 -37 519 -37 519 -50 c 1,84,-1
 398 -49 l 2,85,86
 398 -47 398 -47 397 -43 c 0,87,88
 395 -17 395 -17 391 -5 c 0,89,90
 379 38 379 38 354 61 c 0,91,92
 331 83 331 83 299 83 c 0,93,94
 259 83 259 83 217 40 c 0,95,96
 188 10 188 10 144 -58 c 1,0,-1
430 313 m 1,97,98
 462 333 462 333 462 357 c 0,99,100
 462 371 462 371 448 380 c 128,-1,101
 434 389 434 389 411 389 c 0,102,103
 390 389 390 389 375 380 c 0,104,105
 358 372 358 372 358 355.5 c 128,-1,106
 358 339 358 339 373 328 c 0,107,108
 393 317 393 317 430 313 c 1,97,98
756 604 m 5,109,110
 746 627 746 627 721 674 c 4,111,112
 699 715 699 715 683 737 c 5,113,-1
 752 766 l 5,114,115
 789 713 789 713 826 637 c 5,116,-1
 756 604 l 5,109,110
864 648 m 5,117,118
 855 668 855 668 827 717 c 4,119,120
 809 749 809 749 787 778 c 5,121,-1
 855 810 l 5,122,123
 902 746 902 746 934 683 c 5,124,-1
 864 648 l 5,117,118
EndSplineSet
Colour: ff00ff
EndChar

StartChar: uni3092_uni3099.ccmp
Encoding: 72 -1 72
Width: 1000
Flags: W
LayerCount: 2
Fore
SplineSet
504 -54 m 0,0,1
 247 -54 247 -54 247 107 c 0,2,3
 247 191 247 191 317 259 c 0,4,5
 364 307 364 307 466 363 c 1,6,7
 447 396 447 396 401 396 c 0,8,9
 363 396 363 396 322 376 c 0,10,11
 283 357 283 357 255 329 c 0,12,13
 221 295 221 295 167 224 c 1,14,-1
 67 301 l 1,15,16
 210 437 210 437 274 566 c 1,17,-1
 262 566 l 2,18,19
 168 566 168 566 103 571 c 1,20,-1
 103 684 l 1,21,22
 175 672 175 672 269 672 c 2,23,-1
 314 672 l 1,24,25
 330 733 330 733 333 782 c 1,26,27
 381 778 381 778 424 770 c 0,28,29
 467 761 467 761 466 755 c 0,30,31
 465 750 465 750 460 747 c 0,32,33
 450 742 450 742 448 730 c 0,34,35
 444 710 444 710 434 676 c 1,36,37
 563 683 563 683 654 697 c 1,38,39
 654 697 654 697 654 586 c 1,40,41
 540 572 540 572 392 568 c 1,42,43
 366 512 366 512 338 470 c 1,44,45
 356 479 356 479 389 485 c 0,46,47
 420 490 420 490 445 490 c 0,48,49
 489 490 489 490 521 471 c 0,50,51
 555 452 555 452 570 416 c 1,52,53
 606 433 606 433 665 458 c 0,54,55
 686 467 686 467 697 472 c 0,56,57
 705 476 705 476 721 483 c 0,58,59
 774 508 774 508 801 522 c 1,60,-1
 848 411 l 1,61,62
 821 403 821 403 745 374 c 0,63,64
 739 372 739 372 736 371 c 0,65,66
 724 366 724 366 696 354 c 0,67,68
 623 324 623 324 583 305 c 1,69,-1
 585 221 l 1,70,-1
 587 136 l 1,71,-1
 474 136 l 1,72,73
 478 175 478 175 478 253 c 1,74,75
 423 221 423 221 398 193 c 0,76,77
 370 162 370 162 370 127 c 0,78,79
 370 89 370 89 404 74 c 0,80,81
 435 60 435 60 507 60 c 0,82,83
 639 60 639 60 774 86 c 1,84,-1
 770 -37 l 1,85,86
 653 -54 653 -54 504 -54 c 0,0,1
738 582 m 1,87,88
 728 605 728 605 703 652 c 0,89,90
 681 693 681 693 665 715 c 1,91,-1
 734 744 l 1,92,93
 771 691 771 691 808 615 c 1,94,-1
 738 582 l 1,87,88
846 626 m 1,95,96
 837 646 837 646 809 695 c 0,97,98
 791 727 791 727 769 756 c 1,99,-1
 837 788 l 1,100,101
 884 724 884 724 916 661 c 1,102,-1
 846 626 l 1,95,96
EndSplineSet
Colour: ff00ff
EndChar

StartChar: uni3063_uni309A.ccmp
Encoding: 73 -1 73
Width: 1000
Flags: W
LayerCount: 2
Fore
SplineSet
768 489 m 0,0,1
 806 489 806 489 832 515 c 128,-1,2
 858 541 858 541 858 578.5 c 128,-1,3
 858 616 858 616 832 642 c 128,-1,4
 806 668 806 668 768 668 c 0,5,6
 734 668 734 668 706 642 c 0,7,8
 679 617 679 617 679 578 c 0,9,10
 679 541 679 541 705.5 515 c 128,-1,11
 732 489 732 489 768 489 c 0,0,1
376 -81 m 1,12,-1
 326 37 l 1,13,14
 496 42 496 42 594 87 c 0,15,16
 700 138 700 138 700 232 c 0,17,18
 700 286 700 286 663 320 c 128,-1,19
 626 354 626 354 565 354 c 0,20,21
 451 354 451 354 188 239 c 1,22,-1
 139 364 l 1,23,24
 193 375 193 375 239 390 c 0,25,26
 245 392 245 392 260 397 c 0,27,28
 474 465 474 465 577 465 c 0,29,30
 626 465 626 465 666 453 c 1,31,32
 660 458 660 458 654 464 c 0,33,34
 606 512 606 512 606.5 578.5 c 128,-1,35
 607 645 607 645 654.5 692.5 c 128,-1,36
 702 740 702 740 768 740 c 0,37,38
 835 740 835 740 882.5 692.5 c 128,-1,39
 930 645 930 645 930 578 c 0,40,41
 930 513 930 513 883 464 c 0,42,43
 837 416 837 416 768 416 c 0,44,45
 751 416 751 416 736 419 c 1,46,47
 747 412 747 412 757 402 c 0,48,49
 825 338 825 338 825 230 c 0,50,51
 825 97 825 97 713 17 c 0,52,53
 595 -68 595 -68 376 -81 c 1,12,-1
EndSplineSet
Colour: ff00ff
EndChar

StartChar: uni30E7_uni3099.ccmp
Encoding: 74 -1 74
Width: 1000
Flags: W
LayerCount: 2
Fore
SplineSet
860 478 m 1,0,1
 851 498 851 498 823 547 c 0,2,3
 805 579 805 579 783 608 c 1,4,-1
 851 640 l 1,5,6
 898 576 898 576 930 513 c 1,7,-1
 860 478 l 1,0,1
631 -114 m 1,8,-1
 632 -76 l 1,9,-1
 453 -76 l 1,10,-1
 276 -76 l 2,11,12
 261 -76 261 -76 226 -77 c 0,13,14
 202 -78 202 -78 195 -78 c 1,15,-1
 195 40 l 1,16,17
 227 36 227 36 277 36 c 2,18,-1
 454 36 l 1,19,-1
 632 36 l 1,20,-1
 632 163 l 1,21,-1
 332 163 l 2,22,23
 312 163 312 163 268 162 c 0,24,25
 239 162 239 162 230 162 c 1,26,-1
 230 275 l 1,27,28
 266 272 266 272 332 272 c 2,29,-1
 632 272 l 1,30,-1
 632 388 l 1,31,32
 477 388 477 388 322 388 c 0,33,34
 251 388 251 388 205 384 c 1,35,-1
 205 500 l 1,36,37
 255 496 255 496 322 496 c 0,38,39
 500 496 500 496 677 496 c 0,40,41
 701 496 701 496 721 497 c 1,42,43
 719 501 719 501 717 504 c 0,44,45
 695 545 695 545 679 567 c 1,46,-1
 748 596 l 1,47,48
 785 543 785 543 822 467 c 1,49,-1
 752 434 l 1,50,51
 751 437 751 437 749 441 c 1,52,-1
 749 433 l 2,53,54
 749 192 749 192 749 -49 c 0,55,56
 749 -82 749 -82 749 -114 c 1,57,-1
 631 -114 l 1,8,-1
EndSplineSet
Colour: ff00ff
EndChar

StartChar: uni30FC_uni3099.ccmp
Encoding: 75 -1 75
Width: 1000
Flags: W
LayerCount: 2
Fore
SplineSet
116 441 m 1,0,-1
 191 571 l 1,1,2
 247 534 247 534 320 491 c 2,3,-1
 385 453 l 1,4,-1
 773 453 l 2,5,6
 822 453 822 453 854 456 c 0,7,8
 875 458 875 458 883 458 c 1,9,-1
 883 308 l 1,10,11
 876 308 876 308 857 309 c 0,12,13
 800 313 800 313 773 313 c 2,14,-1
 520 313 l 1,15,-1
 375 313 l 2,16,17
 349 313 349 313 317 331 c 2,18,-1
 250 369 l 2,19,20
 153 424 153 424 116 441 c 1,0,-1
705 495 m 1,21,22
 680 548 680 548 664 577 c 0,23,24
 644 615 644 615 618 651 c 1,25,-1
 700 687 l 1,26,27
 721 654 721 654 746 611 c 0,28,29
 774 565 774 565 789 532 c 1,30,-1
 705 495 l 1,21,22
836 548 m 1,31,32
 811 596 811 596 792 629 c 0,33,34
 771 666 771 666 745 701 c 1,35,-1
 826 740 l 1,36,37
 840 720 840 720 874 666 c 0,38,39
 906 614 906 614 917 589 c 1,40,-1
 836 548 l 1,31,32
EndSplineSet
Colour: ff00ff
EndChar

StartChar: uni3046_uni309A.ccmp
Encoding: 76 -1 76
Width: 1000
Flags: W
LayerCount: 2
Fore
SplineSet
808 542 m 0,0,1
 846 542 846 542 872 568 c 128,-1,2
 898 594 898 594 898 632 c 0,3,4
 898 668 898 668 872 694 c 0,5,6
 847 720 847 720 808 720 c 0,7,8
 774 720 774 720 746 694 c 0,9,10
 719 668 719 668 719 630 c 0,11,12
 720 592 720 592 746 568 c 0,13,14
 772 542 772 542 808 542 c 0,0,1
808 468 m 0,15,16
 742 468 742 468 694 516 c 0,17,18
 646 562 646 562 647 630 c 0,19,20
 647 630 647 630 647 631 c 0,21,22
 559 638 559 638 470 648 c 0,23,24
 354 658 354 658 258 674 c 1,25,-1
 277 790 l 1,26,27
 357 773 357 773 493 759 c 0,28,29
 618 748 618 748 696 746 c 1,30,31
 743 792 743 792 808 792 c 0,32,33
 874 792 874 792 922 744 c 128,-1,34
 970 696 970 696 970 630 c 128,-1,35
 970 564 970 564 923 516 c 128,-1,36
 876 468 876 468 808 468 c 0,15,16
331 -46 m 1,37,-1
 263 74 l 1,38,39
 647 117 647 117 647 329 c 0,40,41
 647 378 647 378 612 410 c 0,42,43
 574 444 574 444 510 444 c 0,44,45
 420 444 420 444 286 403 c 0,46,47
 272 399 272 399 266 397 c 0,48,49
 230 386 230 386 175 363 c 1,50,-1
 157 432 l 1,51,-1
 139 501 l 1,52,53
 195 506 195 506 242 517 c 0,54,55
 252 519 252 519 274 524 c 0,56,57
 432 560 432 560 525 560 c 0,58,59
 640 560 640 560 708 498 c 0,60,61
 779 435 779 435 779 324 c 0,62,63
 779 174 779 174 653 76 c 0,64,65
 533 -18 533 -18 331 -46 c 1,37,-1
EndSplineSet
Colour: ff00ff
EndChar

StartChar: uni30A6_uni309A.ccmp
Encoding: 77 -1 77
Width: 1000
Flags: W
LayerCount: 2
Fore
SplineSet
799 629 m 0,0,1
 837 630 837 630 863 655 c 0,2,3
 889 682 889 682 889 718 c 0,4,5
 889 756 889 756 863 782 c 0,6,7
 836 808 836 808 799 808 c 0,8,9
 765 808 765 808 737 782 c 0,10,11
 710 758 710 758 710 718 c 0,12,13
 710 680 710 680 736 655 c 0,14,15
 764 628 764 628 799 629 c 0,0,1
373 -53 m 1,16,-1
 275 62 l 1,17,18
 348 76 348 76 409 100 c 0,19,20
 547 154 547 154 622 264 c 0,21,22
 686 360 686 360 705 511 c 1,23,-1
 588 511 l 1,24,-1
 472 511 l 1,25,-1
 239 511 l 1,26,27
 239 441 239 441 239 370 c 0,28,29
 239 328 239 328 242 299 c 1,30,-1
 113 299 l 1,31,32
 116 323 116 323 116 380 c 0,33,34
 116 463 116 463 116 546 c 0,35,36
 116 606 116 606 113 628 c 1,37,38
 161 625 161 625 209 625 c 2,39,-1
 409 625 l 1,40,-1
 409 698 l 2,41,42
 409 738 409 738 402 786 c 1,43,-1
 547 786 l 1,44,45
 539 731 539 731 539 698 c 2,46,-1
 539 625 l 1,47,-1
 667 625 l 1,48,49
 638 666 638 666 638 718 c 0,50,51
 638 786 638 786 686 832 c 0,52,53
 734 880 734 880 799 880 c 0,54,55
 866 880 866 880 914 832 c 0,56,57
 962 786 962 786 961 718 c 0,58,59
 961 654 961 654 914 604 c 0,60,61
 894 583 894 583 869 571 c 1,62,63
 871 568 871 568 871 567 c 0,64,65
 870 563 870 563 865 560 c 0,66,67
 856 555 856 555 853 544 c 0,68,69
 852 538 852 538 850 528 c 0,70,71
 846 513 846 513 845 507 c 0,72,73
 814 341 814 341 757 235 c 0,74,75
 701 131 701 131 600 55 c 0,76,77
 500 -19 500 -19 373 -53 c 1,16,-1
EndSplineSet
Colour: ff00ff
EndChar

StartChar: uni535C
Encoding: 78 21340 78
Width: 1000
Flags: W
LayerCount: 2
Fore
SplineSet
342 -89 m 1,0,-1
 342 378 l 1,1,-1
 342 612 l 2,2,3
 342 642 342 642 342 670 c 1,4,5
 337 670 337 670 332 670 c 0,6,7
 295 670 295 670 268.5 696.5 c 128,-1,8
 242 723 242 723 242 760 c 128,-1,9
 242 797 242 797 268.5 823.5 c 128,-1,10
 295 850 295 850 332 850 c 0,11,12
 386 852 386 852 439 849 c 0,13,14
 504 845 504 845 504 836 c 1,15,16
 480 788 480 788 480 740 c 2,17,-1
 480 497 l 1,18,-1
 516 549 l 1,19,20
 523 545 523 545 539 538 c 0,21,22
 828 393 828 393 915 337 c 1,23,-1
 838 217 l 1,24,25
 757 276 757 276 480 427 c 1,26,-1
 480 -89 l 1,27,-1
 411 -89 l 1,28,-1
 342 -89 l 1,0,-1
EndSplineSet
EndChar

StartChar: u1B150
Encoding: 79 110928 79
Width: 1000
Flags: W
LayerCount: 2
Fore
SplineSet
610 -66 m 0,0,1
 546 -66 546 -66 506 -35 c 0,2,3
 463 -2 463 -2 463 57 c 0,4,5
 463 110 463 110 500.5 146.5 c 128,-1,6
 538 183 538 183 594 183 c 0,7,8
 671 183 671 183 711 129 c 1,9,10
 720 161 720 161 720 191 c 0,11,12
 720 260 720 260 676.5 301.5 c 128,-1,13
 633 343 633 343 561 343 c 2,14,-1
 541 342 l 1,15,-1
 512 256 l 2,16,17
 451 73 451 73 391 2 c 0,18,19
 352 -44 352 -44 279 -43 c 0,20,21
 237 -43 237 -43 207 -12 c 0,22,23
 174 23 174 23 174 81 c 0,24,25
 174 199 174 199 254 296 c 0,26,27
 334 394 334 394 457 428 c 1,28,-1
 476 498 l 1,29,30
 444 498 444 498 323 487 c 0,31,32
 294 485 294 485 283 484 c 1,33,-1
 277 600 l 1,34,35
 310 597 310 597 335 596 c 0,36,37
 412 592 412 592 498 600 c 0,38,39
 528 603 528 603 555 610 c 1,40,41
 629 551 629 551 624 541 c 0,42,43
 622 537 622 537 617 536 c 0,44,45
 609 534 609 534 604 525 c 0,46,47
 597 512 597 512 588 486 c 2,48,-1
 573 442 l 1,49,50
 690 438 690 438 762 369 c 0,51,52
 835 300 835 300 836 188 c 0,53,54
 836 79 836 79 780 9 c 0,55,56
 719 -66 719 -66 610 -66 c 0,0,1
599 35 m 0,57,58
 626 35 626 35 645 45 c 1,59,60
 639 74 639 74 624 88 c 0,61,62
 612 99 612 99 594 99 c 0,63,64
 579 99 579 99 568.5 90.5 c 128,-1,65
 558 82 558 82 558 67 c 0,66,67
 558 54 558 54 568 45 c 0,68,69
 581 35 581 35 599 35 c 0,57,58
295 90 m 0,70,71
 314 90 314 90 328 111 c 0,72,73
 348 138 348 138 375 200 c 0,74,75
 399 255 399 255 418 306 c 1,76,77
 357 271 357 271 313 207 c 0,78,79
 278 152 278 152 278 115 c 0,80,81
 278 104 278 104 283 97 c 128,-1,82
 288 90 288 90 295 90 c 0,70,71
EndSplineSet
Colour: ffff00
EndChar

StartChar: u1B151
Encoding: 80 110929 80
Width: 1000
Flags: W
LayerCount: 2
Fore
SplineSet
259 -73 m 1,0,-1
 158 -14 l 1,1,2
 169 -2 169 -2 196 26 c 0,3,4
 315 150 315 150 368 196 c 1,5,6
 339 223 339 223 339 261 c 0,7,8
 339 303 339 303 379 331 c 0,9,10
 417 358 417 358 471 357 c 0,11,12
 530 357 530 357 564 333 c 0,13,14
 596 310 596 310 596 275 c 0,15,16
 596 262 596 262 593 252 c 1,17,18
 660 274 660 274 660 323 c 0,19,20
 660 353 660 353 626 375 c 128,-1,21
 592 397 592 397 542 397 c 0,22,23
 466 397 466 397 408 368 c 0,24,25
 343 336 343 336 264 263 c 1,26,-1
 194 349 l 1,27,28
 196 351 196 351 202 353 c 0,29,30
 284 405 284 405 330 434 c 0,31,32
 341 441 341 441 366 455 c 0,33,34
 440 500 440 500 468 517 c 1,35,36
 463 517 463 517 450 516 c 0,37,38
 343 510 343 510 304 506 c 1,39,-1
 300 601 l 1,40,41
 324 599 324 599 377 600 c 0,42,43
 547 600 547 600 592 605 c 0,44,45
 617 608 617 608 649 617 c 1,46,-1
 710 535 l 1,47,48
 618 511 618 511 545 469 c 1,49,50
 560 471 560 471 586 471 c 0,51,52
 673 469 673 469 727 425 c 0,53,54
 777 383 777 383 777 325 c 0,55,56
 777 237 777 237 700 190 c 0,57,58
 632 148 632 148 524 149 c 0,59,60
 500 149 500 149 475 151 c 1,61,-1
 432 119 l 1,62,63
 484 112 484 112 511 66 c 1,64,65
 573 140 573 140 660 140 c 0,66,67
 728 140 728 140 782 93 c 0,68,69
 832 50 832 50 863 -26 c 1,70,-1
 744 -72 l 1,71,72
 713 40 713 40 649 40 c 0,73,74
 599 40 599 40 572 -29 c 0,75,76
 572 -31 572 -31 571 -33 c 0,77,78
 564 -55 564 -55 564 -65 c 1,79,-1
 444 -64 l 1,80,81
 443 -41 443 -41 439 -26 c 0,82,83
 432 5 432 5 413 22 c 0,84,85
 396 37 396 37 373 37 c 0,86,87
 343 37 343 37 312 4 c 0,88,89
 291 -20 291 -20 259 -73 c 1,0,-1
480 244 m 0,90,91
 496 257 496 257 497 274 c 0,92,93
 497 283 497 283 488 288.5 c 128,-1,94
 479 294 479 294 463 294 c 0,95,96
 450 294 450 294 441 288 c 0,97,98
 430 282 430 282 430 273 c 0,99,100
 430 262 430 262 441 255 c 0,101,102
 444 253 444 253 453 249 c 0,103,104
 455 248 455 248 456 248 c 0,105,106
 460 247 460 247 471 246 c 0,107,108
 477 245 477 245 480 244 c 0,90,91
EndSplineSet
Colour: ffff00
EndChar

StartChar: u1B152
Encoding: 81 110930 81
Width: 1000
Flags: W
LayerCount: 2
Fore
SplineSet
539 -68 m 0,0,1
 323 -68 323 -68 323 70 c 0,2,3
 323 139 323 139 379 197 c 0,4,5
 421 241 421 241 498 283 c 1,6,7
 484 299 484 299 457 299 c 256,8,9
 429 299 429 299 396 283 c 0,10,11
 366 268 366 268 344 247 c 0,12,13
 315 217 315 217 273 158 c 1,14,-1
 175 234 l 1,15,16
 232 287 232 287 269 332 c 0,17,18
 310 382 310 382 339 436 c 1,19,20
 268 436 268 436 211 441 c 1,21,-1
 211 551 l 1,22,23
 269 541 269 541 348 541 c 2,24,-1
 379 541 l 1,25,26
 390 590 390 590 392 626 c 1,27,28
 438 622 438 622 480 615.5 c 128,-1,29
 522 609 522 609 521 605 c 128,-1,30
 520 601 520 601 516 599 c 0,31,32
 509 595 509 595 507 586 c 0,33,34
 503 566 503 566 497 545 c 1,35,36
 620 552 620 552 703 567 c 1,37,-1
 702 458 l 1,38,39
 603 444 603 444 456 438 c 0,40,41
 454 435 454 435 451 428 c 0,42,43
 434 395 434 395 426 383 c 1,44,45
 454 390 454 390 502 390 c 0,46,47
 573 390 573 390 604 335 c 1,48,-1
 686 373 l 2,49,50
 715 386 715 386 771 413 c 0,51,52
 780 417 780 417 784 419 c 1,53,-1
 829 309 l 1,54,55
 787 298 787 298 725 272 c 0,56,57
 721 270 721 270 713 267 c 0,58,59
 654 243 654 243 618 228 c 1,60,-1
 621 97 l 1,61,-1
 511 97 l 1,62,63
 514 133 514 133 515 176 c 1,64,65
 446 135 446 135 445 90 c 0,66,67
 445 65 445 65 466.5 54.5 c 128,-1,68
 488 44 488 44 542 44 c 0,69,70
 659 44 659 44 764 68 c 1,71,-1
 761 -54 l 1,72,73
 671 -68 671 -68 539 -68 c 0,0,1
EndSplineSet
Colour: ffff00
EndChar

StartChar: u1B164
Encoding: 82 110948 82
Width: 1000
Flags: W
LayerCount: 2
Fore
SplineSet
569 -65 m 1,0,1
 571 -20 571 -20 572 7 c 2,2,-1
 572 93 l 1,3,-1
 420 93 l 1,4,-1
 269 93 l 2,5,6
 216 93 216 93 189 90 c 1,7,-1
 189 216 l 1,8,9
 222 209 222 209 269 209 c 2,10,-1
 332 209 l 1,11,-1
 332 383 l 1,12,-1
 296 383 l 2,13,14
 242 384 242 384 216 380 c 1,15,-1
 216 502 l 1,16,17
 249 495 249 495 296 495 c 2,18,-1
 434 495 l 1,19,-1
 572 495 l 1,20,-1
 572 547 l 2,21,22
 572 571 572 571 569 611 c 1,23,-1
 696 611 l 1,24,25
 694 575 694 575 693 547 c 2,26,-1
 693 495 l 1,27,-1
 750 495 l 2,28,29
 785 495 785 495 826 502 c 1,30,-1
 826 380 l 1,31,32
 803 383 803 383 750 383 c 2,33,-1
 693 383 l 1,34,-1
 693 209 l 1,35,-1
 767 209 l 2,36,37
 804 209 804 209 843 216 c 1,38,-1
 843 90 l 1,39,40
 821 92 821 92 767 93 c 2,41,-1
 693 93 l 1,42,-1
 693 9 l 2,43,44
 693 -19 693 -19 696 -65 c 1,45,-1
 569 -65 l 1,0,1
449 209 m 1,46,-1
 572 209 l 1,47,-1
 572 296 l 1,48,-1
 572 383 l 1,49,-1
 449 383 l 1,50,-1
 449 296 l 1,51,-1
 449 209 l 1,46,-1
EndSplineSet
Colour: ffff00
EndChar

StartChar: u1B165
Encoding: 83 110949 83
Width: 1000
Flags: W
LayerCount: 2
Fore
SplineSet
185 -17 m 1,0,-1
 185 122 l 1,1,2
 224 115 224 115 266 115 c 2,3,-1
 436 115 l 1,4,-1
 436 275 l 2,5,6
 436 278 436 278 436 285 c 0,7,8
 436 348 436 348 432 381 c 1,9,-1
 571 381 l 1,10,11
 565 327 565 327 565 274 c 2,12,-1
 565 115 l 1,13,-1
 772 115 l 2,14,15
 802 115 802 115 850 122 c 1,16,-1
 850 -17 l 1,17,18
 815 -12 815 -12 772 -13 c 2,19,-1
 520 -13 l 1,20,-1
 392 -13 l 1,21,-1
 266 -13 l 2,22,23
 227 -12 227 -12 185 -17 c 1,0,-1
683 250 m 1,24,-1
 582 318 l 1,25,26
 644 374 644 374 677 430 c 1,27,28
 590 430 590 430 502 430 c 0,29,30
 412 430 412 430 321 430 c 0,31,32
 274 428 274 428 225 425 c 1,33,-1
 225 554 l 1,34,35
 271 548 271 548 312 548 c 0,36,37
 412 548 412 548 512 548 c 0,38,39
 611 548 611 548 711 548 c 0,40,41
 749 548 749 548 779 558 c 1,42,43
 809 537 809 537 833 517 c 0,44,45
 859 496 859 496 857.5 493.5 c 128,-1,46
 856 491 856 491 853 491 c 0,47,48
 847 491 847 491 844 486 c 0,49,50
 837 477 837 477 834 468 c 0,51,52
 813 419 813 419 769 354 c 0,53,54
 723 288 723 288 683 250 c 1,24,-1
EndSplineSet
Colour: ffff00
EndChar

StartChar: u1B166
Encoding: 84 110950 84
Width: 1000
Flags: W
LayerCount: 2
Fore
SplineSet
391 -71 m 1,0,-1
 294 32 l 1,1,2
 393 56 393 56 475 108 c 0,3,4
 559 160 559 160 603 226 c 1,5,-1
 614 245 l 1,6,-1
 476 245 l 1,7,-1
 338 245 l 2,8,9
 292 245 292 245 255 241 c 1,10,-1
 255 360 l 1,11,12
 294 356 294 356 333 356 c 2,13,-1
 496 356 l 1,14,-1
 660 356 l 1,15,16
 669 392 669 392 678 450 c 1,17,18
 503 450 503 450 328 450 c 0,19,20
 286 450 286 450 235 446 c 1,21,-1
 235 574 l 1,22,23
 239 573 239 573 248 573 c 0,24,25
 299 567 299 567 327 567 c 0,26,27
 493 567 493 567 659 567 c 0,28,29
 711 567 711 567 741 576 c 1,30,31
 839 513 839 513 837 508 c 0,32,33
 836 506 836 506 833 505 c 0,34,35
 828 503 828 503 826 498 c 0,36,37
 821 485 821 485 819 478 c 0,38,39
 775 274 775 274 723.5 188 c 128,-1,40
 672 102 672 102 599 43 c 0,41,42
 515 -26 515 -26 391 -71 c 1,0,-1
EndSplineSet
Colour: ffff00
EndChar

StartChar: u1B167
Encoding: 85 110951 85
Width: 1000
Flags: W
LayerCount: 2
Fore
SplineSet
286 -54 m 1,0,-1
 247 9 l 1,1,-1
 207 71 l 1,2,3
 371 94 371 94 494 167 c 0,4,5
 593 225 593 225 673 312 c 0,6,7
 746 393 746 393 787 480 c 1,8,-1
 823 412 l 1,9,-1
 859 345 l 1,10,11
 813 262 813 262 734.5 184 c 128,-1,12
 656 106 656 106 560 49 c 0,13,14
 426 -31 426 -31 286 -54 c 1,0,-1
425 323 m 1,15,16
 394 357 394 357 335 410 c 0,17,18
 274 465 274 465 233 494 c 1,19,-1
 321 591 l 1,20,21
 360 565 360 565 423 512 c 0,22,23
 489 457 489 457 520 423 c 1,24,-1
 472 372 l 1,25,-1
 425 323 l 1,15,16
EndSplineSet
Colour: ffff00
EndChar

StartChar: u1B132
Encoding: 86 110898 86
Width: 1000
Flags: W
LayerCount: 2
Fore
SplineSet
509 -58 m 0,0,1
 372 -58 372 -58 303 -12 c 0,2,3
 236 33 236 33 236 119 c 0,4,5
 236 161 236 161 249 223 c 0,6,7
 251 230 251 230 251 234 c 1,8,9
 299 229 299 229 339 221 c 0,10,11
 381 213 381 213 379 208 c 0,12,13
 378 204 378 204 374 201 c 0,14,15
 367 195 367 195 365 185 c 0,16,17
 362 162 362 162 361 149 c 0,18,19
 361 114 361 114 394 93 c 0,20,21
 431 71 431 71 505 71 c 0,22,23
 661 71 661 71 777 102 c 1,24,-1
 777 35 l 1,25,-1
 778 -32 l 1,26,27
 661 -58 661 -58 509 -58 c 0,0,1
502 428 m 0,28,29
 406 428 406 428 290 437 c 1,30,-1
 290 563 l 1,31,32
 380 554 380 554 502 554 c 0,33,34
 544 554 544 554 622 557 c 0,35,36
 633 558 633 558 653 559 c 0,37,38
 709 562 709 562 732 565 c 1,39,-1
 732 438 l 1,40,41
 687 434 687 434 625 432 c 0,42,43
 541 428 541 428 502 428 c 0,28,29
EndSplineSet
Colour: ffff00
EndChar

StartChar: u1B155
Encoding: 87 110933 87
Width: 1000
Flags: W
LayerCount: 2
Fore
SplineSet
674 -40 m 1,0,-1
 675 -1 l 1,1,-1
 339 -1 l 2,2,3
 283 -1 283 -1 234 -7 c 1,4,-1
 234 129 l 1,5,6
 294 124 294 124 335 124 c 2,7,-1
 676 124 l 1,8,-1
 676 422 l 1,9,-1
 344 422 l 2,10,11
 290 422 290 422 243 419 c 1,12,-1
 243 550 l 1,13,14
 298 544 298 544 344 544 c 2,15,-1
 540 544 l 1,16,-1
 736 544 l 2,17,18
 774 544 774 544 808 547 c 1,19,20
 808 545 808 545 808 541 c 0,21,22
 806 491 806 491 806 468 c 2,23,-1
 806 265 l 1,24,-1
 806 62 l 2,25,26
 806 11 806 11 810 -40 c 1,27,-1
 674 -40 l 1,0,-1
EndSplineSet
Colour: ffff00
EndChar

StartChar: u1B11F
Encoding: 88 110879 88
Width: 1000
Flags: W
LayerCount: 2
Fore
SplineSet
423 619 m 1,0,-1
 423 725 l 1,1,2
 548 716 548 716 668 721 c 0,3,4
 774 724 774 724 870 739 c 1,5,-1
 870 632 l 1,6,7
 802 624 802 624 732 620 c 1,8,-1
 733 498 l 1,9,10
 813 503 813 503 890 515 c 1,11,-1
 890 404 l 1,12,13
 814 394 814 394 733 389 c 1,14,15
 732 320 732 320 728 275 c 0,16,17
 720 201 720 201 701 147 c 0,18,19
 658 27 658 27 528 -58 c 1,20,-1
 420 29 l 1,21,22
 491 63 491 63 529 106 c 0,23,24
 581 162 581 162 600 236 c 0,25,26
 613 290 613 290 615 385 c 1,27,28
 515 384 515 384 409 390 c 1,29,-1
 409 501 l 1,30,31
 514 492 514 492 616 493 c 1,32,33
 615 550 615 550 613 616 c 1,34,35
 519 614 519 614 423 619 c 1,0,-1
154 -35 m 1,36,37
 117 95 117 95 117 272 c 0,38,39
 117 363 117 363 132 500 c 0,40,41
 139 564 139 564 152 659 c 0,42,43
 153 669 153 669 154 674 c 0,44,45
 163 730 163 730 163 768 c 1,46,47
 214 763 214 763 258 754 c 0,48,49
 303 745 303 745 302 738 c 0,50,51
 301 733 301 733 295 730 c 0,52,53
 285 725 285 725 282 713 c 0,54,55
 281 710 281 710 280 705 c 0,56,57
 274 679 274 679 273 671 c 0,58,59
 258 604 258 604 245 496 c 0,60,61
 228 358 228 358 228 298 c 0,62,63
 228 258 228 258 232 233 c 1,64,65
 239 250 239 250 254 284.5 c 128,-1,66
 269 319 269 319 275 335 c 1,67,68
 301 313 301 313 320 290 c 0,69,70
 343 262 343 262 339 248 c 0,71,72
 336 237 336 237 326 229 c 0,73,74
 310 216 310 216 301 187 c 0,75,76
 275 107 275 107 266 57 c 0,77,78
 260 31 260 31 260 13 c 0,79,80
 261 8 261 8 261.5 -6 c 128,-1,81
 262 -20 262 -20 262 -26 c 1,82,-1
 154 -35 l 1,36,37
EndSplineSet
Colour: ffff00
EndChar

StartChar: u1B120
Encoding: 89 110880 89
Width: 1000
Flags: W
LayerCount: 2
Fore
SplineSet
903 345 m 1,0,1
 810 231 810 231 665 141 c 0,2,3
 462 15 462 15 159 -28 c 1,4,-1
 123 35 l 1,5,-1
 88 98 l 1,6,7
 217 98 217 98 341 134 c 1,8,-1
 341 474 l 1,9,-1
 341 667 l 2,10,11
 341 761 341 761 333 793 c 1,12,-1
 407 793 l 1,13,-1
 481 793 l 1,14,15
 475 747 475 747 475 667 c 2,16,-1
 475 184 l 1,17,18
 542 215 542 215 607 256 c 0,19,20
 750 347 750 347 837 454 c 1,21,-1
 903 345 l 1,0,1
EndSplineSet
Colour: ffff00
EndChar

StartChar: u1B121
Encoding: 90 110881 90
Width: 1000
Flags: W
LayerCount: 2
Fore
SplineSet
100 33 m 1,0,-1
 100 172 l 1,1,2
 153 165 153 165 193 165 c 2,3,-1
 431 165 l 1,4,-1
 431 446 l 1,5,6
 315 387 315 387 186 347 c 1,7,-1
 131 461 l 1,8,9
 216 479 216 479 317 522 c 0,10,11
 404 559 404 559 467 598 c 0,12,13
 533 640 533 640 600 699 c 0,14,15
 664 755 664 755 701 803 c 1,16,17
 738 765 738 765 765 727 c 0,18,19
 795 685 795 685 787 677 c 0,20,21
 781 671 781 671 770 670 c 0,22,23
 752 669 752 669 735 652 c 0,24,25
 654 580 654 580 563 522 c 1,26,-1
 563 165 l 1,27,-1
 812 165 l 2,28,29
 844 165 844 165 896 172 c 0,30,31
 899 172 899 172 900 172 c 1,32,-1
 900 33 l 1,33,34
 866 38 866 38 812 38 c 2,35,-1
 502 38 l 1,36,-1
 193 38 l 2,37,38
 140 38 140 38 100 33 c 1,0,-1
EndSplineSet
Colour: ffff00
EndChar

StartChar: u1B122
Encoding: 91 110882 91
Width: 1000
Flags: W
LayerCount: 2
Fore
SplineSet
219 626 m 1,0,-1
 219 750 l 1,1,2
 266 744 266 744 320 744 c 0,3,4
 415 744 415 744 510 744 c 0,5,6
 604 744 604 744 697 744 c 0,7,8
 751 744 751 744 799 750 c 1,9,-1
 799 626 l 1,10,11
 735 630 735 630 697 630 c 2,12,-1
 575 630 l 1,13,-1
 575 499 l 1,14,-1
 816 499 l 2,15,16
 864 499 864 499 901 505 c 1,17,-1
 901 380 l 1,18,19
 867 383 867 383 816 383 c 2,20,-1
 702 383 l 1,21,-1
 575 383 l 1,22,-1
 575 60 l 2,23,24
 575 -30 575 -30 477 -30 c 0,25,26
 387 -30 387 -30 324 -22 c 1,27,-1
 312 97 l 1,28,29
 367 86 367 86 417 86 c 0,30,31
 435 86 435 86 442.5 94 c 128,-1,32
 450 102 450 102 451 121 c 0,33,34
 452 150 452 150 452 383 c 1,35,-1
 329 383 l 1,36,-1
 200 383 l 2,37,38
 162 383 162 383 110 379 c 1,39,-1
 110 505 l 1,40,41
 166 499 166 499 200 499 c 2,42,-1
 452 499 l 1,43,-1
 452 630 l 1,44,-1
 320 630 l 2,45,46
 277 630 277 630 219 626 c 1,0,-1
EndSplineSet
Colour: ffff00
EndChar

StartChar: uni3057_uni309A.ccmp
Encoding: 92 -1 92
Width: 1000
Flags: W
LayerCount: 2
Fore
SplineSet
673.5 460.5 m 0,0,1
 607.5 460.5 607.5 460.5 560 508 c 128,-1,2
 512.5 555.5 512.5 555.5 512.5 622.5 c 128,-1,3
 512.5 689.5 512.5 689.5 560 737 c 128,-1,4
 607.5 784.5 607.5 784.5 673.5 784.5 c 0,5,6
 740.5 784.5 740.5 784.5 788 737 c 128,-1,7
 835.5 689.5 835.5 689.5 835.5 622.5 c 128,-1,8
 835.5 555.5 835.5 555.5 788.5 508.5 c 0,9,10
 742.5 460.5 742.5 460.5 673.5 460.5 c 0,0,1
673.5 533.5 m 0,11,12
 711.5 533.5 711.5 533.5 737.5 559.5 c 128,-1,13
 763.5 585.5 763.5 585.5 763.5 623 c 128,-1,14
 763.5 660.5 763.5 660.5 737.5 686.5 c 128,-1,15
 711.5 712.5 711.5 712.5 673.5 712.5 c 0,16,17
 637.5 712.5 637.5 712.5 611.5 686.5 c 0,18,19
 584.5 661.5 584.5 661.5 584.5 622.5 c 0,20,21
 584.5 585.5 584.5 585.5 611 559.5 c 128,-1,22
 637.5 533.5 637.5 533.5 673.5 533.5 c 0,11,12
469 -54 m 0,23,24
 349 -54 349 -54 285 1 c 0,25,26
 216 60 216 60 216 178 c 0,27,28
 216 279 216 279 221 427 c 0,29,30
 221 437 221 437 222 458 c 0,31,32
 225 606 225 606 225 642 c 0,33,34
 225 716 225 716 213 771 c 1,35,-1
 289 770 l 1,36,-1
 365 770 l 1,37,38
 355 703 355 703 352 642 c 0,39,40
 340 330 340 330 340 204 c 0,41,42
 340 75 340 75 471 75 c 0,43,44
 663 75 663 75 792 272 c 1,45,-1
 878 166 l 1,46,47
 820 79 820 79 731 22 c 0,48,49
 613 -54 613 -54 469 -54 c 0,23,24
EndSplineSet
Colour: ff00ff
EndChar

StartChar: uni3059_uni309A.ccmp
Encoding: 93 -1 93
Width: 1000
Flags: W
LayerCount: 2
Fore
SplineSet
808 629 m 0,0,1
 846 629 846 629 872 655 c 0,2,3
 898 680 898 680 898 718 c 128,-1,4
 898 756 898 756 872 782 c 0,5,6
 844 809 844 809 808 808 c 0,7,8
 774 807 774 807 746 782 c 0,9,10
 720 758 720 758 719 718 c 0,11,12
 718 681 718 681 746 655 c 0,13,14
 772 629 772 629 808 629 c 0,0,1
453 242 m 0,15,16
 488 242 488 242 503 267 c 0,17,18
 523 299 523 299 514 356 c 1,19,20
 495 390 495 390 452 390 c 0,21,22
 423 390 423 390 403 371 c 0,23,24
 381 351 381 351 381 314 c 0,25,26
 381 282 381 282 403 262 c 0,27,28
 423 242 423 242 453 242 c 0,15,16
342 -71 m 1,29,-1
 292 -20 l 1,30,-1
 242 31 l 1,31,32
 407 67 407 67 473 141 c 1,33,34
 451 136 451 136 430 136 c 0,35,36
 369 136 369 136 321 180 c 0,37,38
 267 230 267 230 267 312 c 0,39,40
 267 391 267 391 323 443 c 0,41,42
 377 492 377 492 456 492 c 0,43,44
 475 492 475 492 493 489 c 1,45,-1
 492 554 l 1,46,47
 310 551 310 551 88 538 c 1,48,-1
 85 654 l 1,49,50
 151 655 151 655 328 658 c 0,51,52
 441 660 441 660 491 661 c 1,53,-1
 490 691 l 2,54,55
 489 735 489 735 481 774 c 1,56,-1
 549 774 l 1,57,-1
 617 774 l 1,58,59
 610 744 610 744 610 700 c 0,60,61
 610 694 610 694 610 692 c 2,62,-1
 609 662 l 1,63,-1
 657 662 l 1,64,65
 648 688 648 688 647 718 c 0,66,67
 646 784 646 784 694 832 c 0,68,69
 744 880 744 880 808 880 c 0,70,71
 876 878 876 878 922 832 c 0,72,73
 970 784 970 784 970 718 c 0,74,75
 970 653 970 653 923 604 c 0,76,77
 904 585 904 585 881 573 c 1,78,-1
 881 549 l 1,79,80
 786 554 786 554 608 554 c 1,81,-1
 609 412 l 1,82,83
 645 358 645 358 645 279 c 0,84,85
 645 169 645 169 580 81 c 0,86,87
 501 -25 501 -25 342 -71 c 1,29,-1
EndSplineSet
Colour: ff00ff
EndChar

StartChar: uni305D_uni309A.ccmp
Encoding: 94 -1 94
Width: 1000
Flags: W
LayerCount: 2
Fore
SplineSet
782 488 m 128,-1,1
 818 488 818 488 846 514 c 0,2,3
 872 538 872 538 872 578 c 0,4,5
 872 614 872 614 846 642 c 0,6,7
 822 668 822 668 782 668 c 0,8,9
 748 668 748 668 720 642 c 0,10,11
 694 618 694 618 692 578 c 0,12,13
 692 540 692 540 719 514 c 128,-1,0
 746 488 746 488 782 488 c 128,-1,1
414 4 m 0,14,15
 314 62 314 62 314 180 c 0,16,17
 314 223 314 223 335 266 c 0,18,19
 354 305 354 305 382 332 c 1,20,21
 256 322 256 322 97 293 c 1,22,-1
 85 410 l 1,23,24
 124 413 124 413 215 425 c 0,25,26
 239 428 239 428 250 429 c 1,27,28
 345 491 345 491 515 647 c 1,29,30
 496 646 496 646 419 641.5 c 128,-1,31
 342 637 342 637 322 635 c 0,32,33
 309 634 309 634 278 630 c 0,34,35
 251 627 251 627 238 626 c 1,36,-1
 232 749 l 1,37,38
 261 746 261 746 321 746 c 0,39,40
 357 746 357 746 452 751 c 0,41,42
 556 756 556 756 596 761 c 0,43,44
 627 764 627 764 661 772 c 1,45,46
 683 745 683 745 702 718 c 1,47,48
 738 740 738 740 782 740 c 0,49,50
 848 740 848 740 896 692 c 0,51,52
 944 646 944 646 944 578 c 0,53,54
 944 514 944 514 896 464 c 0,55,56
 868 436 868 436 834 423 c 1,57,-1
 834 356 l 1,58,59
 670 365 670 365 592 354 c 0,60,61
 526 344 526 344 480 302 c 0,62,63
 433 258 433 258 433 200 c 0,64,65
 433 146 433 146 473 118 c 0,66,67
 508 93 508 93 576 85 c 0,68,69
 647 77 647 77 719 83 c 1,70,-1
 695 -44 l 1,71,72
 510 -52 510 -52 414 4 c 0,14,15
667 464 m 1,73,74
 620 510 620 510 620 578 c 0,75,76
 620 589 620 589 622 599 c 1,77,78
 594 576 594 576 554 543 c 0,79,80
 471 473 471 473 437 446 c 1,81,82
 552 457 552 457 639 462 c 0,83,84
 653 463 653 463 667 464 c 1,73,74
EndSplineSet
Colour: ff00ff
EndChar

StartChar: uni30B7_uni309A.ccmp
Encoding: 95 -1 95
Width: 1000
Flags: W
LayerCount: 2
Fore
SplineSet
784 595 m 0,0,1
 822 595 822 595 848 621 c 128,-1,2
 874 647 874 647 874 684.5 c 128,-1,3
 874 722 874 722 848 748 c 128,-1,4
 822 774 822 774 784 774 c 0,5,6
 750 774 750 774 722 748 c 0,7,8
 695 723 695 723 695 684 c 0,9,10
 695 647 695 647 721.5 621 c 128,-1,11
 748 595 748 595 784 595 c 0,0,1
784 522 m 0,12,13
 718 522 718 522 670.5 569.5 c 128,-1,14
 623 617 623 617 623 684 c 128,-1,15
 623 751 623 751 670.5 798.5 c 128,-1,16
 718 846 718 846 784 846 c 0,17,18
 851 846 851 846 898.5 798.5 c 128,-1,19
 946 751 946 751 946 684 c 0,20,21
 946 619 946 619 899 570 c 0,22,23
 871 540 871 540 834 529 c 1,24,-1
 854 491 l 1,25,-1
 891 426 l 1,26,27
 762 225 762 225 518 80 c 0,28,29
 448 41 448 41 356 7 c 0,30,31
 269 -25 269 -25 204 -38 c 1,32,-1
 168 25 l 1,33,-1
 133 88 l 1,34,35
 315 119 315 119 453 196 c 0,36,37
 572 264 572 264 668 359 c 0,38,39
 747 437 747 437 800 523 c 1,40,41
 792 522 792 522 784 522 c 0,12,13
452 527 m 1,42,43
 419 551 419 551 349 596 c 0,44,45
 288 636 288 636 240 664 c 1,46,-1
 307 770 l 1,47,48
 353 743 353 743 419 701 c 0,49,50
 479 663 479 663 522 632 c 1,51,-1
 452 527 l 1,42,43
309 308 m 1,52,53
 278 330 278 330 206 378 c 0,54,55
 200 382 200 382 188 389 c 0,56,57
 122 431 122 431 95 445 c 1,58,-1
 163 551 l 1,59,60
 192 536 192 536 264 491 c 0,61,62
 272 486 272 486 276 483 c 0,63,64
 344 441 344 441 378 415 c 1,65,-1
 309 308 l 1,52,53
EndSplineSet
Colour: ff00ff
EndChar

StartChar: uni30B9_uni309A.ccmp
Encoding: 96 -1 96
Width: 1000
Flags: W
LayerCount: 2
Fore
SplineSet
808 629 m 0,0,1
 846 630 846 630 872 655 c 0,2,3
 898 682 898 682 898 718 c 0,4,5
 898 756 898 756 872 782 c 128,-1,6
 846 808 846 808 808 808 c 0,7,8
 774 808 774 808 746 782 c 0,9,10
 718 757 718 757 719 718 c 0,11,12
 720 680 720 680 746 655 c 0,13,14
 774 628 774 628 808 629 c 0,0,1
770 -52 m 1,15,16
 679 76 679 76 533 219 c 1,17,18
 362 37 362 37 179 -49 c 1,19,-1
 131 2 l 1,20,-1
 83 54 l 1,21,22
 190 95 190 95 299 176 c 0,23,24
 397 248 397 248 468 330 c 0,25,26
 515 384 515 384 553.5 449 c 128,-1,27
 592 514 592 514 608 565 c 1,28,29
 449 565 449 565 289 565 c 0,30,31
 262 565 262 565 204 560 c 0,32,33
 185 558 185 558 179 558 c 1,34,-1
 179 695 l 1,35,36
 223 688 223 688 289 688 c 0,37,38
 455 688 455 688 621 688 c 0,39,40
 636 688 636 688 650 689 c 1,41,42
 647 703 647 703 647 718 c 0,43,44
 648 786 648 786 694 832 c 0,45,46
 742 880 742 880 808 880 c 0,47,48
 876 880 876 880 922 832 c 0,49,50
 970 786 970 786 970 718 c 0,51,52
 970 654 970 654 923 604 c 0,53,54
 878 557 878 557 808 556 c 0,55,56
 779 556 779 556 755 564 c 1,57,58
 695 428 695 428 615 318 c 1,59,60
 680 261 680 261 760 176 c 0,61,62
 830 102 830 102 877 44 c 1,63,-1
 823 -4 l 1,64,-1
 770 -52 l 1,15,16
EndSplineSet
Colour: ff00ff
EndChar

StartChar: uni30BD_uni309A.ccmp
Encoding: 97 -1 97
Width: 1000
Flags: W
LayerCount: 2
Fore
SplineSet
798 629 m 0,0,1
 836 630 836 630 862 655 c 0,2,3
 888 682 888 682 888 718 c 0,4,5
 888 756 888 756 862 782 c 128,-1,6
 836 808 836 808 798 808 c 0,7,8
 764 808 764 808 736 782 c 0,9,10
 708 757 708 757 709 718 c 0,11,12
 710 680 710 680 736 655 c 0,13,14
 764 628 764 628 798 629 c 0,0,1
262 354 m 1,15,16
 227 433 227 433 181 514 c 0,17,18
 136 597 136 597 103 644 c 1,19,-1
 225 707 l 1,20,21
 284 620 284 620 386 426 c 1,22,-1
 324 389 l 1,23,-1
 262 354 l 1,15,16
356 -53 m 1,24,-1
 300 -4 l 1,25,-1
 243 45 l 1,26,27
 454 137 454 137 564 303 c 0,28,29
 634 408 634 408 666 554 c 0,30,31
 673 586 673 586 677 612 c 1,32,33
 637 659 637 659 637 718 c 0,34,35
 638 786 638 786 684 832 c 0,36,37
 732 880 732 880 798 880 c 0,38,39
 866 880 866 880 912 832 c 0,40,41
 960 786 960 786 960 718 c 0,42,43
 960 654 960 654 913 604 c 0,44,45
 871 560 871 560 807 556 c 1,46,47
 804 543 804 543 802 535 c 0,48,49
 757 354 757 354 678 233 c 0,50,51
 565 58 565 58 356 -53 c 1,24,-1
EndSplineSet
Colour: ff00ff
EndChar

StartChar: uni3057.salt
Encoding: 98 -1 98
Width: 1000
Flags: W
LayerCount: 2
Fore
SplineSet
484 -49 m 0,0,1
 362 -49 362 -49 299 6 c 0,2,3
 230 66 230 66 230 184 c 0,4,5
 231 224 231 224 231 271 c 0,6,7
 231 300 231 300 230.5 329.5 c 128,-1,8
 230 359 230 359 229 392 c 0,9,10
 229 467 229 467 216 521 c 1,11,-1
 292 520 l 1,12,-1
 368 519 l 1,13,14
 361 468 361 468 358 396 c 0,15,16
 351 213 351 213 351 151 c 0,17,18
 352 81 352 81 485 81 c 0,19,20
 681 81 681 81 806 277 c 1,21,-1
 892 171 l 1,22,23
 835 84 835 84 746 27 c 0,24,25
 628 -49 628 -49 484 -49 c 0,0,1
332 611 m 4,27,28
 269 656 269 656 205 691 c 1,29,-1
 274 797 l 1,30,31
 324 772 324 772 405 717 c 0,32,33
 427 702 427 702 500 648 c 1,34,-1
 428 541 l 1,35,36
 369 585 369 585 332 611 c 4,27,28
EndSplineSet
Colour: ffff00
EndChar

StartChar: uni3058.salt
Encoding: 99 -1 99
Width: 1000
Flags: W
LayerCount: 2
Fore
SplineSet
612 501 m 1,0,1
 587 554 587 554 571 583 c 0,2,3
 551 621 551 621 525 657 c 1,4,-1
 607 693 l 1,5,6
 628 660 628 660 653 617 c 0,7,8
 681 571 681 571 696 538 c 1,9,-1
 612 501 l 1,0,1
743 554 m 1,10,11
 718 602 718 602 699 635 c 0,12,13
 678 672 678 672 652 707 c 1,14,-1
 733 746 l 1,15,16
 747 726 747 726 781 672 c 0,17,18
 813 620 813 620 824 595 c 1,19,-1
 743 554 l 1,10,11
484 -49 m 0,20,21
 362 -49 362 -49 299 6 c 0,22,23
 230 66 230 66 230 184 c 0,24,25
 231 224 231 224 231 271 c 0,26,27
 231 300 231 300 230.5 329.5 c 128,-1,28
 230 359 230 359 229 392 c 0,29,30
 229 467 229 467 216 521 c 1,31,-1
 292 520 l 1,32,-1
 368 519 l 1,33,34
 361 468 361 468 358 396 c 0,35,36
 351 213 351 213 351 151 c 0,37,38
 352 81 352 81 485 81 c 0,39,40
 681 81 681 81 806 277 c 1,41,-1
 892 171 l 1,42,43
 835 84 835 84 746 27 c 0,44,45
 628 -49 628 -49 484 -49 c 0,20,21
332 611 m 0,46,47
 269 656 269 656 205 691 c 1,48,-1
 274 797 l 1,49,50
 324 772 324 772 405 717 c 0,51,52
 427 702 427 702 500 648 c 1,53,-1
 428 541 l 1,54,55
 369 585 369 585 332 611 c 0,46,47
EndSplineSet
Colour: ffff00
EndChar

StartChar: uni305D.salt
Encoding: 100 -1 100
Width: 1000
Flags: W
LayerCount: 2
Fore
SplineSet
443 4 m 0,1,2
 342 62 342 62 342 180 c 0,3,4
 342 222 342 222 363 265 c 0,5,6
 382 305 382 305 411 332 c 1,7,8
 268 319 268 319 125 293 c 1,9,-1
 114 410 l 1,10,11
 150 413 150 413 238 424 c 0,12,13
 266 427 266 427 279 429 c 1,14,15
 369 488 369 488 543 647 c 1,16,17
 543 647 543 647 689 772 c 1,18,19
 718 738 718 738 740 704 c 0,20,21
 762 669 762 669 757.5 665.5 c 128,-1,22
 753 662 753 662 746 663 c 0,23,24
 736 666 736 666 726 659 c 0,25,26
 700 641 700 641 689 631 c 0,27,28
 659 607 659 607 590 549 c 0,29,30
 501 474 501 474 465 446 c 1,31,32
 579 457 579 457 668 462 c 0,33,34
 789 469 789 469 862 469 c 1,35,-1
 862 356 l 1,36,37
 698 365 698 365 620 353 c 0,38,39
 554 344 554 344 509 302 c 0,40,41
 462 258 462 258 462 200 c 0,42,43
 462 102 462 102 604 85 c 0,44,45
 680 76 680 76 748 82 c 1,46,-1
 723 -44 l 1,47,0
 541 -52 541 -52 443 4 c 0,1,2
367 574 m 1,48,49
 324 617 324 617 298 639 c 0,50,51
 274 660 274 660 224 701 c 1,52,-1
 302 789 l 1,53,54
 339 762 339 762 385 723 c 0,55,56
 423 690 423 690 448 662 c 1,57,-1
 367 574 l 1,48,49
EndSplineSet
Colour: ffff00
EndChar

StartChar: uni305E.salt
Encoding: 101 -1 101
Width: 1000
Flags: W
LayerCount: 2
Fore
SplineSet
763 640 m 1,0,1
 750 673 750 673 735 699 c 0,2,3
 722 724 722 724 701 756 c 1,4,-1
 770 786 l 1,5,6
 782 769 782 769 804 731 c 0,7,8
 819 704 819 704 834 672 c 1,9,-1
 763 640 l 1,0,1
872 685 m 1,10,11
 857 716 857 716 841 744 c 0,12,13
 823 773 823 773 805 797 c 1,14,-1
 874 830 l 1,15,16
 898 796 898 796 910 775 c 0,17,18
 931 742 931 742 942 717 c 1,19,-1
 872 685 l 1,10,11
434 -18 m 0,20,21
 333 40 333 40 333 158 c 0,22,23
 333 200 333 200 354 243 c 0,24,25
 373 283 373 283 402 310 c 1,26,27
 259 297 259 297 116 271 c 1,28,-1
 105 388 l 1,29,30
 141 393 141 393 229 402 c 0,31,32
 257 405 257 405 270 407 c 1,33,34
 360 466 360 466 534 625 c 1,35,36
 534 625 534 625 658 733 c 1,37,38
 687 699 687 699 709 665 c 0,39,40
 730 630 730 630 726 626 c 0,41,42
 720 622 720 622 715 624 c 0,43,44
 705 627 705 627 695 620 c 0,45,46
 670 601 670 601 643 579.5 c 128,-1,47
 616 558 616 558 554 505 c 128,-1,48
 492 452 492 452 456 424 c 1,49,50
 570 435 570 435 659 440 c 0,51,52
 780 447 780 447 853 447 c 1,53,-1
 853 334 l 1,54,55
 696 343 696 343 611 331 c 0,56,57
 545 322 545 322 500 280 c 0,58,59
 453 236 453 236 453 178 c 0,60,61
 453 80 453 80 595 63 c 0,62,63
 671 54 671 54 739 60 c 1,64,-1
 714 -66 l 1,65,66
 532 -74 532 -74 434 -18 c 0,20,21
358 550 m 5,67,68
 306 602 306 602 289 617 c 0,69,70
 265 638 265 638 215 679 c 1,71,-1
 293 767 l 1,72,73
 330 740 330 740 376 701 c 0,74,75
 409 672 409 672 439 638 c 1,76,-1
 358 550 l 5,67,68
EndSplineSet
Colour: ffff00
EndChar

StartChar: uni30CD.hist
Encoding: 102 -1 102
Width: 1000
Flags: W
LayerCount: 2
Fore
SplineSet
819 653 m 1,0,1
 716 539 716 539 562 444 c 1,2,-1
 562 412 l 1,3,-1
 706 412 l 2,4,5
 778 412 778 412 870 419 c 1,6,-1
 873 412 l 2,7,8
 877 405 877 405 877 358 c 0,9,10
 877 297 877 297 873 291 c 1,11,-1
 870 284 l 1,12,13
 800 291 800 291 706 291 c 2,14,-1
 562 291 l 1,15,-1
 562 110 l 2,16,17
 562 66 562 66 549.5 40.5 c 128,-1,18
 537 15 537 15 499.5 -0.5 c 128,-1,19
 462 -16 462 -16 355 -15 c 1,20,21
 355 -15 355 -15 326 -15 c 1,22,23
 313 45 313 45 286 90 c 1,24,-1
 274 109 l 1,25,26
 352 106 352 106 430 105 c 1,27,-1
 439 107 l 1,28,29
 439 107 439 107 439 291 c 1,30,31
 439 291 439 291 330.5 291 c 128,-1,32
 222 291 222 291 131 284 c 1,33,-1
 128 291 l 2,34,35
 124 298 124 298 124 345 c 0,36,37
 124 406 124 406 128 412 c 1,38,-1
 131 419 l 1,39,40
 200 412 200 412 294 412 c 2,41,-1
 439 412 l 1,42,-1
 439 539 l 1,43,-1
 451 539 l 1,44,-1
 497 539 l 1,45,46
 537 563 537 563 577 594 c 1,47,-1
 318 594 l 2,48,49
 275 594 275 594 215 590 c 1,50,51
 208 599 208 599 208 613 c 0,52,53
 208 626 208 626 207 660 c 0,54,55
 207 708 207 708 211 712 c 1,56,-1
 215 719 l 1,57,58
 276 713 276 713 342 713 c 2,59,-1
 707 713 l 1,60,-1
 727 718 l 1,61,-1
 733 719 l 1,62,-1
 819 653 l 1,0,1
EndSplineSet
Colour: ffff00
EndChar

StartChar: uni30F0.hist
Encoding: 103 -1 103
Width: 1000
Flags: W
LayerCount: 2
Fore
SplineSet
222 243 m 2,0,1
 198 243 198 243 143 239 c 1,2,3
 136 246 136 246 135 251 c 0,4,5
 133 260 133 260 133 302 c 0,6,7
 133 355 133 355 138 363 c 2,8,-1
 142 369 l 1,9,10
 183 364 183 364 231 364 c 2,11,-1
 303 364 l 1,12,13
 306 399 306 399 306 447 c 2,14,-1
 306 494 l 1,15,-1
 243 494 l 2,16,17
 218 494 218 494 165 490 c 1,18,19
 158 497 158 497 158 502 c 2,20,21
 158 502 158 502 156.5 514.5 c 128,-1,22
 155 527 155 527 155 560.5 c 128,-1,23
 155 594 155 594 156 600 c 0,24,25
 158 610 158 610 165 618 c 1,26,27
 207 614 207 614 243 615 c 1,28,-1
 306 615 l 1,29,-1
 306 678 l 2,30,31
 306 712 306 712 302 767 c 1,32,33
 329 768 329 768 348 768 c 0,34,35
 431 768 431 768 444 755 c 0,36,37
 448 751 448 751 448 744 c 2,38,-1
 448 741 l 1,39,40
 429 706 429 706 429 674 c 2,41,-1
 429 615 l 1,42,-1
 579 615 l 1,43,-1
 579 679 l 2,44,45
 579 714 579 714 575 768 c 1,46,47
 602 769 602 769 621 770 c 0,48,49
 704 770 704 770 717 756 c 0,50,51
 721 752 721 752 722 746 c 1,52,-1
 722 743 l 1,53,54
 703 708 703 708 703 675 c 2,55,-1
 703 615 l 1,56,-1
 763 615 l 2,57,58
 787 615 787 615 838 618 c 1,59,60
 845 611 845 611 846 606 c 0,61,62
 848 596 848 596 848 555 c 128,-1,63
 848 514 848 514 847 508 c 0,64,65
 845 498 845 498 838 490 c 1,66,67
 798 494 798 494 763 494 c 2,68,-1
 703 494 l 1,69,-1
 703 364 l 1,70,-1
 773 364 l 2,71,72
 808 364 808 364 860 369 c 1,73,74
 867 358 867 358 868 344.5 c 0,75,76
 869 330 869 330 869 296 c 0,77,78
 869 250 869 250 864 243 c 2,79,-1
 860 238 l 1,80,81
 820 243 820 243 773 243 c 2,82,-1
 703 243 l 1,83,-1
 703 129 l 2,84,85
 703 58 703 58 709 -1 c 1,86,87
 700 -10 700 -10 685 -11.5 c 128,-1,88
 670 -13 670 -13 635.5 -13 c 128,-1,89
 601 -13 601 -13 592 -10.5 c 128,-1,90
 583 -8 583 -8 581 -6 c 128,-1,91
 579 -4 579 -4 576 1 c 1,92,93
 580 35 580 35 579 66 c 1,94,-1
 579 243 l 1,95,-1
 412 243 l 1,96,97
 374 77 374 77 249 -13 c 1,98,-1
 240 -19 l 1,99,100
 197 32 197 32 151 57 c 1,101,-1
 134 66 l 1,102,-1
 150 77 l 1,103,104
 244 140 244 140 280 243 c 1,105,-1
 222 243 l 2,0,1
429 494 m 1,106,-1
 429 447 l 2,107,108
 429 406 429 406 427 364 c 1,109,-1
 579 364 l 1,110,-1
 579 494 l 1,111,-1
 429 494 l 1,106,-1
EndSplineSet
Colour: ffff00
EndChar

StartChar: uni30F8.hist
Encoding: 104 -1 104
Width: 1000
Flags: W
LayerCount: 2
Fore
SplineSet
776 638 m 1,0,1
 772 653 772 653 761 684 c 0,2,3
 757 696 757 696 755 701.5 c 128,-1,4
 753 707 753 707 749 718 c 0,5,6
 736 751 736 751 728 765 c 1,7,-1
 792 785 l 1,8,9
 800 770 800 770 815 733 c 0,10,11
 818 726 818 726 819 722 c 0,12,13
 834 686 834 686 841 660 c 1,14,-1
 776 638 l 1,0,1
876 669 m 2,15,16
 875 672 875 672 873 678 c 0,17,18
 861 715 861 715 853 734 c 0,19,20
 843 762 843 762 825 796 c 1,21,-1
 889 816 l 1,22,23
 901 792 901 792 917 753 c 0,24,25
 930 723 930 723 941 690 c 1,26,-1
 876 669 l 2,15,16
210 236 m 2,27,28
 186 236 186 236 131 232 c 1,29,30
 124 239 124 239 123 244 c 0,31,32
 121 253 121 253 121 295 c 0,33,34
 121 349 121 349 126 356 c 2,35,-1
 130 362 l 1,36,37
 171 357 171 357 219 357 c 2,38,-1
 291 357 l 1,39,40
 294 392 294 392 294 440 c 2,41,-1
 294 487 l 1,42,-1
 231 487 l 2,43,44
 206 487 206 487 153 483 c 1,45,46
 147 489 147 489 146 495 c 2,47,48
 146 495 146 495 144.5 507.5 c 128,-1,49
 143 520 143 520 143 553.5 c 128,-1,50
 143 587 143 587 144 593 c 0,51,52
 146 603 146 603 153 611 c 1,53,54
 195 607 195 607 231 608 c 1,55,-1
 294 608 l 1,56,-1
 294 671 l 2,57,58
 294 705 294 705 290 760 c 1,59,60
 317 761 317 761 336 761 c 0,61,62
 419 761 419 761 432 748 c 0,63,64
 436 744 436 744 436 737 c 2,65,-1
 436 734 l 1,66,67
 417 699 417 699 417 667 c 2,68,-1
 417 608 l 1,69,-1
 567 608 l 1,70,-1
 567 672 l 2,71,72
 567 707 567 707 563 761 c 1,73,74
 590 762 590 762 609 763 c 0,75,76
 692 763 692 763 705 749 c 0,77,78
 709 745 709 745 710 739 c 1,79,-1
 710 736 l 1,80,81
 691 701 691 701 691 668 c 2,82,-1
 691 608 l 1,83,-1
 751 608 l 2,84,85
 775 608 775 608 826 611 c 1,86,87
 833 604 833 604 834 599 c 0,88,89
 836 589 836 589 836 548 c 128,-1,90
 836 507 836 507 835 501 c 0,91,92
 833 491 833 491 826 483 c 1,93,94
 786 487 786 487 751 487 c 2,95,-1
 691 487 l 1,96,-1
 691 357 l 1,97,-1
 761 357 l 2,98,99
 796 357 796 357 848 362 c 1,100,101
 855 352 855 352 856 338 c 0,102,103
 857 324 857 324 857 289 c 0,104,105
 857 242 857 242 852 236 c 2,106,-1
 848 231 l 1,107,108
 808 236 808 236 761 236 c 2,109,-1
 691 236 l 1,110,-1
 691 122 l 2,111,112
 691 51 691 51 697 -8 c 1,113,114
 688 -17 688 -17 673 -18.5 c 128,-1,115
 658 -20 658 -20 623.5 -20 c 128,-1,116
 589 -20 589 -20 580 -17.5 c 128,-1,117
 571 -15 571 -15 569 -13 c 128,-1,118
 567 -11 567 -11 564 -6 c 1,119,120
 568 28 568 28 567 59 c 1,121,-1
 567 236 l 1,122,-1
 400 236 l 1,123,124
 362 70 362 70 237 -20 c 1,125,-1
 228 -26 l 1,126,127
 185 25 185 25 139 50 c 1,128,-1
 122 59 l 1,129,-1
 138 70 l 1,130,131
 232 133 232 133 268 236 c 1,132,-1
 210 236 l 2,27,28
417 487 m 1,133,-1
 417 440 l 2,134,135
 417 399 417 399 415 357 c 1,136,-1
 567 357 l 1,137,-1
 567 487 l 1,138,-1
 417 487 l 1,133,-1
EndSplineSet
Colour: ffff00
EndChar

StartChar: u1B000
Encoding: 105 110592 105
Width: 1000
Flags: W
LayerCount: 2
Fore
SplineSet
167 587 m 1,0,1
 238 579 238 579 285 579 c 2,2,-1
 444 579 l 1,3,-1
 444 694 l 2,4,5
 444 746 444 746 439 773 c 1,6,-1
 435 802 l 1,7,-1
 580 802 l 1,8,-1
 575 773 l 2,9,10
 570 741 570 741 570 694 c 2,11,-1
 570 579 l 1,12,-1
 751 579 l 2,13,14
 780 579 780 579 792 584 c 2,15,-1
 804 590 l 1,16,-1
 889 536 l 1,17,18
 869 500 869 500 868 496 c 1,19,-1
 868 493 l 1,20,21
 826 408 826 408 785 339 c 128,-1,22
 744 270 744 270 669 192 c 1,23,24
 590 114 590 114 507.5 67.5 c 128,-1,25
 425 21 425 21 245 -36 c 1,26,-1
 230 -41 l 1,27,-1
 134 67 l 1,28,-1
 173 78 l 2,29,30
 357 129 357 129 431 168.5 c 128,-1,31
 505 208 505 208 570 270 c 0,32,33
 637 337 637 337 663 376.5 c 128,-1,34
 689 416 689 416 711 459 c 1,35,-1
 285 459 l 2,36,37
 268 459 268 459 167 455 c 1,38,-1
 167 587 l 1,0,1
EndSplineSet
Colour: ffbf00
EndChar

StartChar: u1B001
Encoding: 106 110593 106
Width: 1000
Flags: W
LayerCount: 2
Fore
SplineSet
353 272 m 0,0,1
 319 206 319 206 298.5 137.5 c 128,-1,2
 278 69 278 69 278 52.5 c 128,-1,3
 278 36 278 36 284 -11 c 1,4,-1
 175 -24 l 1,5,-1
 168 -5 l 1,6,7
 153 41 153 41 135.5 124.5 c 128,-1,8
 118 208 118 208 117 302 c 1,9,10
 47 78 47 78 117 302 c 1,11,12
 118 419 118 419 134 535 c 2,13,-1
 138 563 l 1,14,-1
 262 528 l 1,15,-1
 257 505 l 1,16,17
 231 394 231 394 239 278 c 1,18,-1
 265 342 l 1,19,20
 323 461 323 461 390 535 c 1,21,22
 471 637 471 637 591 678 c 1,23,24
 657 698 657 698 714.5 698 c 128,-1,25
 772 698 772 698 823.5 679 c 128,-1,26
 875 660 875 660 899 614 c 0,27,28
 918 578 918 578 917 529 c 0,29,30
 917 512 917 512 915 492 c 0,31,32
 903 387 903 387 851 312.5 c 128,-1,33
 799 238 799 238 724 172 c 1,34,35
 724 172 724 172 714 162 c 1,36,37
 714 162 714 162 901 154 c 1,38,-1
 929 154 l 1,39,-1
 913 28 l 1,40,41
 784 40 784 40 679 40 c 128,-1,42
 574 40 574 40 510 39 c 1,43,-1
 410 35 l 1,44,-1
 390 153 l 1,45,46
 488 158 488 158 495.5 159 c 128,-1,47
 503 160 503 160 540 180.5 c 128,-1,48
 577 201 577 201 637 257.5 c 128,-1,49
 697 314 697 314 737.5 371.5 c 128,-1,50
 778 429 778 429 788 506 c 1,51,52
 788 506 788 506 788 520 c 128,-1,53
 788 534 788 534 780 546 c 0,54,55
 766 568 766 568 720.5 568 c 128,-1,56
 675 568 675 568 629 554 c 0,57,58
 558 529 558 529 486 457.5 c 128,-1,59
 414 386 414 386 353 272 c 0,0,1
216 641 m 1,60,61
 179 658 179 658 127 677 c 1,62,-1
 94 688 l 1,63,-1
 168 786 l 1,64,65
 308 738 308 738 358 704 c 1,66,-1
 391 633 l 1,67,68
 311 593 311 593 260 566 c 1,69,-1
 248 572 l 1,70,-1
 211 592 l 1,71,-1
 176 610 l 1,72,73
 211 637 211 637 216 641 c 1,60,61
EndSplineSet
Colour: ffbf00
EndChar

StartChar: u1B002
Encoding: 107 110594 107
Width: 1000
Flags: W
LayerCount: 2
Fore
SplineSet
885 570 m 2,0,1
 885 570 885 570 885 567 c 0,2,3
 878 481 878 481 772 446 c 2,4,-1
 757 441 l 1,5,-1
 705 493 l 1,6,7
 689 454 689 454 683 439 c 1,8,9
 780 414 780 414 840.5 353.5 c 128,-1,10
 901 293 901 293 902 204 c 1,11,-1
 902 203 l 1,12,13
 899 111 899 111 838 39.5 c 128,-1,14
 777 -32 777 -32 620 -88 c 2,15,-1
 603 -94 l 1,16,-1
 523 8 l 1,17,-1
 561 17 l 1,18,19
 670 44 670 44 726 94.5 c 128,-1,20
 782 145 782 145 782 198 c 2,21,-1
 782 199 l 1,22,23
 783 206 783 206 783 211 c 0,24,25
 783 253 783 253 744 287.5 c 128,-1,26
 705 322 705 322 642 338 c 1,27,-1
 633 316 l 1,28,29
 604 238 604 238 563 186.5 c 128,-1,30
 522 135 522 135 474 94 c 1,31,32
 481 70 481 70 496 21 c 1,33,-1
 384 -12 l 1,34,35
 373 19 373 19 370 26 c 1,36,37
 344 15 344 15 309.5 3 c 128,-1,38
 275 -9 275 -9 228.5 -9 c 128,-1,39
 182 -9 182 -9 145.5 23.5 c 128,-1,40
 109 56 109 56 107 119 c 1,41,-1
 107 120 l 1,42,43
 108 183 108 183 139.5 237.5 c 128,-1,44
 171 292 171 292 219 334.5 c 128,-1,45
 267 377 267 377 322 402 c 1,46,47
 325 470 325 470 337 538 c 1,48,49
 189 505 189 505 173 494 c 2,50,-1
 147 475 l 1,51,-1
 96 609 l 1,52,-1
 121 616 l 2,53,54
 135 620 135 620 164 624 c 128,-1,55
 193 628 193 628 235 638 c 128,-1,56
 277 648 277 648 366 665 c 1,57,58
 379 710 379 710 384 731 c 1,59,60
 394 756 394 756 396 770 c 2,61,-1
 401 796 l 1,62,-1
 541 762 l 1,63,-1
 514 731 l 2,64,65
 510 726 510 726 504.5 711.5 c 128,-1,66
 499 697 499 697 495 688 c 1,67,68
 607 704 607 704 676 704 c 0,69,70
 885 704 885 704 885 570 c 2,0,1
764 565 m 1,71,72
 759 581 759 581 731 583.5 c 128,-1,73
 703 586 703 586 668 586 c 128,-1,74
 633 586 633 586 574 580 c 0,75,76
 513 570 513 570 459 561 c 0,77,78
 458 558 458 558 450 518 c 0,79,80
 440 466 440 466 437 440 c 1,81,82
 494 451 494 451 556 454 c 1,83,84
 563 478 563 478 579 532 c 1,85,-1
 699 498 l 1,86,-1
 670 526 l 1,87,-1
 714 537 l 2,88,89
 752 546 752 546 764 565 c 1,71,72
443 228 m 1,90,91
 484 275 484 275 516 343 c 1,92,93
 480 340 480 340 432 327 c 1,94,95
 434 273 434 273 443 228 c 1,90,91
247 110 m 0,96,97
 281 110 281 110 342 143 c 1,98,99
 327 226 327 226 324 276 c 1,100,101
 289 252 289 252 259.5 212 c 128,-1,102
 230 172 230 172 229 132 c 0,103,104
 229 120 229 120 233 113 c 0,105,106
 236 110 236 110 247 110 c 0,96,97
EndSplineSet
Colour: ffbf00
EndChar

StartChar: u1B003
Encoding: 108 110595 108
Width: 1000
Flags: W
LayerCount: 2
Fore
SplineSet
706 262 m 1,0,1
 706 262 706 262 706 249 c 128,-1,2
 706 236 706 236 695.5 221 c 128,-1,3
 685 206 685 206 665 193.5 c 128,-1,4
 645 181 645 181 624 169 c 0,5,6
 570 135 570 135 570 95 c 2,7,8
 570 95 570 95 570 89 c 1,9,10
 580 58 580 58 593 51 c 128,-1,11
 606 44 606 44 640 44 c 0,12,13
 771 44 771 44 864 68 c 1,14,-1
 893 76 l 1,15,-1
 900 -47 l 1,16,-1
 879 -51 l 1,17,18
 763 -75 763 -75 674.5 -75 c 128,-1,19
 586 -75 586 -75 536 -51 c 128,-1,20
 486 -27 486 -27 463 39 c 0,21,22
 454 68 454 68 454 95 c 0,23,24
 454 184 454 184 545 251 c 1,25,26
 501 265 501 265 373 288 c 1,27,-1
 392 385 l 1,28,-1
 410 387 l 2,29,30
 446 391 446 391 485 403 c 1,31,-1
 413 424 l 1,32,-1
 421 449 l 1,33,34
 443 511 443 511 454 571 c 1,35,36
 358 574 358 574 280.5 589 c 128,-1,37
 203 604 203 604 176 608 c 2,38,-1
 146 612 l 1,39,-1
 189 740 l 1,40,-1
 213 731 l 2,41,42
 317 692 317 692 467 692 c 1,43,-1
 476 788 l 1,44,-1
 605 783 l 1,45,46
 601 730 601 730 597 698 c 1,47,48
 666 706 666 706 778 732 c 0,49,50
 798 738 798 738 815 745 c 2,51,-1
 841 757 l 1,52,-1
 875 628 l 1,53,-1
 847 625 l 2,54,55
 822 622 822 622 799 614 c 0,56,57
 657 584 657 584 579 576 c 1,58,59
 563 483 563 483 542 421 c 1,60,61
 549 423 549 423 556 426 c 0,62,63
 636 457 636 457 684.5 491 c 128,-1,64
 733 525 733 525 767 566 c 2,65,-1
 787 590 l 1,66,-1
 866 484 l 1,67,-1
 848 469 l 2,68,69
 782 413 782 413 733 385 c 128,-1,70
 684 357 684 357 625 333 c 1,71,72
 701 307 701 307 706 262 c 1,0,1
344 507 m 1,73,-1
 375 481 l 1,74,-1
 391 467 l 1,75,-1
 379 449 l 2,76,77
 330 375 330 375 320 332 c 1,78,-1
 312 302 l 1,79,-1
 227 345 l 1,80,81
 203 407 203 407 169 533 c 1,82,-1
 218 539 l 1,83,-1
 193 564 l 1,84,85
 202 565 202 565 278 578 c 1,86,87
 290 527 290 527 299 497 c 1,88,-1
 313 508 l 1,89,-1
 329 519 l 1,90,-1
 344 507 l 1,73,-1
EndSplineSet
Colour: ffbf00
EndChar

StartChar: u1B004
Encoding: 109 110596 109
Width: 1000
Flags: W
LayerCount: 2
Fore
SplineSet
292 32 m 2,0,-1
 292 -1 l 1,1,-1
 292 -26 l 1,2,-1
 181 -27 l 1,3,-1
 177 -8 l 1,4,5
 155 88 155 88 158 204 c 0,6,7
 158 316 158 316 174 412.5 c 128,-1,8
 190 509 190 509 207 597 c 1,9,-1
 82 570 l 1,10,-1
 82 702 l 1,11,-1
 105 703 l 2,12,13
 135 705 135 705 294 738 c 1,14,-1
 355 689 l 1,15,16
 326 589 326 589 303 466 c 128,-1,17
 280 343 280 343 278 282 c 1,18,19
 287 302 287 302 310 350 c 1,20,-1
 383 283 l 1,21,22
 363 235 363 235 331 159 c 0,23,24
 292 66 292 66 292 32 c 2,0,-1
456 699 m 0,25,26
 536 699 536 699 864 743 c 1,27,-1
 870 619 l 1,28,-1
 644 596 l 1,29,30
 487 579 487 579 454 571 c 1,31,-1
 423 562 l 1,32,-1
 423 701 l 1,33,34
 452 699 452 699 456 699 c 0,25,26
528 135 m 0,35,36
 465 135 465 135 421 202 c 0,37,38
 392 246 392 246 392 294.5 c 128,-1,39
 392 343 392 343 413.5 398.5 c 128,-1,40
 435 454 435 454 488 487 c 0,41,42
 551 527 551 527 643.5 527 c 128,-1,43
 736 527 736 527 785 495 c 0,44,45
 855 449 855 449 881 375 c 0,46,47
 899 326 899 326 899 272 c 0,48,49
 899 159 899 159 828 79 c 0,50,51
 774 18 774 18 644 -32 c 1,52,-1
 632 -36 l 1,53,-1
 492 47 l 1,54,-1
 552 61 l 2,55,56
 649 84 649 84 699.5 120.5 c 128,-1,57
 750 157 750 157 766 216 c 0,58,59
 776 251 776 251 776 277 c 128,-1,60
 776 303 776 303 771 323 c 0,61,62
 754 380 754 380 721 397 c 1,63,64
 696 178 696 178 562 140 c 0,65,66
 545 135 545 135 528 135 c 0,35,36
537 364 m 0,67,68
 517 331 517 331 517 310.5 c 128,-1,69
 517 290 517 290 524 277.5 c 128,-1,70
 531 265 531 265 537 262 c 0,71,72
 540 263 540 263 545 268 c 0,73,74
 572 295 572 295 582.5 335 c 128,-1,75
 593 375 593 375 594 407 c 1,76,77
 556 398 556 398 537 364 c 0,67,68
EndSplineSet
Colour: ffbf00
EndChar

StartChar: u1B005
Encoding: 110 110597 110
Width: 1000
Flags: W
LayerCount: 2
Fore
SplineSet
386 204 m 1,0,1
 456 195 456 195 498 131 c 1,2,3
 524 165 524 165 560 189 c 0,4,5
 615 226 615 226 679 227 c 1,6,-1
 680 227 l 1,7,8
 767 225 767 225 831 167 c 128,-1,9
 895 109 895 109 933 20 c 1,10,-1
 944 -4 l 1,11,-1
 820 -53 l 1,12,-1
 811 -29 l 1,13,14
 784 46 784 46 748.5 80.5 c 128,-1,15
 713 115 713 115 676.5 114.5 c 128,-1,16
 640 114 640 114 609.5 88.5 c 128,-1,17
 579 63 579 63 562 19 c 0,18,19
 556 5 556 5 554 -14 c 2,20,-1
 551 -37 l 1,21,-1
 435 -37 l 1,22,23
 427 3 427 3 425 23 c 1,24,25
 399 102 399 102 336 104 c 0,26,27
 296 102 296 102 255.5 62.5 c 128,-1,28
 215 23 215 23 176 -32 c 1,29,-1
 163 -51 l 1,30,-1
 51 15 l 1,31,-1
 72 37 l 1,32,33
 241 217 241 217 348 288 c 1,34,-1
 347 288 l 1,35,36
 333 316 333 316 334 342 c 0,37,38
 334 395 334 395 386 444 c 1,39,40
 333 440 333 440 249 435 c 1,41,-1
 245 560 l 1,42,-1
 270 560 l 2,43,44
 316 560 316 560 372 564 c 2,45,-1
 464 570 l 2,46,47
 560 576 560 576 591 581 c 2,48,-1
 610 584 l 1,49,-1
 653 484 l 1,50,-1
 632 473 l 2,51,52
 557 434 557 434 493 386 c 0,53,54
 471 370 471 370 458 357 c 1,55,56
 475 358 475 358 547.5 369.5 c 128,-1,57
 620 381 620 381 670 394 c 2,58,-1
 694 400 l 1,59,-1
 730 277 l 1,60,-1
 636 261 l 1,61,62
 526 244 526 244 481 244 c 128,-1,63
 436 244 436 244 414 249 c 1,64,-1
 426 234 l 1,65,-1
 405 218 l 2,66,67
 395 211 395 211 386 204 c 1,0,1
477 656 m 1,68,69
 438 669 438 669 384 680 c 2,70,-1
 350 687 l 1,71,-1
 411 794 l 1,72,73
 541 769 541 769 610 735 c 1,74,-1
 651 668 l 1,75,76
 577 619 577 619 528 587 c 1,77,-1
 516 591 l 1,78,-1
 477 606 l 1,79,-1
 442 620 l 1,80,81
 473 652 473 652 477 656 c 1,68,69
EndSplineSet
Colour: ffbf00
EndChar

StartChar: u1B006
Encoding: 111 110598 111
Width: 1000
Flags: W
LayerCount: 2
Fore
SplineSet
249 250 m 1,0,-1
 271 226 l 1,1,-1
 285 212 l 1,2,-1
 274 195 l 1,3,4
 201 88 201 88 177 34 c 2,5,-1
 164 5 l 1,6,-1
 92 62 l 1,7,8
 78 127 78 127 70 237 c 128,-1,9
 62 347 62 347 64 390 c 2,10,-1
 65 408 l 1,11,-1
 178 437 l 1,12,13
 182 294 182 294 191 222 c 1,14,-1
 211 248 l 1,15,-1
 229 270 l 1,16,-1
 249 250 l 1,0,-1
417 461 m 1,17,18
 415 414 415 414 415.5 383.5 c 128,-1,19
 416 353 416 353 423 287 c 128,-1,20
 430 221 430 221 440 174 c 1,21,-1
 446 149 l 1,22,-1
 326 126 l 1,23,-1
 321 150 l 2,24,25
 298 264 298 264 298 364 c 0,26,27
 298 395 298 395 300 443 c 1,28,-1
 417 461 l 1,17,18
665 753 m 0,29,30
 733 753 733 753 772 719 c 0,31,32
 823 675 823 675 840 605.5 c 128,-1,33
 857 536 857 536 856.5 469.5 c 128,-1,34
 856 403 856 403 848.5 348.5 c 128,-1,35
 841 294 841 294 834 263 c 128,-1,36
 827 232 827 232 824 216 c 1,37,38
 849 206 849 206 912 193 c 1,39,-1
 918 185 l 1,40,-1
 943 148 l 1,41,-1
 954 133 l 1,42,-1
 942 118 l 2,43,44
 884 44 884 44 764 -75 c 2,45,-1
 753 -86 l 1,46,-1
 737 -80 l 1,47,-1
 698 -64 l 1,48,-1
 667 -52 l 1,49,-1
 688 -25 l 1,50,51
 762 66 762 66 789 109 c 1,52,-1
 731 130 l 1,53,54
 695 154 695 154 695 190 c 0,55,56
 695 205 695 205 706.5 266 c 128,-1,57
 718 327 718 327 724.5 390.5 c 128,-1,58
 731 454 731 454 731 488.5 c 128,-1,59
 731 523 731 523 725 560.5 c 128,-1,60
 719 598 719 598 692 624 c 0,61,62
 668 646 668 646 603 627 c 2,63,-1
 563 615 l 1,64,-1
 592 745 l 1,65,-1
 608 748 l 2,66,67
 639 753 639 753 665 753 c 0,29,30
EndSplineSet
Colour: ffbf00
EndChar

StartChar: u1B007
Encoding: 112 110599 112
Width: 1000
Flags: W
LayerCount: 2
Fore
SplineSet
248 462 m 1,0,-1
 264 275 l 2,1,2
 269 221 269 221 289 109.5 c 128,-1,3
 309 -2 309 -2 313 -19 c 2,4,-1
 318 -45 l 1,5,-1
 198 -63 l 1,6,-1
 193 -41 l 2,7,8
 182 5 182 5 166 92 c 128,-1,9
 150 179 150 179 150 260 c 0,10,11
 150 375 150 375 159 443 c 1,12,-1
 71 515 l 1,13,14
 196 650 196 650 261 750 c 1,15,-1
 274 771 l 1,16,-1
 392 698 l 1,17,-1
 367 676 l 1,18,19
 291 604 291 604 201 475 c 1,20,-1
 231 467 l 1,21,-1
 248 462 l 1,0,-1
618 159 m 1,22,23
 578 152 578 152 555 152 c 0,24,25
 482 152 482 152 453 200 c 0,26,27
 445 215 445 215 445 239 c 0,28,29
 445 281 445 281 516 386 c 1,30,31
 407 350 407 350 370 325 c 1,32,-1
 340 306 l 1,33,-1
 308 437 l 1,34,-1
 329 444 l 1,35,36
 514 512 514 512 633 537 c 1,37,-1
 632 539 l 1,38,-1
 613 565 l 1,39,-1
 595 588 l 1,40,-1
 620 602 l 1,41,-1
 650 618 l 1,42,43
 589 636 589 636 438 664 c 1,44,-1
 487 772 l 1,45,-1
 505 769 l 1,46,47
 573 759 573 759 673.5 734 c 128,-1,48
 774 709 774 709 814 693 c 1,49,-1
 829 688 l 1,50,-1
 834 606 l 1,51,-1
 817 600 l 2,52,53
 785 588 785 588 670 534 c 1,54,-1
 673 530 l 1,55,-1
 695 499 l 1,56,-1
 824 478 l 1,57,-1
 815 450 l 2,58,59
 801 408 801 408 790 337 c 1,60,61
 814 349 814 349 865 377 c 1,62,-1
 927 277 l 1,63,-1
 907 264 l 1,64,65
 857 230 857 230 753 194 c 1,66,67
 736 141 736 141 710 83.5 c 128,-1,68
 684 26 684 26 625 -70 c 2,69,-1
 615 -86 l 1,70,-1
 495 -46 l 1,71,-1
 514 -19 l 2,72,73
 585 83 585 83 618 159 c 1,22,23
560 263 m 1,74,75
 614 271 614 271 661 288 c 1,76,-1
 662 288 l 1,77,78
 678 350 678 350 681.5 379.5 c 128,-1,79
 685 409 685 409 688 425 c 1,80,81
 643 375 643 375 618.5 341.5 c 128,-1,82
 594 308 594 308 578.5 287.5 c 128,-1,83
 563 267 563 267 560 263 c 1,74,75
EndSplineSet
Colour: ffbf00
EndChar

StartChar: u1B008
Encoding: 113 110600 113
Width: 1000
Flags: W
LayerCount: 2
Fore
SplineSet
641 350 m 0,0,1
 519 350 519 350 514 331 c 1,2,3
 514 330 514 330 514 330 c 0,4,5
 514 326 514 326 529 318 c 128,-1,6
 544 310 544 310 564.5 304.5 c 128,-1,7
 585 299 585 299 625 297 c 128,-1,8
 665 295 665 295 733 290 c 1,9,-1
 717 173 l 1,10,11
 651 178 651 178 605.5 178 c 128,-1,12
 560 178 560 178 427 170 c 1,13,-1
 420 186 l 1,14,-1
 408 211 l 1,15,-1
 399 233 l 1,16,-1
 420 244 l 1,17,-1
 430 248 l 1,18,19
 428 250 428 250 427 252 c 0,20,21
 396 288 396 288 396 327 c 2,22,23
 396 327 396 327 396 328 c 0,24,25
 396 356 396 356 413.5 384 c 128,-1,26
 431 412 431 412 455 429 c 1,27,28
 438 450 438 450 418 487 c 2,29,-1
 402 515 l 1,30,-1
 424 521 l 1,31,32
 364 521 364 521 296 529 c 128,-1,33
 228 537 228 537 172 543 c 1,34,-1
 207 673 l 1,35,-1
 232 665 l 2,36,37
 263 655 263 655 321.5 647.5 c 128,-1,38
 380 640 380 640 426.5 640 c 128,-1,39
 473 640 473 640 514 644 c 1,40,41
 448 656 448 656 340 689 c 1,42,-1
 362 810 l 1,43,-1
 390 800 l 1,44,45
 499 760 499 760 633 748 c 1,46,-1
 660 746 l 1,47,-1
 646 663 l 1,48,49
 738 683 738 683 771 697 c 2,50,-1
 795 707 l 1,51,-1
 835 585 l 1,52,53
 655 534 655 534 508 524 c 1,54,55
 567 478 567 478 686 473 c 1,56,-1
 721 471 l 1,57,-1
 674 349 l 1,58,59
 649 349 649 349 641 350 c 0,0,1
324 91 m 1,60,61
 358 69 358 69 519 69 c 2,62,63
 519 69 519 69 572 69 c 128,-1,64
 625 69 625 69 692 79.5 c 128,-1,65
 759 90 759 90 795 100 c 2,66,-1
 819 107 l 1,67,-1
 855 -18 l 1,68,-1
 828 -22 l 1,69,70
 695 -47 695 -47 542 -50 c 1,71,72
 542 -50 542 -50 529 -50 c 0,73,74
 411 -50 411 -50 341.5 -36.5 c 128,-1,75
 272 -23 272 -23 242 -5 c 0,76,77
 188 27 188 27 188 84.5 c 128,-1,78
 188 142 188 142 244 180 c 1,79,-1
 258 189 l 1,80,-1
 360 120 l 1,81,-1
 333 99 l 2,82,83
 327 95 327 95 324 91 c 1,60,61
EndSplineSet
Colour: ffbf00
EndChar

StartChar: u1B009
Encoding: 114 110601 114
Width: 1000
Flags: W
LayerCount: 2
Fore
SplineSet
478 142 m 0,0,1
 480 138 480 138 492.5 138 c 128,-1,2
 505 138 505 138 522.5 152 c 128,-1,3
 540 166 540 166 565 216 c 1,4,5
 565 216 565 216 539 228 c 1,6,7
 528 230 528 230 523 230 c 0,8,9
 505 230 505 230 490 214 c 1,10,11
 474 180 474 180 474 170 c 0,12,13
 474 154 474 154 478 142 c 0,0,1
374 95 m 1,14,15
 374 80 374 80 383 -38 c 1,16,-1
 248 -38 l 1,17,18
 253 22 253 22 253 54 c 128,-1,19
 253 86 253 86 254 150.5 c 128,-1,20
 255 215 255 215 255 237 c 1,21,22
 195 149 195 149 127 56 c 1,23,-1
 51 163 l 1,24,25
 194 347 194 347 264 457 c 1,26,27
 266 490 266 490 267 499.5 c 128,-1,28
 268 509 268 509 268 512 c 1,29,-1
 213 504 l 1,30,-1
 89 487 l 1,31,-1
 76 619 l 1,32,33
 115 617 115 617 122 617 c 0,34,35
 185 616 185 616 276 631 c 1,36,37
 280 693 280 693 280 717 c 128,-1,38
 280 741 280 741 277 766 c 2,39,-1
 274 795 l 1,40,-1
 420 790 l 1,41,-1
 414 761 l 2,42,43
 406 722 406 722 397 641 c 1,44,-1
 423 609 l 1,45,-1
 434 595 l 1,46,47
 421 576 421 576 419 571 c 1,48,-1
 437 589 l 1,49,-1
 454 565 l 1,50,-1
 472 540 l 1,51,-1
 483 525 l 1,52,53
 410 435 410 435 376 385 c 1,54,55
 373 324 373 324 373 272 c 2,56,-1
 373 224 l 1,57,58
 383 256 383 256 403 284 c 0,59,60
 457 350 457 350 524 350 c 0,61,62
 554 350 554 350 614 327 c 1,63,64
 630 373 630 373 654 452 c 1,65,-1
 778 400 l 1,66,67
 744 319 744 319 723 270 c 1,68,69
 771 239 771 239 815 198 c 1,70,71
 818 214 818 214 818 262 c 0,72,73
 818 335 818 335 810 356 c 0,74,75
 798 404 798 404 764 427 c 0,76,77
 730 451 730 451 579 461 c 1,78,-1
 528 524 l 1,79,-1
 544 540 l 2,80,81
 623 618 623 618 669 685 c 1,82,-1
 724 787 l 1,83,-1
 840 726 l 1,84,-1
 825 703 l 1,85,86
 782 635 782 635 719 558 c 1,87,88
 860 538 860 538 912 425 c 1,89,90
 933 369 933 369 932.5 273 c 128,-1,91
 932 177 932 177 916 132 c 1,92,-1
 900 90 l 1,93,94
 864 19 864 19 813.5 -7 c 128,-1,95
 763 -33 763 -33 687 -33 c 2,96,-1
 664 -33 l 1,97,-1
 652 81 l 1,98,-1
 680 81 l 1,99,100
 715 82 715 82 737 89 c 1,101,102
 706 124 706 124 669 153 c 1,103,104
 635 87 635 87 593 54 c 128,-1,105
 551 21 551 21 484 19 c 1,106,-1
 483 19 l 1,107,108
 411 21 411 21 374 95 c 1,14,15
EndSplineSet
Colour: ffbf00
EndChar

StartChar: u1B00A
Encoding: 115 110602 115
Width: 1000
Flags: W
LayerCount: 2
Fore
SplineSet
493 158 m 1,0,1
 478 159 478 159 463 159 c 0,2,3
 371 157 371 157 350 115 c 0,4,5
 347 104 347 104 346 94 c 0,6,7
 346 73 346 73 373 60 c 1,8,9
 404 52 404 52 418 52 c 128,-1,10
 432 52 432 52 448 57 c 1,11,-1
 450 57 l 1,12,13
 488 64 488 64 493 158 c 1,0,1
491 -55 m 1,14,15
 458 -63 458 -63 414.5 -63 c 128,-1,16
 371 -63 371 -63 316 -41 c 1,17,18
 226 12 226 12 225 99 c 0,19,20
 225 124 225 124 233 152 c 0,21,22
 282 270 282 270 449 277 c 0,23,24
 472 279 472 279 495 279 c 1,25,26
 495 308 495 308 494 337 c 1,27,28
 461 335 461 335 435.5 331.5 c 128,-1,29
 410 328 410 328 364 314 c 2,30,-1
 340 307 l 1,31,-1
 297 441 l 1,32,33
 297 441 297 441 389 450.5 c 128,-1,34
 481 460 481 460 616 471 c 1,35,36
 618 301 618 301 618 269 c 1,37,38
 720 250 720 250 835 201 c 1,39,-1
 855 193 l 1,40,-1
 816 57 l 1,41,-1
 789 72 l 1,42,43
 699 119 699 119 613 140 c 1,44,45
 607 67 607 67 587 24 c 0,46,47
 561 -31 561 -31 491 -55 c 1,14,15
495 639 m 1,48,49
 442 650 442 650 338 681 c 1,50,-1
 361 802 l 1,51,-1
 389 792 l 1,52,53
 497 752 497 752 631 740 c 1,54,-1
 658 738 l 1,55,-1
 644 651 l 1,56,57
 644 651 644 651 650 651 c 0,58,59
 800 651 800 651 853 604 c 0,60,61
 887 573 887 573 891 518 c 1,62,63
 883 428 883 428 785 385 c 1,64,-1
 773 379 l 1,65,-1
 671 444 l 1,66,-1
 713 463 l 2,67,68
 753 481 753 481 756 508 c 1,69,70
 746 524 746 524 716.5 527.5 c 128,-1,71
 687 531 687 531 652 531 c 0,72,73
 534 531 534 531 370.5 497 c 128,-1,74
 207 463 207 463 170 445 c 1,75,-1
 146 432 l 1,76,-1
 94 567 l 1,77,78
 139 575 139 575 165 578.5 c 128,-1,79
 191 582 191 582 235 592 c 0,80,81
 377 624 377 624 495 639 c 1,48,49
EndSplineSet
Colour: ffbf00
EndChar

StartChar: u1B00B
Encoding: 116 110603 116
Width: 1000
Flags: W
LayerCount: 2
Fore
SplineSet
786 521 m 0,0,1
 781 536 781 536 667 536 c 0,2,3
 574 536 574 536 487 523 c 1,4,5
 597 479 597 479 651 445 c 1,6,-1
 653 436 l 1,7,-1
 666 394 l 1,8,-1
 673 371 l 1,9,10
 616 353 616 353 570 340 c 1,11,12
 611 324 611 324 647 299 c 0,13,14
 704 258 704 258 715 179 c 1,15,-1
 715 177 l 1,16,17
 713 -6 713 -6 498 -80 c 1,18,-1
 484 -84 l 1,19,-1
 371 12 l 1,20,-1
 416 24 l 1,21,22
 587 71 587 71 587 151 c 0,23,24
 587 193 587 193 554 211 c 128,-1,25
 521 229 521 229 473.5 240 c 128,-1,26
 426 251 426 251 310 262 c 2,27,-1
 280 265 l 1,28,-1
 318 386 l 1,29,30
 414 374 414 374 475 364 c 1,31,-1
 472 367 l 1,32,33
 496 388 496 388 499 392 c 1,34,35
 486 398 486 398 464 407 c 2,36,-1
 368 450 l 1,37,-1
 417 512 l 1,38,39
 176 466 176 466 149 450 c 1,40,-1
 124 437 l 1,41,-1
 74 570 l 1,42,-1
 101 576 l 2,43,44
 114 579 114 579 142 583 c 128,-1,45
 170 587 170 587 217 597 c 0,46,47
 372 630 372 630 518 648 c 1,48,49
 469 659 469 659 370 688 c 1,50,-1
 391 809 l 1,51,-1
 419 799 l 2,52,53
 518 763 518 763 619 754 c 1,54,-1
 645 752 l 1,55,-1
 630 656 l 1,56,57
 630 656 630 656 683.5 656 c 128,-1,58
 737 656 737 656 792.5 644.5 c 128,-1,59
 848 633 848 633 876 612 c 0,60,61
 922 578 922 578 922 521 c 0,62,63
 922 446 922 446 826 379 c 1,64,-1
 812 369 l 1,65,-1
 692 451 l 1,66,-1
 731 470 l 2,67,68
 782 495 782 495 786 520 c 1,69,70
 786 520 786 520 786 521 c 0,0,1
EndSplineSet
Colour: ffbf00
EndChar

StartChar: u1B00D
Encoding: 117 110605 117
Width: 1000
Flags: W
LayerCount: 2
Fore
SplineSet
384 468 m 1,0,1
 377 469 377 469 365 469 c 128,-1,2
 353 469 353 469 334 466 c 0,3,4
 261 450 261 450 242 409 c 0,5,6
 235 394 235 394 235 390 c 2,7,8
 235 390 235 390 235 384 c 1,9,10
 236 383 236 383 238 383 c 0,11,12
 291 385 291 385 384 468 c 1,0,1
578 415 m 1,13,14
 629 449 629 449 696 449 c 0,15,16
 780 449 780 449 839 400 c 0,17,18
 897 348 897 348 897 260 c 2,19,20
 897 260 897 260 897 243 c 0,21,22
 891 141 891 141 823 79 c 128,-1,23
 755 17 755 17 677 -1 c 1,24,-1
 652 -98 l 1,25,-1
 629 -93 l 1,26,27
 518 -71 518 -71 469 -53 c 128,-1,28
 420 -35 420 -35 360 -12 c 1,29,-1
 391 109 l 1,30,-1
 418 96 l 2,31,32
 502 56 502 56 614 34 c 1,33,-1
 560 99 l 1,34,-1
 611 101 l 2,35,36
 656 103 656 103 710 144 c 0,37,38
 772 191 772 191 773 258 c 0,39,40
 773 288 773 288 753.5 306 c 128,-1,41
 734 324 734 324 699 324 c 0,42,43
 641 324 641 324 604 290 c 128,-1,44
 567 256 567 256 554 232 c 2,45,-1
 542 209 l 1,46,-1
 445 270 l 1,47,-1
 450 288 l 2,48,49
 459 318 459 318 459 339 c 128,-1,50
 459 360 459 360 458 374 c 1,51,52
 400 323 400 323 342 295 c 128,-1,53
 284 267 284 267 249 267 c 0,54,55
 168 267 168 267 132 329 c 0,56,57
 119 359 119 359 119 388 c 0,58,59
 119 443 119 443 164 496 c 0,60,61
 230 573 230 573 342 581 c 0,62,63
 351 581 351 581 360 582 c 0,64,65
 425 582 425 582 471 564 c 1,66,67
 495 602 495 602 517 664 c 1,68,69
 388 659 388 659 293 647 c 1,70,-1
 288 782 l 1,71,72
 335 778 335 778 350 778 c 0,73,74
 462 782 462 782 531 782 c 0,75,76
 578 785 578 785 604 785 c 2,77,-1
 613 785 l 1,78,-1
 675 735 l 1,79,-1
 671 719 l 1,80,81
 636 589 636 589 585 515 c 0,82,83
 573 499 573 499 561 484 c 1,84,85
 567 472 567 472 573 456 c 0,86,87
 577 434 577 434 578 415 c 1,13,14
EndSplineSet
Colour: ffbf00
EndChar

StartChar: u1B00E
Encoding: 118 110606 118
Width: 1000
Flags: W
LayerCount: 2
Fore
SplineSet
619 230 m 0,0,1
 619 187 619 187 566 137 c 1,2,3
 527 88 527 88 527 57 c 0,4,5
 527 49 527 49 549.5 41 c 128,-1,6
 572 33 572 33 603 33 c 128,-1,7
 634 33 634 33 686.5 38.5 c 128,-1,8
 739 44 739 44 773 54 c 2,9,-1
 803 62 l 1,10,-1
 811 -59 l 1,11,-1
 792 -65 l 1,12,13
 719 -87 719 -87 635 -86.5 c 128,-1,14
 551 -86 551 -86 492.5 -65 c 128,-1,15
 434 -44 434 -44 411 12 c 1,16,-1
 410 14 l 1,17,18
 406 34 406 34 406 52 c 0,19,20
 406 134 406 134 479 214 c 1,21,22
 437 234 437 234 316 257 c 1,23,-1
 291 262 l 1,24,-1
 315 382 l 1,25,-1
 504 334 l 1,26,-1
 505 334 l 1,27,28
 610 302 610 302 619 238 c 1,29,30
 619 238 619 238 619 230 c 0,0,1
637 768 m 2,31,-1
 663 768 l 1,32,-1
 658 644 l 1,33,34
 599 647 599 647 555 650 c 1,35,36
 547 631 547 631 544 625 c 1,37,-1
 570 628 l 1,38,39
 606 631 606 631 668 631 c 0,40,41
 806 631 806 631 857 586 c 0,42,43
 891 555 891 555 895 501 c 1,44,45
 895 501 895 501 895 496 c 0,46,47
 895 407 895 407 805 356 c 1,48,-1
 793 349 l 1,49,-1
 672 421 l 1,50,-1
 679 381 l 1,51,-1
 682 356 l 1,52,-1
 657 353 l 1,53,-1
 617 347 l 2,54,55
 572 341 572 341 534 341 c 0,56,57
 444 341 444 341 410 384 c 0,58,59
 396 402 396 402 390 430 c 0,60,61
 389 449 389 449 389 461 c 2,62,63
 389 461 389 461 389 481 c 1,64,65
 205 441 205 441 176 426 c 1,66,-1
 150 411 l 1,67,-1
 98 547 l 1,68,69
 190 563 190 563 236.5 573 c 128,-1,70
 283 583 283 583 336.5 593 c 128,-1,71
 390 603 390 603 405 606 c 1,72,73
 405 606 405 606 417 666 c 1,74,75
 390 671 390 671 353 678 c 1,76,-1
 364 799 l 1,77,78
 432 784 432 784 464 778 c 0,79,80
 516 768 516 768 637 768 c 2,31,-1
514 461 m 0,81,82
 576 461 576 461 663 481 c 1,83,-1
 667 455 l 1,84,-1
 671 429 l 1,85,-1
 711 445 l 2,86,87
 757 464 757 464 760 490 c 1,88,89
 750 506 750 506 720.5 509 c 128,-1,90
 691 512 691 512 656 512 c 0,91,92
 592 512 592 512 512 501 c 1,93,94
 509 471 509 471 510 462 c 0,95,96
 512 462 512 462 514 461 c 0,81,82
EndSplineSet
Colour: ffbf00
EndChar

StartChar: u1B00F
Encoding: 119 110607 119
Width: 1000
Flags: W
LayerCount: 2
Fore
SplineSet
339 424 m 1,0,1
 331 428 331 428 314.5 428 c 128,-1,2
 298 428 298 428 287.5 419 c 128,-1,3
 277 410 277 410 277 402 c 0,4,5
 277 386 277 386 285 384 c 0,6,7
 289 384 289 384 295 384 c 0,8,9
 313 384 313 384 339 424 c 1,0,1
355 68 m 1,10,-1
 355 71 l 2,11,12
 355 105 355 105 379 134 c 1,13,14
 234 121 234 121 71 104 c 1,15,-1
 63 227 l 1,16,17
 359 246 359 246 561 267 c 1,18,-1
 570 331 l 1,19,-1
 528 279 l 1,20,-1
 508 304 l 1,21,22
 482 339 482 339 446 367 c 1,23,24
 418 321 418 321 382 294.5 c 128,-1,25
 346 268 346 268 285 267 c 1,26,-1
 284 267 l 1,27,28
 215 269 215 269 176 337 c 0,29,30
 162 369 162 369 162 406.5 c 128,-1,31
 162 444 162 444 193 487 c 1,32,33
 247 546 247 546 322 547 c 0,34,35
 340 547 340 547 360 543 c 0,36,37
 376 538 376 538 391 533 c 1,38,39
 404 566 404 566 426 631 c 1,40,-1
 525 588 l 1,41,-1
 493 620 l 1,42,-1
 510 637 l 2,43,44
 523 650 523 650 534 666 c 1,45,46
 493 661 493 661 457.5 658.5 c 128,-1,47
 422 656 422 656 329 643 c 1,48,-1
 323 772 l 1,49,50
 469 777 469 777 545 785 c 2,51,-1
 659 797 l 1,52,-1
 728 722 l 1,53,-1
 712 705 l 2,54,55
 695 688 695 688 678 667 c 1,56,57
 679 667 679 667 679 666 c 0,58,59
 729 656 729 656 756 632 c 0,60,61
 803 590 803 590 805 478 c 1,62,-1
 805 477 l 1,63,64
 804 432 804 432 791 375 c 128,-1,65
 778 318 778 318 739 288 c 1,66,67
 857 305 857 305 889 312 c 2,68,-1
 913 317 l 1,69,-1
 938 197 l 1,70,-1
 911 193 l 1,71,72
 556 144 556 144 486 74 c 1,73,74
 499 68 499 68 546 62.5 c 128,-1,75
 593 57 593 57 747 42 c 1,76,-1
 722 -78 l 1,77,-1
 700 -77 l 1,78,79
 543 -64 543 -64 460 -43 c 0,80,81
 418 -33 418 -33 393 -10 c 0,82,83
 359 20 359 20 355 68 c 1,10,-1
686 473 m 2,84,-1
 686 486 l 1,85,86
 685 514 685 514 678.5 531.5 c 128,-1,87
 672 549 672 549 662 554.5 c 128,-1,88
 652 560 652 560 627 560 c 128,-1,89
 602 560 602 560 560 553 c 1,90,-1
 543 570 l 1,91,92
 518 512 518 512 503 480 c 1,93,94
 555 446 555 446 599 402 c 1,95,-1
 614 386 l 1,96,-1
 602 371 l 1,97,-1
 625 371 l 1,98,99
 643 372 643 372 659 381 c 128,-1,100
 675 390 675 390 680.5 421.5 c 128,-1,101
 686 453 686 453 686 473 c 2,84,-1
EndSplineSet
Colour: ffbf00
EndChar

StartChar: u1B013
Encoding: 120 110611 120
Width: 1000
Flags: W
LayerCount: 2
Fore
SplineSet
229 118 m 0,0,1
 229 111 229 111 232 108.5 c 0,2,3
 234 106 234 106 258 106 c 0,4,5
 284 106 284 106 353 140 c 1,6,7
 343 189 343 189 338 245 c 1,8,9
 293 221 293 221 262 185 c 128,-1,10
 231 149 231 149 229 118 c 0,0,1
511 293 m 1,11,12
 488 292 488 292 447 283 c 1,13,14
 448 247 448 247 454 217 c 1,15,16
 484 249 484 249 511 293 c 1,11,12
385 25 m 0,17,18
 224 -45 224 -45 147 17 c 0,19,20
 109 48 109 48 108 107 c 1,21,-1
 108 108 l 1,22,23
 110 211 110 211 222 300 c 0,24,25
 276 342 276 342 339 366 c 1,26,27
 343 416 343 416 353 467 c 1,28,29
 263 449 263 449 165 412 c 1,30,-1
 111 540 l 1,31,-1
 144 543 l 2,32,33
 170 546 170 546 232 560 c 1,34,35
 232 560 232 560 386 593 c 1,36,37
 399 634 399 634 404 643 c 128,-1,38
 409 652 409 652 412 667 c 1,39,40
 387 672 387 672 353 678 c 1,41,-1
 364 799 l 1,42,43
 432 784 432 784 465 778 c 0,44,45
 518 768 518 768 638 768 c 2,46,-1
 663 768 l 1,47,-1
 659 644 l 1,48,49
 590 647 590 647 541 651 c 1,50,51
 526 624 526 624 523 617 c 1,52,53
 547 621 547 621 604 626.5 c 128,-1,54
 661 632 661 632 673 632 c 2,55,56
 673 632 673 632 686 632 c 0,57,58
 877 632 877 632 880 511 c 1,59,60
 879 436 879 436 788 394 c 1,61,-1
 775 389 l 1,62,-1
 707 437 l 1,63,64
 691 401 691 401 687 391 c 1,65,66
 781 371 781 371 836 322 c 0,67,68
 902 261 902 261 902 180 c 1,69,70
 899 97 899 97 837.5 33 c 128,-1,71
 776 -31 776 -31 620 -80 c 1,72,-1
 603 -86 l 1,73,-1
 523 15 l 1,74,-1
 562 24 l 2,75,76
 673 49 673 49 727.5 91 c 128,-1,77
 782 133 782 133 783 175 c 1,78,-1
 783 176 l 1,79,80
 784 182 784 182 784 186 c 0,81,82
 784 219 784 219 745 250 c 128,-1,83
 706 281 706 281 641 290 c 1,84,85
 636 281 636 281 633 273 c 0,86,87
 604 207 604 207 559 155 c 0,88,89
 526 119 526 119 487 89 c 1,90,91
 495 66 495 66 503 49 c 2,92,-1
 516 23 l 1,93,-1
 397 -12 l 1,94,95
 387 23 387 23 385 25 c 0,17,18
755 507 m 1,96,97
 742 516 742 516 693 516 c 128,-1,98
 644 516 644 516 576 508 c 0,99,100
 524 499 524 499 476 490 c 1,101,102
 476 490 476 490 467 452 c 128,-1,103
 458 414 458 414 455 394 c 1,104,105
 497 401 497 401 524 402 c 128,-1,106
 551 403 551 403 559 404 c 1,107,108
 565 423 565 423 579 473 c 1,109,-1
 703 440 l 1,110,-1
 658 472 l 1,111,-1
 709 485 l 2,112,113
 741 494 741 494 755 507 c 1,96,97
EndSplineSet
Colour: ffbf00
EndChar

StartChar: u1B015
Encoding: 121 110613 121
Width: 1000
Flags: W
LayerCount: 2
Fore
SplineSet
284 624 m 1,0,1
 284 624 284 624 284.5 671 c 128,-1,2
 285 718 285 718 279 800 c 1,3,-1
 418 800 l 1,4,5
 415 759 415 759 413 741 c 2,6,-1
 410 707 l 1,7,8
 409 682 409 682 407 636 c 1,9,10
 457 644 457 644 514 665 c 1,11,-1
 546 676 l 1,12,-1
 549 549 l 1,13,-1
 530 544 l 2,14,15
 459 525 459 525 403 517 c 1,16,17
 402 463 402 463 402 253.5 c 128,-1,18
 402 44 402 44 395 -9 c 1,19,-1
 393 -31 l 1,20,-1
 266 -32 l 1,21,-1
 271 -3 l 2,22,23
 276 28 276 28 280 232 c 1,24,25
 269 213 269 213 244.5 171 c 128,-1,26
 220 129 220 129 201 87 c 1,27,-1
 189 62 l 1,28,-1
 79 124 l 1,29,-1
 90 145 l 2,30,31
 106 177 106 177 174 288 c 128,-1,32
 242 399 242 399 282 478 c 1,33,34
 282 478 282 478 282 505 c 1,35,36
 246 503 246 503 233 504 c 1,37,-1
 232 504 l 1,38,39
 161 506 161 506 136 509 c 2,40,-1
 115 511 l 1,41,-1
 112 633 l 1,42,-1
 140 630 l 1,43,44
 215 620 215 620 284 624 c 1,0,1
556 664 m 1,45,-1
 623 774 l 1,46,47
 794 705 794 705 915 624 c 1,48,-1
 934 610 l 1,49,-1
 870 504 l 1,50,-1
 848 519 l 2,51,52
 714 611 714 611 586 655 c 1,53,-1
 556 664 l 1,45,-1
664 197 m 0,54,55
 676 174 676 174 722 156 c 0,56,57
 801 126 801 126 890 123 c 2,58,-1
 919 122 l 1,59,-1
 898 -7 l 1,60,-1
 875 -5 l 1,61,62
 779 4 779 4 693 35 c 128,-1,63
 607 66 607 66 571 117.5 c 128,-1,64
 535 169 535 169 535 226 c 0,65,66
 535 241 535 241 537 257 c 1,67,68
 547 304 547 304 569 365 c 2,69,-1
 578 389 l 1,70,-1
 694 345 l 1,71,-1
 681 320 l 2,72,73
 671 301 671 301 664 272.5 c 128,-1,74
 657 244 657 244 656.5 228.5 c 128,-1,75
 656 213 656 213 664 197 c 0,54,55
EndSplineSet
Colour: ffbf00
EndChar

StartChar: u1B019
Encoding: 122 110617 122
Width: 1000
Flags: W
LayerCount: 2
Fore
SplineSet
313 784 m 2,0,1
 376 768 376 768 543 750.5 c 128,-1,2
 710 733 710 733 811 721 c 1,3,-1
 773 600 l 1,4,5
 690 613 690 613 522 632.5 c 128,-1,6
 354 652 354 652 289 657 c 2,7,-1
 260 659 l 1,8,-1
 289 790 l 1,9,-1
 313 784 l 2,0,1
330 165 m 0,10,11
 295 165 295 165 259 183 c 1,12,13
 195 229 195 229 195 304 c 0,14,15
 195 351 195 351 223 410 c 1,16,17
 302 538 302 538 452 542 c 1,18,19
 452 542 452 542 469 542 c 0,20,21
 600 542 600 542 674 497 c 0,22,23
 755 449 755 449 780 373 c 0,24,25
 794 332 794 332 794 293.5 c 128,-1,26
 794 255 794 255 785 219 c 0,27,28
 766 138 766 138 686 64 c 128,-1,29
 606 -10 606 -10 454 -64 c 1,30,-1
 438 -70 l 1,31,-1
 343 43 l 1,32,-1
 386 50 l 2,33,34
 458 61 458 61 542 111 c 128,-1,35
 626 161 626 161 650 221 c 0,36,37
 668 266 668 266 668 291.5 c 128,-1,38
 668 317 668 317 666 329 c 0,39,40
 658 372 658 372 624 394 c 1,41,42
 624 394 624 394 606 404 c 1,43,44
 522 254 522 254 444 204 c 0,45,46
 385 165 385 165 330 165 c 0,10,11
467 427 m 1,47,48
 388 422 388 422 348 378 c 1,49,50
 320 328 320 328 319 312.5 c 128,-1,51
 318 297 318 297 323 288 c 0,52,53
 327 285 327 285 333 285 c 0,54,55
 351 285 351 285 385 318 c 128,-1,56
 419 351 419 351 467 427 c 1,47,48
EndSplineSet
Colour: ffbf00
EndChar

StartChar: u1B01A
Encoding: 123 110618 123
Width: 1000
Flags: W
LayerCount: 2
Fore
SplineSet
475 548 m 1,0,1
 535 555 535 555 566 548 c 0,2,3
 657 532 657 532 715 480 c 0,4,5
 783 420 783 420 783 304 c 0,6,7
 783 184 783 184 679 68 c 0,8,9
 629 12 629 12 518 -63 c 1,10,-1
 505 -71 l 1,11,-1
 378 3 l 1,12,-1
 417 24 l 2,13,14
 485 60 485 60 546.5 118 c 128,-1,15
 608 176 608 176 632 221.5 c 128,-1,16
 656 267 656 267 656 306 c 128,-1,17
 656 345 656 345 628 379 c 0,18,19
 593 421 593 421 516.5 421 c 128,-1,20
 440 421 440 421 403 395 c 1,21,22
 373 378 373 378 358 363 c 128,-1,23
 343 348 343 348 318 310 c 2,24,-1
 301 283 l 1,25,-1
 201 391 l 1,26,-1
 218 408 l 2,27,28
 242 432 242 432 270 475 c 1,29,30
 302 514 302 514 346 580 c 1,31,32
 425 711 425 711 443 750 c 2,33,-1
 453 771 l 1,34,-1
 595 713 l 1,35,-1
 575 687 l 1,36,37
 512 607 512 607 475 548 c 1,0,1
EndSplineSet
Colour: ffbf00
EndChar

